<mxfile host="app.diagrams.net" modified="2020-10-22T14:07:01.548Z" agent="5.0 (Macintosh; Intel Mac OS X 10_15_6) AppleWebKit/537.36 (KHTML, like Gecko) Chrome/85.0.4183.121 Safari/537.36 Edg/85.0.564.68" etag="Qrg7NlUWd1dZM_TOTGuc" version="13.8.1" type="github">
  <diagram id="qEOHqob3KzggAkcwU79z" name="Page-1">
    <mxGraphModel dx="944" dy="496" grid="1" gridSize="10" guides="1" tooltips="1" connect="1" arrows="1" fold="1" page="1" pageScale="1" pageWidth="827" pageHeight="1169" math="0" shadow="0">
      <root>
        <mxCell id="0" />
        <mxCell id="1" parent="0" />
        <mxCell id="qtwSQsPml5bytBeIYUfw-1" value="" style="whiteSpace=wrap;html=1;aspect=fixed;fillColor=#f8cecc;strokeColor=#b85450;" vertex="1" parent="1">
          <mxGeometry x="120" width="470" height="470" as="geometry" />
        </mxCell>
        <mxCell id="qtwSQsPml5bytBeIYUfw-3" value="" style="aspect=fixed;perimeter=ellipsePerimeter;html=1;align=center;shadow=0;dashed=0;spacingTop=3;image;image=img/lib/active_directory/internet_cloud.svg;" vertex="1" parent="1">
          <mxGeometry x="743.05" y="155.25" width="176.98" height="111.5" as="geometry" />
        </mxCell>
        <mxCell id="qtwSQsPml5bytBeIYUfw-21" style="edgeStyle=orthogonalEdgeStyle;rounded=0;orthogonalLoop=1;jettySize=auto;html=1;exitX=1;exitY=0.5;exitDx=0;exitDy=0;exitPerimeter=0;entryX=0;entryY=0.5;entryDx=0;entryDy=0;endArrow=none;endFill=0;" edge="1" parent="1" source="qtwSQsPml5bytBeIYUfw-4" target="qtwSQsPml5bytBeIYUfw-3">
          <mxGeometry relative="1" as="geometry" />
        </mxCell>
        <mxCell id="qtwSQsPml5bytBeIYUfw-4" value="" style="outlineConnect=0;dashed=0;verticalLabelPosition=bottom;verticalAlign=top;align=center;html=1;shape=mxgraph.aws3.router;fillColor=#F58534;gradientColor=none;" vertex="1" parent="1">
          <mxGeometry x="450" y="160" width="97.75" height="102" as="geometry" />
        </mxCell>
        <mxCell id="qtwSQsPml5bytBeIYUfw-24" style="edgeStyle=orthogonalEdgeStyle;rounded=0;orthogonalLoop=1;jettySize=auto;html=1;exitX=1;exitY=0.5;exitDx=0;exitDy=0;endArrow=none;endFill=0;entryX=0.5;entryY=0;entryDx=0;entryDy=0;entryPerimeter=0;" edge="1" parent="1" source="qtwSQsPml5bytBeIYUfw-9" target="qtwSQsPml5bytBeIYUfw-4">
          <mxGeometry relative="1" as="geometry" />
        </mxCell>
        <mxCell id="qtwSQsPml5bytBeIYUfw-9" value="" style="rounded=0;whiteSpace=wrap;html=1;fillColor=#ffe6cc;strokeColor=#d79b00;" vertex="1" parent="1">
          <mxGeometry x="140" y="50" width="240" height="140" as="geometry" />
        </mxCell>
        <mxCell id="qtwSQsPml5bytBeIYUfw-5" value="" style="shape=image;verticalLabelPosition=bottom;labelBackgroundColor=#ffffff;verticalAlign=top;aspect=fixed;imageAspect=0;image=data:image/png,iVBORw0KGgoAAAANSUhEUgAAAecAAAIACAYAAAC4pKTzAAABgWlDQ1BzUkdCIElFQzYxOTY2LTIuMQAAKJF1kbtLA0EQh78kSkQjClpYWBwSraJoBNFGMEFUCBJiBF9NcuYh5HHcJUiwFWwDCqKNr0L/Am0Fa0FQFEEEO2tFG5VzLgkkiJlldr797c6wOwv2cEpNGw2DkM7k9NCUT1lYXFKcLzhppgM7SkQ1tIlgMEBd+7zHZsXbfqtW/XP/WstqzFDB1iQ8rmp6TnhaOLCe0yzeEe5Uk5FV4TNhjy4XFL6z9GiZXy1OlPnbYj0c8oO9XVhJ1HC0htWknhaWl+NOp/Jq5T7WS1yxzPycxB7xbgxCTOFDYYZJ/IwwxJjMI/TjZUBW1MkfLOXPkpVcVWaNAjprJEiSwyNqXqrHJMZFj8lIUbD6/7evRnzYW67u8kHjs2m+94JzG36Kpvl1ZJo/x+B4gstMNT97CKMfohermvsA2jbh/KqqRXfhYgu6HrWIHilJDnF7PA5vp9C6CB030Lxc7llln5MHCG/IV13D3j70yfm2lV8GqWe66Z74eAAAAAZiS0dEAP8A/wD/oL2nkwAAAAlwSFlzAAALEwAACxMBAJqcGAAAAAd0SU1FB+IGBhYQJFMZkxcAACAASURBVHja7J13nGRFub+f6pndybvLgmREkCxJEJQgQUAMYECuInoF81zBnO41K9drFrPDz4heTCAiiCJwDQgiS152CSI5h2V3dmd2ZsN0/f443T0nVNWpnp3ZSd9nP/uZme4+3efUqa5vvW+99b4ghBBCCCGEEEIIP0ZNMD4svHDhZ4C3AKsxDNV+roba78n/IWts8pipPWYZosJqbOO4fuBBDA8uf9HydWpZIYSYfbSqCcaNQWCrzCO29sNYDAZrbPKYGX2uMT0yhSlTdZNLNnnEGnsfcD8w+tMkP1e8cMVKNbsQQkichZ/HMqKbElxT+8XYmkC7fBY29VjyewXYxlizDXCwNbZwzIJLF/RjaqJtSIv4nRhuWXHUClneQgghcZ7l4mwdgpuznDMCnRblouXcOLbAqJDPB/YG9s5Y5MnPNQsuX3CTNXYRcC2GRcA/+1/Qb3WrhBBiaqM153Fi4YUL9weuK7SqAZtWbeO5AyZ8V2zFlrvCbfY5x+euAK4HFtXEelH/kf0P6+4JIYTEeaaK87bAAy6RtaTWnNNCisNq9omzyx0eEnqbs7p9xxkexrIIw7XAIuDa/iP6+3VHhRBC4jwTxHkuhjWu1m1YsKbkDriEPe8KL7O8U6LfcKfnPz9tZRfPyWK40WJ/azAX9B/ev1h3VwghJM7TWaCXAwtcbueC9VwmzDZxZRtrRi3nvOu6RNSDd7zMWjeN97gH+G3t/99WHrZyRHdaCCEkztNHnC9aeDuwq691LbYopMZ/Z5wBZCbC6qbkWBPRA4zzfJcBFwMXAH9c+fyVq3XXhRBC4jzVLecrgOe7hLduOWes2rG4tG2kQPtc6hao+HtB/bMKVn6a5Pgh4HLgtxguXHnIyifUA4QQYnzQVqrxneo8VnjMZsW21C1dP4bR/dFjmnJZj2vbFM8r+3SyRt0QdddkIHmsAzgeOB5Ldd6V864GLsDwk5WHrHxcnUEIIcZORU0wrjzu3e6U3YMc9l343N0WfwBY/XeLX5Bd1rdjYmBGze5Y30oFwyEYvmSx9/dc1fPTnr/3HKjuIIQQEuepwGMNYc2JpLEmK3Q2J6jW8RwlFnZe/I1H/NN/V0s+A4/VbkqE2jaiw9swvB64pufvPdf0XN3z+p6re+aqawghhMR58sTZui1kiw0Lomvt2JNxzGvV2uzjxpriMZWAkKc+uxEMZnMTCfyWvrEmm/gEDsTyUyz391zd85meq3u2VhcRQgiJ88bF8rizqEXdEi3b55y2dG3gOZ+FnRJca6w/9ad1n2PDAi6Y/YRd3KFJRHJOWwAfB+7t+UfPL3r+0XOIOosQQsTZa2IDWXjhwoOBqxrTHuuwREOinBdgV47tiD3O6b+dqUN9VrorcUla9CN6kKtAh2eScSMVvgn8fNVzVw2r9wghhCznieJxr6WZdxFTYoW6kon43N0e0Wxs3ypbL069d8EVnre4Q4JtPGvVONvj2Vh+iOXBnmt6PtO9qLtH3UcIISTOE8FjvqAvY03WtR2x/lwX5oZAN1lPqmEB24jJQJnIEhb4xjax0DW5o9U3JXF539m9qPvt3Yu6W9SNhBCzHbm1x5mFFy5chaE737pOt3ZoS1MqQ1hD/JrJzY1jn7NxWLLGL6CFzzSBXjOWtKG5NqgdeyvwwYEDB36v3iSEkOUsxmu6c3tGeFJWrNM17LJg0y7mMsvZY/nW144zopwOBjP+97JY92f6orbTa9t29Ly9wmyzE4RGVrLkuD2Ai7uv7b6s+9rufdShhBASZ7HhWJa4BCxYmSovYDHJRPLWZ1pAU4lEMpMCUzIpqD3nzUzmOy43CfFaz573KUxCksePxnJD97XdP+y+tltbsIQQEmexQSz1CpIpsXjTIprehmWNV0idFmntd2+kdihDmR0NJPNu/8oflxL0QtpP47i+dHsYQmJewfJG4J/d13V/uvu67i51LyGExFmMhSUFqzmU49qUW6bpteeM8PkmAClRzIilS+Ad59rIr+3bJ+15n8y6ussDEAiWK7mWLuATwJ3d13W/ufv6bvVbIYTEWTSBYWleeBvbk2KjrR3iW9hS5RI+67BQ8ViuaQG0DivdZ2Ebvxcgk5ObgMXt+NzCRMA6r3UrDN/HcmP39d0HqLMJIWaulIhxZ+FFC/sxzMuLbDB62nNHMmUjQ2vOHkvc6doO/U4qSruZ8pTWc30ln+VNtOL77NHH1gOfAj43sP9AVb1OCCHLWZSxNDqy2udmtqOWbCZy2mUVO6zYwr5jXy5txzk0gshcIulya6cs50LSE1NiveOw2l2fXfQKtAL/Dfy5+/rup6vLCSEkziKMLQaF2WwVjHLRNk1Y2/gt2kw1rMgSkJmiF5CtZFUJH5eZSDRTDpNCtHZWoP1W+2HAzV03dJ2kjieEkDiLEEvyItKwKEv2GOd/N9Zk14F9Qpz/PJsK6rLxAlkX9Iaou6xgj1hmArtM2MoOTkzAX+TDOI9fAPy864aun3Td2KU0oEIIibNwCstSrwsZj+AYv2h5txqF6jaXUcVfdjL/e0yt6bSl7ps85K3i1FYqZ0BYTOnMzMebfwdu6rqx6yB1QiGExFkULeeQW7dMvGKEMP0a144nX/RzXhw95+EsG5n+PI9gO933xmG1p70DVZP1EIS8AuVLADsCf+u6setTXTd2KU+3EGKa2nhiQlj4u4VPYtnUG8EMxT3Bnr8LEdu+18bk1o48j8y6c0zUNWAr1l+HOmJyEjzf+lTSEcXtnEgkr/k78PrBfQfvUY8UQshyFklQmMlGMHv3AXvc0+mc087SkeMxxcqvDfv+LnObm8QCzri2m1hbL/UweNbrG2Ux3Rb2wcBNXTd1vVodUgghcRaQ205VD9DyimvebVsXOyIqPXn1zWSLX+ARy9xWqdL9yj4Xc37NuRkrmlwgmq9AR86lnmlX90RgHvCLrpu7PqAuKYSQOIslGSsYR5WoMgvSFQUdEKr8sZYmyje6RN2XF9v636cRIV4WzOWxxDPR5TFbsczoOQe8EAbLl7pu7jqz66YuLeUIISTOs95yTolHIZkIRFnE3uxgeISP7KQg+NqQ6zki2Yn3emyEdV9WA9o3Kcg930iPmhf94jm9B8PPu27umqvuKYSQOM9Obklbkw0L2EYIq+9vU2Jp5wTdu/ZbkoPbGlusLhWyXl3n2MREwlky0jT33rbiqcBVPOY1GC7pWtw1T11UCCFxnmU8dfxTTwG3pWsrZyxgE2mVkktrGZvvOi12rjSeZZnG0q8t2w8dKIbh9QoYRjOPUWK9l9SftsY21ucjt58dCfyt6+Yu1YkWQkicZx2GP+VLNzqFNlzgIWwF+z7avU59HZZHGp9ddb+fcW98Dgupbz3ad6xD8J37nE35Z2fyecevKO8N/L1rcddu6qhCCInz7OJPecHLVF7KC5tHtLxWcN4itVlxdERq7wZ8EsPtzoISLre5HeOVR9Spzl9foSoV4UmL08pu5nwM21tjr+q8pfNgdVUhhMR59vAXoJqs4NrR4KVQju2yOsdllqgJWLPQDXwL+AZwZaEgRnp/dagiVZn4+QTThK8141Uos9IDmcKC7ZNbbzfWLDTWXN55S+fL1V2FEBLnWcBTxz31FHBT3YJtRGzbgEhViUr4UZrgw2elw1ws38LyWyznuSzYRuBaKIXmWDYkWb8F7N0uFjkZyLRrJcIrkc3p3QH8uvOWzrer1wohJM6zgz95BdQGRMtX6cmUWKYut3ZR0CoYvoThDuBrURnHynKC20BUuvVbwJkoa5dIG4dnICTMOde+87zT9adH06K2AN/tXNL57+qyQgiJ82wRZzPG/cpNWpBpQSoEoRWP+SiGDuADgG1k+KoHWfn2Mqddy7mymAYzmpfbJZCeSPS6FVtasMO63yMwEQm2s8WmJxMG+EHnks5j1W2FEBLnmc3fgHVO0Y0sKFEqzC4BdFWKcov+24GDgDdgWQOJNZvJaBaTjGSs1xA76cBzrflr9E1wHGvimSj40YnHHOC8ziWd+6vrCiEkzjOUp457agC41hkIFhNljGP7FQFrMiXYBk+e66IL+FXAm4BXYVheD1yrB7F5JxGmaIU2jvG53U3xXDMi6ZlgxGQa80548tdsRtvHVlLpRkevqRu4uHNJ547qwUIIifPM5U8NkfWVeLRe4RwVL9cxgWIUDbe2P4l2miOBz2B5pbHmvsZasGu/sTdltynuOfZZ2aY4+Qi43/2i7bPefa/LbTkrFOoY/bkF8MfOJZ1PU/cVQkicZ7A4Z9ZTbcAKdTxWus85mJ7ahq3O0af3A74PnGysuckr5oF9yI01XJdVn6ZKoTRmlGUcosyV7bCwC9Hz2XX0nYCLO5d2dqkLCyEkzjMMi/27xQ57RTRQCMO5LhohygVBDu2pzj63E3Cexb4TuNR5jiWfWciRbTw9r/b59YjpYDCY6/1q526NY33clN6U7L7zvDCPfvYBwLmdSztb1ZOFEBLnGcTy45avMZirMkKQz1vt8zxb4y4IESoCkRarkCXqnxBsZTC/A74I/Ljgjg6UbYz63JyIFtacfa56xzp0JnAtP5EIFRPx1ND21JF+cc2jIIQQEucZZT0b697vXJZwJGT5eUTaW/3KOj7Pk1vbYufXBPq3VDgjaLHHZjRzbcGyjgmIr9CGwZ1VLLb9TMnj+YlH9vWndN7a+Vn1ZCGExHlm8aeCILgsNp8A+qy/EhHKuMQjgrpyE4p2LOdhuRfDW7GsD22dymzZ8p2ncVio1hEUFiqk4UhCknHjG7eQu67bYv0Wd3GS8JHOpZ2nqSsLISTOMwRjzbUW2x+0PD0BTN7UlhZ/xjFyFqlLIIMe6IZF2gL8AFgAvAIY8gle/ZhGxHakxd/YzuSyvCNKUTaSkOSFPx/NHlsT2wQ8BIZvdN7aeZR6tBBiQjVDTbDx2OTiTX4EnFoQioAFXF+PdWYX861ZG4d16ItcdlihAVH/BEkxj4uA+c5jcayR24D17IpIzx+bzpVdcV+H8xopsbpNdruZdyJTfK+HrbF7D+0+tEy9eoYPkGtNF7AVhq2wLMDUQhlNZopbwWAstv73OgxPAI8Bj1FhhVpSSJynsjj/bpOjMVzmbfkS123Iui5Yo3WhxFFhKiKbV6F846hA/g+Gc4FLMGxRmEykRTI/cfAItXOd2nfOZedb9lqPOHuPcZxH7bMuGNp96JXq1dObynClQrJDYS9r7J7Gml2tsVtj2ArYCkuP18tkApPK7O/bYXhQrS0kzlPXcq4AD9Zm4n5LNsaidAlg6vfgVqq04AZcv4Uc2aPHnwl8l2Sr1TMa51mx2XPyTQQ8EereQa6kMEc6SUv0ZCT1mswe8orH0nd/du/qPVafpZ49TYR4daUDw0HAvsBewF4Y9iCpSuaf5Pn+ruS8U/7jnoHhPt0BIXGe2gL9VeC9YxZn3ww+xj1t4wUvaNEmP78DfA64BHhWwWJvZpDzWSCea/O1Q8G7EBGdXXCHN3FfgNXW2P2Hdh+6XT17CorxYKUC7IfhGOBoDIcAba5+no7rsBUblzM+18+cQYkJz8Rwt+6IaAYlVtj4nAO817u/udltVa7gpUpOKGNct4XT8FjBo699B9BOkvbzIgzPrQtd0IogUph9aUp9Ewk8W7jKXPiuQLGIWtm1c+4Eft5xW8dzh3YfWquuPfm0DLTsABxjscdgOBLLpoX+EKhHnskY5/puVjx9wZ+Zp16OVIjmJpdqgo3L8pcuvx7DHRkx8GUIy+/npcSqS/3eKMXYjFC6Zv2uAWo0KvxNwJnAsVguz5yrjZhImMD12RLLGc+1p9/beF6XOxeDcZ+jCd+X2jnvC/yPevYkCvKqls1aVrW8u2Wg5UaLvRs4C8OJBWG27u9Numyp97vmm8j5LObsayXOQuI8LbCc48y65RgMMluMyiot5SwAM5q6yz8BcGXJIiK5x+hzryPJnvVKgzmvEFnuy1sdY1Fbz+TFOqwd12cFjkm/r9fqDiRyyaUbfV/HbR3HqGNvVEFubVnVcnzLqpbzMTyM4Wu1iVL5hDPWS2VLvm/16mbpeuLWYaVLnIXEedrwsygRSM/iTZxQRQ0y6ceqRXG3RBSiyA52J9au6RTge17hd4m0r/hFrHu/tq86004lW8ucngcIJ3jxZHSrfa4Bzu64vWMzde0JFuWVLc9qWdXyZSwPAhcCr6zV4C56QdzeHq/nJWNBm4j+Unu/TBIc9+4CibOQOE8Hlr90+V3AP1wDRP7L3whW8bl5PfmgC5avz6VcKT6X2YLlE/uieB6P5TfAe4w1XyhYGDgsClsinL7qVyYr6s4sX77JQK49MoN5JWJCwqi1lJtUbIXlh+rdEyDI/S2mpb/lpJb+lkXAEizvz2zjC5UWNQHLmYg+GJrs2ujnJM5C4jxtMCnXduzAULa9J5/j2gTWcgOfa7Hxg1H22BcCF1vsGcCHgnnD86WbQ2vOrmtMud/r0eGZetJl6UrzLm1LpozlGDm+4/aOd6hzj5Mor2gxLStaTgAWAz8nqRAW71kxhMqBFvpaZs252e9meBIrcRYS52mD5ZcY1ju3OKWsP2dRCAIWZeYjrD8K2uKtylS3JjOu4vRnGEIR30dguBQ4C8tbMIzEWB/BaO2IQbAu0AUrOrT1zHiuLeRxwHO+o6/9cscdHbuqg28YrStaj8dwPYZfA3sGJ2r5e+PaHudbCnJ4okrrizv6hgl3WImzkDhPF5a/dPkTWC4rCEiohGSZO80R3V0IVMEhQrkJQaMuM9YdZGUDlkLy2QcDl2M4H8ursazxDpQx+cNjBLvMTe463jqsJOsRZFu09J1lLi0dWM5UDx+jKC9vPbZlRcs1wIXGmmcH+3+o+EqMpyk3OSwsH5VbxKMT6HrpUnf/ljgLifO0wtQCw0oqJxWEK3KNrD5oFETReizv5iz/4t/ZPcsHAH8G/obhpcBA5nW+iGscEwcT5zVIFetwTwTyEwwTyIJW0ra5aO385ODFHXd0vEgdvAlRfqr1yNblrVdiuMRgDmzkPHdPgLz9OVN0xYYt7PS9NNWS5R/jt7YbOyrqk1mldhIS52nPBcBq33pqQbjK9u7mhCmYHcwXcIVn329klq8c+5AUylgKvABY5hvgfEIf9BRk/nREzPrEPXXtmcHfQuw6eaHEZfFavtJxR4eS/JSL8uatT7Wej+FPWA5J98HCBCg9aoVSwJYJa+65RurXkDs74DEylMZ1PK47LSTO04jlL1k+APw6Y3U59iRnahzbuNl9w83msiDKArxs6Rpa3Jau5LE9sPwJuBd4PqQKAJQlWYlZJzSO8w0Fg+Xb15RMDDznU0iPWrz+PYC3q5cHhflEDEsxvLIQxR8SxEBGt7rQNuXxscUUnsE+l/egYLN7nYsT2od1t4XEefrxlcwXOScaGevBRFqsJufSJsrKHbU8TC6K2TVQUbTEM67I7Ot3By4nKaF3CPDP/ADo3OcckzQi754uS8OZa4fCunqkSzKYsW100P90xx0dC9TFc6K8rHXT1mWtvwDOxbKZTwSda7iRrmqn0Lq+O6lEIk1NRlNWc32S5tnl0I9hte66kDhPP+v5ZuCP0SJgA4NGKqCrqSISuc/LWN0lW7bSf9ePLSRxSJ7fm6SKVX/Ngr4x5Fp3TVQKKU9zg2Rw7d6UvH9EkgrnRCYs/psCn1Avzwjz8cAS4DX5TFtRZVINpUljCjscfAIdCPbzVjIrm+wWXyOrWUicpzFfdH7ZLcWgI9+gYZqw6iKtaBN+Mjx4Weeguz/wB5J19iOAKyCpAhSM1g4kEamLZ8bS9yU/yQuyy8p2RbEHBueItj69446OnWe9KD/ZOr91WeuPSbJ6bZlp35BIUi6mBS8MNmqrYcbzkvqeFSYFtjmrPccjGt6ExHn6Ws9/Aq4rFSQ8YuJ4LJPS0jWgBKzMeoYw51aqwB7TQi1l92B6EPA7LOuAY4GL0pZOITrXlA/ImTziIQs/PempXVtmT3dZhSobsJ6N9/7MAb48y63lYzEsIUnv6p/M5LwUwZrkrklh3h3u8or4XOg2YiLqSQ0bXD6yspyFxHlmWs8e68BpCfoKRaQHl6pjkCmzTHFYkq49w768xsXB7XDgtzX9PwH4aUHsQoRc7WXCnJq81AUgU3+6ieIIhcmP9XoQXtbxz46jZqG1bOY8OeeLWC7Bsm2MIKeF2dufKPlu4NmCVfI98fY96znOF4yY/W5KnIXEeZrza+CumHXhKFH1CbrLEnTs2YyKmHV8biFq1fV5VQCOwXBezUw/xVjz9VLrxXMeTg9BqHAF2UlGwSVecq2ZSmHxVv6ZHf/smDXJKOY8OWcu8DMsHwxOrmzAe5OPoC6Ztzld065dBTHfMV8fNI6JangiKHEWEufpzPIXL68CX/Fav1Bu2Rn/YFUmyulBMWN5+JKAeJeIrVvg3ZOL44CfY6iseu6q91hjPxEUVE8gUCGiPX+OoS1VeLKoWc+ATGDblw1OKvYC3jwrhPmJOQuw/BE4qREcWJYEx9OnvIFd+PtuZr97KDdAoFSrtz/EnHf2NVpzFhLnGcCPqCcsyK2HRe3fzBeFoMTqCJSgdOa6jrA2MnuyQ4PX6Nu/CvhJzzU9lYEDB84ATgNs0BItK5oRsnjyg6r1ZHYKra271sdDE6jRv89ov7N93gwX5m2BvwFHFCY+MRXIjMeD4xPbMo+Hz3IOWeKumI+AADe2EGJcEzNZzkLiPAOs52Hgmy7rwZvsIrRnOb8lqtk60KEB0GOF2or1W9yeNWtr7MnA93qu6TEDBw58B3hdLWAs7ryace3HinfgveqpHgvWuk/QR9tuc2PN6TNWmB+fsxdJKdQ9G5MX60kMEgi0a0yWbJP3MN3nQ/vyS96zMMH0TRIc37fCdj/DfRrZhMR5ZvBt6nmoU1azt0IUYWvPWQggVF0qNAjGRI/b3OBW5jqksS/1TdbYbwEMHDjwcwwvxzJUdn3Zp0sGVcd5NwbysrXq0CAfszd69JjT2+9snzsDhfnImsW8TbqPNZJzxPap2j3JlP8s65uu6lC+bXQm3A8bk66y70W6YAam2PeSPx/B8ICGNCFxnhnW83Lg+3nLOVp0UoNDRtDTr6/iGkj8Yud5/4LVUCZcLlehzQyM7+he1P1VgIEDBv6A4RhghSuIy+UhsM26A1wTnbKqW6l0j0Fr3j+h2Qo4aYYJ88nAJcD8aM9MSYUzZ15tQ9TWttKIf1+pyVDZUtdWuZToeybB12hEExLnmYThq8D60sElZEXYknW7CNHyFhFwWIaNzGK2RCTzQUHFc3lv96Luz9YE+irgcCyPBk/X95kRGcIKg2qZizuV7rGwXSefAMWzXchY894ZI8yPzfkw8L/A3NKqXjYwOcp5e0zVxAXe+Uql+rZSuSZlruQntmRimRo9nalnk59XazATEueZZD2/aPkDwM/TX/zSyOvU70GLI6b4RUjUjMcCzm9LClkeHkspNaB+pPva7o/XBHoxcChwT2jgd64TQlxQWX0grhJ2UeesZq+lld4y5s6Vvm/7ne1HzgBh/ijw+cbV5ZcHrCc/tkuYHek3PbmqSydS3vSdPqs558GJcmvX7m9hkpa9tn9oNBMS55nHGcDaUgvUMSg0rAcCghUKkonZA5pLxFBfa/ZErEa55HOpSj/TfW33B2oCfRdwCIYlBQEwngmJy1rzZ/EKWtfeiQBhz4XrfVLHvm9aC/Pjc14LnOGdvJFbby5Jn1loY4x7WSV2f7ItsZrz/cPkhDnmOxM+l/XYVNY/ISTOM8Z6vhP4em5AL965kmjtIKGiE75BzlETufB5xiHgPquJgmil+VL3td2nAww8Z+ARqhwGKVdhIB2jd+B3bTcrS9MZs/+2LJdzbhJhrHlp+53tu0xTi/lQLD8CjNf9m56sld1/z75jbyBZ5CQqilACHl/fifvOLKaialRC4jxjrWdjzaOZLTvWbbXmLRbvoJF/j9jBy1Vz2mHtlOZDjmX0uG90X9v9lpoFvRzDMRgudU5CbHjy4Ho8s/2liXMurT/t8jIw6ga1yRtMu7XnOY/N2RnLBUCbc209N4EJxgJYTx/zTXBiRRaLdwIX8OA4t3yVTQ6Md3lDLm0hcZ7B1vMq4L+8lmBeLNO1actyc4fK9FlnTebR3Ny+bE7YuGCz3ADpjLAdHVQNcFb3dd2vBxjYf2AQOB741ehbmqIbNGZrFPj3xMZ4EwhYy4F2Tl3rG9rvbN902gjzo3M2BX4PbOrNnlWMwC+mWDXEJfqIvQf5iakhbutWzHYpE55sBSa4EmchcZ7hnG2sWZQZTELuttTvzvXfEpGpC3uh0lPEYFcXumA+ZEfVp3RQjacEYwXLD7uv6z6mJtBrgdcCP6hPChpVtEyE1VMvE1j7Z2JUISJ1aUzijNwkpBND7zQR5jaSYiU7FbwSgbXYQkrN/KSSJj05rr7sKngRc49sibfJFbTmuNZGyttsjIfEWWwQRk0w9VnwxwXPBa4uqIgJTLmsJ8K7LACsJlrGmmy2L0u4vrFxVHhyfV7gPUqPg5XA8weeM7AYoPv6bgN81xr79tJzDCVsMYHI68C2qmC5yBILLXXsI1ieMbzz8NopLMwG+Bnp/dkmrq28fTBkNdfTqlZK9h0H3iMzUTMR/a/s88BbptUh7E/QwuYauYQs5xnOimNXXIPhp1HpDCuE1z7z24U8Be9txYbLU+b/tsQlArHERru6Bsl5GH7ffV33tjUL2gL/YTDfdlq2ptyqtRXbXPIS4xiQ83EANGEFWrbCTPmkJGcYa05yilQo4K5saSVwr5177EPu5Pwkz0T1p8xjzmIvrslcPqiwuJXqAo1aQuI8W7D8JzBQOrBVU3/mtzaF1thcxSSMW5icbklTev7+IC3f610DsWUbDBd3X989ry7QA/sNnE4tst07+IcG5DEEhHkG5ShhzuzpTn5M2cCwuY/MfSPwUWefKavQlK765UrS4hLCfKUwAp4XfBA06QAAIABJREFUl/VrIgISy/b2h4poRHieqOUoEELiPDus50cwfDbWyqwHWWUimWOEJx11XZbKMj9gxvQ0j3UZtU95lL2xnNd9fXdr/YHB/QbfA3w1mOXLeAW/uYE60rr2XUMmSUbSxvu2/6v9+VNQmI8CzvJOQkICbUfjFgp7nV3rvvkgQXKVv0zx/V0enULsgiWuX5nI++oW4/RE7WHgrxqxhMR5dlnPZ2K4yyuU+S07Pqu5rKZtupKQKRGfkICZSMsjZIX6t9kcA/y/9CGD+w2+H/hiqBRmqIZ1qD1c51u619kz8Bcs5+TX104xYd4EOAeYE5Wv2tG3MsscZRasb+3Yt/c4UE88k87VeCYQlfC9jQ5Qs4VqVL+ikvZfCSFxng3W8xpsKrOUKRnY6pHIocjaZqxGT1R4wfJOWy12jBfr25+cHZTf2H199yczAv3swQ9j+J9S0TQlVnuJxRQtVjHZ0BJe1f6v9pYp1N3OBLZIC1ZmCaDMIk2n7/T1Bd/+6NQLvdnYfBnY0hMC14TQus/TeW9M/H1NnbNc2kLiPEsF+kLIJuFwDXaN/M9pl6LbAnULhyviOBShazwWZaiyT4wg5gfQYqKRT3Vf331KTqA/CnwmMxh7BtdMFqqQu9NRYMFZ/KLEai6Izuh7bo7hiClhNT8891jglLyXoHBfXR4Gn/CZyL6QS91Z+MwIa7sxIa0QN0lsNoWtLX5e7X7eRQuLNEoJifPs5d3AcGg92JmQPzZTUn7NuYk0n4W16iYL1keLdfozjf1e1w1dR+cE+pPAJ5xrv45JR8OVWZLuM5M3utnyhGXWmeU1U0CYu4Gz8ucezCeeb5/6Vr783mYCfcGx5mwwQVH0lYwsWM2Rfa0p17372F9oaBIS59lsPb9wxe3Ah8oGj8baZkigHIJUX0NzFs6IqfIUayWnqjzlqlJFJfRITUTmAL/uvqF7r5xAnwF8pHCdqYlEKp1meaBQWS7wyHXRQJKWE9rvam+d1M5l+DywfX4Pb6Z9QtHOrgpPIUvU4E5MU9sv7wwIIyC6NreVqsxitlH3pdS6rn1X5NIWEmcJ9IpvAhdnBhLHXt/CflGfOzK0hzk9kHkGLU+xebdQ26LVGrTMXFtwioI3z2J/33Vj1zYZgd538HONiUzefZr6zEy6Ul8wmXVMfGKsZhttoW2K5ahJtJoPxfIO10TCWIOp5oLYytJvmkBltGZEMNQnrHvSmRH1shKolEy6fNHh2aIvS2hhqUYmIXEWAG8EHnXmx87O6MPrbrk9y/U1v6BbMveehUAcKI9eLhMt4+ipjsE8ZSlti+X3XTd2zcsJ9JeA9zkzVNVcqBkLL2IrVrBmcImFFrTMzeS4tuc+NLedJB2qidqzHtrrnJ+0GcpLN3rayRmt7csLz+iEKXOcL2LbRk6cbMAbNDoZ+LGGIyFxFnXr+QngVMCmrZm6FVjYymIClvFYRKaw+8mUDqBNW0h1qp7jatebEoG9gfO6buxqzQn0mVjelR6wncLh8w7EtFdJRiyn+744YXll+13tcyehO30K2CXvIchcRsWWC5YJiGHZRC0faOXa0uTKcpez0oOxFrH9zxXMZj0eI8tTmNo6vRASZwGw4pgVfwS+5hpcgpavLyGHSVmSMXucCVhQoe0zud+j3MRlA+3oc4U90DWB/iZwmlcqTLmFFDWYe84xs77taqdEnBbUzn9jWs37YXi/y4tSar02e4/yrwmUjcxsBQz1v7FWoCJgNVvCSzzpCanha7bFDmg0EhJnkR+E/hO4yTVwOCNe88E7pmiJlg6uYwkA85xHXZgjCl9438vhi31j101dnywI9D6D38HSC9hGkY5QZLnxD+SFACIT52HIWHfuwLyN5tqe+9DcVuCHQGthQlW2r7skaK8hrq6JWsijkppYBt3MZbWZqxHeG1MSpR1azkmWRPot9hsahITEWRSt56NXrMVyMrA6Lw6FDE0RATgNwbKegTgQrVuwdMqsTQiXiywTZpNyFxdf+Kmum7pOcVjQ/w/LW7BUC5nU8haapw2C0drWb0lnop/Tr61kXv/y9rva2zZS9/kwsE/IMg26iQOTqNxyQ1NekUaF7tBE0bHcUPf6eKPLHfez0f+qxu9F8a95f5sW+jUKCYmzcAv0MStug1r2sLwwp4WlzCVoIlJpegQ6qrqTY6AMWkc+az8nHqZq3JWM4HtdN3Ud5bCgf2iNfRPkUi2a8LmWWpOm3GJ2Vj/KWt7zgBdNuNX84NzdsHzcGZEfynvebLyAbfK1Nieyoc817smjNzlMIDivUCK17HNg0FhzpkYfIXEWZRb0WcAFmS1KGH8VIN/acUjADd4gHkNgn6jPlW49WcUiXMNOa78ornOA87tu6torf8zqvVefbbFvsNiRUsGIWXP2vdZQXgmp+H4T79o2fB5DW1lsgNd6NcRn3gq1oSOLmNObUZYdLBUUlukPkdu1GhOnmO9A8vdZttU+qZFHTMzXU8woFly2YFMMN1tjt2kMVNi4rSwpoSukTyzZz5rZAxxyZZZ8btDaCUwqGhWQjPWJ5YMYnje4z+BD+WO7FnedZI39X6Cl2XYKvtazDzizxu6/tgEMTxvecXh4gqzmAzFcE3OtpdcZec2lo09K8AuR4SZwTOicy4LCHEGJmWN9n20YBna0rfYRjTpClrMot56PWbHMGvvv1N21vqjYEqsus/c3bSWHrGKfK3osxAYQQX5bi89a2xa4qOvmro784YN7D/6CpCrU+qiSkpRYgEQKc/p1xevrxnLQBHaV/46dsheSxHjKfjqzzdXLlsbmUrcez4yJt9y9yys23C+dGc38OxN+IGEWEmfRFP1H9f/ZYN6VsZhDVajyxSt8WZ3KBNJ4imaMVaRN3PGZLTch9zI8G/iu6z1W77X6XCyva0xqwu8zpvXmtAB401Jmfz98gqzmw2slN0snGd51X59oOjJ1GYxbWD33OZ1MpNA+/gIoTfVT1zkHS4Bmr3sQy+c10giJs2jegj5qxbcN5iulQVqmxNprVlitI3WiKbeOo12njvPP1O8N1Y1Onjul6+au/3AK9N6rfwW8NVuzEH9aT5pvq0z2tnTKUPdk6bAJ6h6fDXomTNFqduYej9hzXqiK5hJWW5wcRvVbz9JJMEe7Z329PmFq5KIPZz77hJ1jH9QoIyYSrTnPYBZcvsBg+JXFnui824F14UKu7LK1xfyxxvNax9/Bfc55C82zrlnYMubr4cl7rQUOH9x78B+uduu8pfPdGL4WshKd65Ohz3SJdPla+hCGBcM7Dq8dR6v5JcDF3nvoq7EcUwbU83zh3hi/18ZVj9w5cYuMQyhdo7b419fd13YdhufZ1pIgQiFkOQuv9Xz0Cmux/w783Rv97Ft/w1HkwGdhp15nsX5LEMLJOmKmjyFhDk08sn/PxXJe1+KuzZ0W9F6rvw58ImiF48goRbhNnZY8weM6gAPHuVt8JngPIzwVwXN23Jtg5HVMFL7PMnf0o2DyEjx9KbSlL8t64K0SZiFxFhtM/1H9w8DLgDudubVjfCmxNZ19Yu57/3p5QF9CDxsnbM5Sf+XHbgP8onNxZ4tToPdcfQbwJd/xpecc2JddGpWeZdzWnec+OPcFwP5ekSO67cJinbs3BQs23TbV4vG29i/YVz0TvkJ+7ZiEKSa6lvNX7Rx7k0YVIXEW4yXQy7C8GHgiI6Ch8pHWsW/ZlFs/jUGxUjKYUmK1lOVudg3coQAld+TvkbX6xXgE+kOQKmiQeg/v+YZqZ+fbyJRMgsz4ijOW9zZlueZE1il4oQkanmxzJVZ6OiAxU4889Nkpy7mw08A3ufBdH86+dRdJcRAhJM5iXAX6LuBlWIaClmlqUC0E89iwQDoLbYREtCy5R3yZxZAAZ4+pFq7jA12Lu04MnMU7gHPS75MJHqLEuvOk8CxUXPJHLx/cfnd76wZbzQ/M3cVgXur5jKBwZiK2XZM6T1GVjEu7meDC1D30xiF4JmXefPIRkwrvNSbn3mvn2iGNJELiLMZfoF/Q/w/gdViqPgFz1jaOsLKCe0tDj5e5p0us0PrnNvIwh7JxOQSwFhn8o85bOnf3WM9VLKcCFzQOrZqsyPomDvgnIYFkKfn36sLWXNEbgMG8x6ZPNuB2997KtBVc9UyQUq7qehR9wVNQds3GY8n6Jhb59eb8Z4YC2FwpP4sR3mfbufZyjSBC4iwmUqB/0ygP6BiUM/tSY1Mzkkqb2MzeK1dmMluSttFVfaj2uY2sUj6L1OJzr3cD53fe0tnjEej1GE4CLoPR7FWl5+q4zoh6ztn3Ss55g1zbbQ+0LQROKf083ILtnICErGeTFVnn/mHruCemZMJnc5Od3BJC2mIulLks6YOZjGTZNngcat8XISTOYkIF+sj+r5GuAW0jLAvKLejoNUnH4NgQ2dhCB7lBOFOaMOI4bGEA3w3o853m6j1WrwFeAVzlPVdLaUCcMz1kqG2T12zouvPbLLbTKZCx+dVd12nLPSPBQCuD3/WP9bdjhfJsbLF1uF0TkFHRXw+82s61yzRqCImz2DhY3gd8OzcYFUsiNlOw3nhKRm5oGs/AY2nLObO+WfY+ZjTZRcriOrnzls6TvQL9rNWrsbwUuLFgoUF5iUKfJRo4x9q39ND2u9tbxmg1z7HY071r/6HPDZ1jRIawets2Jk5lk7+0dyG9TOE730DAXcb740oJ6pioFaxty/vsXPtXDRZC4iw2nvX8gn7bf2T/6cDn04NdPRDMmcCBgLXUTNS1I+OWt2xkzGBeW2MMWluB68it/367c0nn0wMC3Q+8ELgtGMFcVqTDFRnsj5yfB+w7xlt9nMFs4/wMGzcKFNKNRgSDpb0Zzm1RJtKKbaLv1ftCIW4i/7me7Xy5de4f2Tb7TY0UQuIsJkekj+j/LwwfyVsdGWsnJCAxli4Byyw2R13JMdFrjOXlLxcAZ3cu6fR+N1bvsfpJ4Bhr7D3eLFTWY+WRcm1bvG5dh8iPzbVtOSUdS5BJGRrKt47jfJu51zZXncwX4Je/n1XHPXVNdjzb1grR2qHPdVjPtdctAv5Do4OQOIvJFujPAe9sDF3WU2YyZmCOWYt0RAp7g45syWOuY22JZZf6WY+8brjjk9cfAXwg1Gar91j9EHAU8HDUJKasdGJo+1fSZk3n2W57oO1pwEsaUfh1i7LiEa6Y+xuzrzyfI7ssS5zv/oYqhAX6mHdvdUStbWvso8AJdq5do5FBSJzFVBDobwFvBEYaQVahbUKhdd2yTGS+ZB2uAbNkrdBrYYUEJGspj1pN2fc/o3NJZ9CVPLT70D3A0cCTpQFULiu0TBCzbXDAGKzmk4E5jcmH+32jJmDRkellohp6j/zasC+hS0ylNfAvLfiLfqw11rzKzrUPaUQQEmcxlQT6bAyvMZi1yRjW/LYo73ohAbHNH2sjLXIT+Ny8BZZLfFJ3R3vX1mEucE7n0s6OEoG+DTgWS79TAMpSYcbWvTZs3X5P+/ymbqjhlKDFTmCC5BNvX2UqE5gMlQXoOSLHC+vyxv/a0s90TQAca9HGmtOr7dW/ayQQEmcx9QT68P5fAy8nqYjkt0g8LsOMBWpoqu6ZV0Dqn1eJsPhc+2cdlnIjUru2BuuZVOyB5Ytl5z20+9ANGF6KZXVBMMpyjVNyTdlgp91j27Ltvra9sDw7M8kKpGoNrgOTW9M3Hg9J0UUctpohmO7UmXHOdZ/z+bzz8RKmZLKR8I1qe/V7GgGExFlMZYG+xFjzImCVVzx8STOguI2lWUFqUrzq68WNdePQFiGbOw6KaSKzx53WubTzRaUCvdvQVRheAazxTWjSywWF6GefNZgxHs0eTbTXqZl7Esq2ZUqsTSI9GbmJUWZLU4xVS06UYyzwsvV6oq7pu8B79M0XEmcx9QX6iP4rjDVHAcsKFpPLXWwi01mGrO+QNVxWvhGHlWZKLDU8wpU9NwP8qPPWzs0iBPoy4CSS0oKF93ImL/GJh1v4osS57b62VuB19c/PBGaF2tZz36LqbOfF0jpycrvWoo17cteILI+4f954BFefLb7ld62xp1Xbq1bfeiFxFtPFgr4WeB6w2GuJmqLFHHRHxljLoaCuQP1pb2lC/FZ+o8BH/nXZc9gSy5dj2mxot6ELgFMbb1pl3LZ+WWyc5Zxsu9oi3z7edjV+C7ow4bIBy9nVdpby9WBHgJezslRoYpdyhTfuZ6V0UvddLKfZNithFhJnMb1YedjKfwEHAefEpHosRCJHRiQH3MpRWa2igtc852Iw5RMIwxs6l3YeEinQ52D4YOYbVhb57LvWbDvGurVf1lTb1J+uus+1NEGMdUzW0vWVI7KmRU3GTMTxZSU7bUqY4bRqhyxmMTUxagIRy7wr5p2O4avAHGcuY19kcMhyitn/az0DrylaTVEJToxnIuEb5EcfWwzst3qP1SMx7dVxR8e3gNMymlax4e1U/s8GsBbbs2aHNYOhz227v+1eYPugxY5fUF3nVbegnRXLjP/e1lN4eu+N514G+4RNWcWez/Yem/yUMAtZzmJGWdHfIknQ8bDPivJWXSqZGnrXqi1ul6u7ulTRustbdanjve5a/zacvYHTm2iyd2O4KP2+pXm1fUk9kmsxBrNbUJjva9sH2L5w/Tj3cmc/2zYhzDETIFtiuZuSY3yZ02IKW/iXUyTMQuIsZqBAP3/l3zHsB1yBd1y0YSswPxCbiPXFQGYo57pxXmg9BRZKE1oUB/jPdN7auVVMWw3tOjSC5bXA9U7rNXaLVXPrzi93JXBxRkCbJtvKJ+auc/Vtucq3tY1o+1CUdswxo5//NQmzkDiLmSvQh658jCR15Zn5tcRCJSFbLrZBq3m8CiV40n7mih24RSJ7DfMgLjisJtCDwHFY7nOeXxPbmGoW7B4lYv6yprwBEROCQhvFWqv5bVyutJyePfOFHNmh2IXyOtBrsby12ll9b7VTwiwkzmJmC/T6lYeufB+Gk4BB78BoSkTAOATAt00Hv2h5RSeU4tGV7cq3zp3l5M5bO49oQqAfxfASYEVhQhGZmSvlWvaKc9t9bdti2b90AlNS6tEV3ZzxMkTuXa+XfswU+ci/tlpy/dbhOSE4ecrf18cxvKDaWf2+vrVC4ixmk0j/EjgQuCOqLKCFqEAlnyVnAsLTzN7p1Bp5wc1sA+c7+ty3O27raI0W6F2GbgVOANaWXq/DOkwlWglZzi/zFtzIb2+zgUmML7CqLHd6wQFSsr+6ZPLW1Bq3u8/cgOE51c7qVfqmComzmI0CfSuwH/AVDCNRIuAQ2OB2Kp9YRkSCh6xFZ2nMkBt4dAKwB01mlRraZejP1ti3jCVgrrH3F7tD+z3tbZ4jjvdNfjJZ28q8GaFtX+kJjG/dt+wexVxv2bG+yO9RfoHh0Gpn9QF9Q8V0RFupxLgy76p5B1js94G9va7pki07zteW5Eeu58lulEQMlQc0ueMw5ZWtctZ2TbQGrLE7DO0+9GQzbdTxz46PA5+xFetfd/b8XbOA91mzw5rF6afa7mubQ+I273RtZ/Jdv3MJIWZrnIloY1/7utrVU5wkuO3M3Y+qwEdHukc+r2+jkOUsRN2KPmTltRieg+Fj5PNM4xaB+uBbEMjYqaP1ZAgLTUfrBTBcSTZK1q5TaTi7gXc320ZDuwydYY39ab2WdNBCz0Zq1y1gl2v7AKAz8z4mZzWHvBABD4czYM63Bux4T6dru8R6rx8T5U0Zfa9+i32ZhFlInIVwsOrgVetWHbzqs8C+WK4MCp9hTPuiMwN5eiuVJS7IKuSWLav/nLWeT++4raNnDM30Nmvs9U6r0yGwjeCqZCayo+P9jig8UqWYBS3WdVwW9FUilKUTrbzA5wTdmW7Ud47Je10C7Fntrl6sb6CQOAsRFunbgcOwnIatVbjyuUND4uDaWuV4nSEiLaYtEaPAfuy8NVkToAXAO5ptm+Gdh4eBV2J4wml1uiYwtvFzC6845xO2uALCQha05zwyW+RC+bJt8fWlFbFcW6EsFDwL7rKW/cBbRnpGXjzSPfKgvnVC4ixEnEDbVQev+g6GZ2G4ODPI5rJXOcsohgQkJRzOFJHNbp8KHRO2KN/bcXtH+xgE+gEs/4ZlvbfCU6qdUpHlGXGuVaE62DsZAfd+buN+rasuc6FONxHtEsoQFtjLXreaI5YbLsGy50jPyA/0TRMSZyHGItIHrXpg1fNWHQecjOUxl5Wa2a/sivi1JZa3afJvAiktfbjXYrfA8uaxtMvwzsN/xfB+Z+nGQhyWqQtX3nI+AOhynmc6+M2UpNEMBOo5rV9b4mkgUNvbRk4S3G3fD7x5pGfkxSPzZC0LibMQGy7Sz1v1cwzPBD6GZUU+i5RXBFw1nV1u0VBZQUfAlWlmw4L1TCaS9/tgM/ueMwK90/A3gLN9VZ7qlmujHGLerW1T6835dqr9npmE2Oau0xkQFgrYi5kQ+D7TNfnJvsUfgD1H5o38UN8mIXEWYnwFenDV81Z9FtgRw+exrC5sm3EN2IEUjo2I4LIsVjmBTkVAl1rK6ePr55kSkO0xnLwBzdKL5bqCi92m0ozWnjCYLXLneHjpefueK3Pj40jUkp8EeKzmTJR2bPR9yhWeq4D1MJZTR+aPvETWspgNaJ+zmHR6runZEviYNfatwNyYEobOcpEQTkKSs/gaa9Qx6ULLShomj98GPGtot6Ex5W9u/1f7dhiuw7K5c3+3baTRtFjmrtlhzfq2e9taMSwHuoPX6pr8BK4tWH4xdC/yEe2uWAAcgu0qAZp8bj/wReBrI/NHVuvbImQ5C7GxLOnnrnp01XNXnQ7sCpyNZST64JDr2hdQlt6uk39NKFtYbl924XMtu5MUBBkTwzsNP4Dl1RjW+yz92mMGw+a1x/bEpoS5+NrGz2hhDnkeCFjLjjXy0vdzuLNrE621WL4GPHNk/sj/SJiFxFmISWLgwIF7Bw4cOBXYC8OvG0N3SWBXdL3gsoCkMvGoCbypmtBa6ss3pA2Gdxr+K/BRl2WZ8w5sUXt8v7L81KWBYCXPeVN4NjNxMpH3xWAN5hyL3XVkwch7R+aPLNM3Q0ichZgaIn3bwAEDJ2I5ALgQS9UnrHXXqVNcIgTYYPyC5dkPbSvWHcCW/Hr8ODTBlzH8pXCu9b3DiZW+Re0z9wsJrsH4K2D5vAah4iL5kSOwZ72RHMaXAKb4eZdi2W/9gvWvH1kwcq++CWI2ozVnMeXpvrb7GUAvhjcDm2Wsytz2qowYROT1dpYzbGJN1XPMvkO7Dd28Idfcflf7dsBiDAs813fqmmesObvtvrargIODiUF85+va451be8+sVYdiAcqqWvnuRRKR9wfgK+sXrv/TJHSvnYC9gR1r/7uAe4G7gbuAf0BqmUEIibMQOZG+rrsNw6uB04DnZkQ2HxDWRDWjTHGGiO1BBaErvu8nhnYdOmNDr7f97vbXAj/Lv39NoD8MfBnLSgxdpRZ/vo3Kgu7GEhAWaF/HcQMYfozhm+s3Wf/PjdyVOoATgbcBh5a89hHgB7X/suaFxFmIoFBf371/TaRPwtCRimSOFpJMNLFL2NOu11SlK2fkc/ZzrhvabeiA8bjO9rvazwFOduwZ/iqG75FEiAcFMlgZCkqrUmVEOrZcp2/SBPdg+CaWH67fdH3/JHSd1wHfBDbJPf4UcA8wCDwD2Jbssp8FfgK8E2qpaIWQOAvhFemFGN6Epdca+8woq84hPhn3dqRl6BTnUVfttkO7Dj08DtbzfOBmYPucNXoOht8D5wS3g+UjzEtc367XNGU514+pFLZR/Rn4OnDR+k3XVyehq3QB3wJOTT32D+D/ARcAy3Ovn1vzzrwVeDVQr6F9J/Aa4EZ9+4TEWYgykb6h21jsscBrqXA8lk2CLmqfMJcIsjcFaFGweod2HTprXKznu9sPA/6MGbXkrLGX1UT7A17B9K0dN3GN6ZznXsvZekX+UYs9D/je+s3WL57E7rEF8Bdgt9rfi4E3AjdEHr8Q+EzNUwOwFng9cK6+eULiLESsiXRjVyuGI4ETgFcAW4YsxYxVaYl2jQf3DcOvh3YbOnG8rqn97vbPW2M/nDrHxcCTwAua9hCErOZYD4GluNcjee4JDL/G8kvginVPW1ed5O7QAlzaaCf4LvB+YGgM7/VK4IcklchWk+Q0v1XfOCFxFqJZob6pq0JSsekEkhKNzygIrKWpCO9SSzT5uXho16F9xlGc5wBLbMXuYqzBYh/HMAccHgLP+rHXPV1mAVMadb0Mw/lYfgX8ed3m60amUBf4NPCJ2u8fB/57A99vd+BaEjf5rcCBJOvUQkichRizWN/ctR/wKuAEDLs1lfYz980pWYtdNbTb0LzxPPf2e9qPt9gLC8FdZa7msvMNbKVyWs8JT2K4CPglhv9bt/m6qbjd6GDgytoV/QE4DqjWPCmXOF4/DDwEPFj7fyFwh+N1JwPn1H7/DqPubiEkzkJssFAv7trJYp8PHILhUJL0oaURyemiF4GIbTBsPrTr0BPjLNCXWWOPLrXu4/Zj+13gOQ8B8KQ19q8ka7d/wbB03Rbr7BS/xefVJmKPAnuRLAMAbAfcH3H8IPAW4BeO574PvLkm6NuQRHsLIXEWYrzpvKVzM+DgmlAfguE5JFG7hW+L162dtj4tewztNnTbOIvzXhZ7I4aWoDjnz5eItebs48uAhhhbY5es23LKi3GarWsC3AJ8DPhs6rm0OJ9JsiYNyf7nrUmSkbwDaK89fgBwXe79n0GSqMQA76u9jxASZyEmXKyXdLZhOADLIRgOqQ3SW0YFhCU/dx3adWjcE2y03dN2FvC2ZippeRKB1B9bgWEpsBTLYgx/w3DL2q3W2ml8+z5Bst68Dnh6zXp2ifObgB85jj+sNjkB+BzwEcdrLgZeAvyTJBLc6lsjxotWNYEQblbvuXoNyZrllQ3BvrWzxxq7i7FmF2AXYGcMu2DZBcP83FtMVGDUx4GTsMyLyoRg4GfhAAAgAElEQVQ2as0PkAQxLcWwBFgKLFm7zdqHZuDtO7b286KcMMfyN2AFSWT2QZ7XfK8mzrvULOl79K0REmchJkOw91i9Cri+9j9Dx+0dmzcEO/k5IRmw1uyw5vG2e9s+C3yh9lCVxA39KPAYJvXT8iiGxzDcieW+tdutnS3W3Y61nzeM8fijasIMcLvnNTelft9B4iwkzkJMQYZ2G3oceDxtaU8gX8NyGfAohsfXbL9mRHegQSeje9vLBLMDqEfVdwH7k2QGO6n22Drg255jHyQpitFaE2chhBBCeNiV0SKYhzie3y71fOj/AEku7hD31F57hppdyHIWQgg/6TzZC8Zw/J0kQWK/JInIDrGJ4zOF2GAqagIhxAzjCZL0mjC69uzj3cDmwJHAF2tW8E4k+bTLXOKbQCMI8G41uxBCCBHmlprQft3xXNqt/cbcc2eknust+YwDUq/dR00uhBBChPlpTTQfoLh8FxLnVuDvteeGgX0Dn/GF2usGSYLJhBg3tOYsxDTAJoP/TiTbtHYCngZ0p/731H+vgrHQb2AVsBIYWAPVIagMQWU9PNgKf98GrjIzN+3k90nKOm5Lshf5wsjj1pPkzr6ZJIr7V8CzKRa3aCNJYALwM1T8QgghZrQIt1k4zMKHLHzfwl8tPGzBTsT/9bBqEP71KFx/L5x/N5y2YnRr0XTGkCRcscDlZNOyhCznOm9JveYLjudPST2/v3quEELMMIvYwjEWzqgJ8fBECXHs/xGoPgXL7oXLb4fT70ms8unIO1MC+o4mxbmlZj1bkr3Oe6We257E42BJykcKIYSYAYL8TAsfs/APC+smW4wjrOvqE/DUbfCbKwx7T6OmngNcXRPRNSkLd1MSV/TPgMMDxx+aet27a4/NBf6Res9nq0cLIcT0FeStLbzXwqKpLsYlVvXIg/DE9XDWuYatp0HTp63cB4HnbcB7zQfOT1ndquMshBDTUJAXWHibhT9bGJnOouz6Pwzr74T7LjX8V19lSq9TH58S1HXA+2m+It/+wF2p9zkXVfUTQohpJcrbWTjTwqqZJsiu/1Wo3gVrLzL8pK/CdlP0thxLkpykLq7XA28mvAXKkLi2/xdYmzr2y6TrfAsxAWjmJ8T4ifKewIdIiibMmYXXzz1QXWq4+GHDR3qrLJlip7gN8HPg+anH+kmiue9KTp9BkvKPOwAHAs9KvXY5cCrx27KEEEJMoigdbuFiC9XZYClHWNL2bqiea/hLXyUYcDUZtJLsf76SuOIXFniEJHPY1urtQpazEFNflPcAvkFS+1fkGIGRGwwtN8GVVcO7eqvcOMVOca+aJfysmqX8DBJ39cM1K/oe4IKapbxOd1RInIWY2qI8H/g0SbSusuyVsALW/sXQ+pjhe8BHe6ssm6KnWiFZjlijuyYkzkJMH1E2JEkrPkdSyUjEt529Dew1hv61ho8Dfb1VRtQyQkichdgQcTkQ+CbJTzFGBmH4DxXalyXZt97VW+UKtYoQEmchmhXlVhIX9n+i+ufjQhXW/cVQudPQApwFvLe3ypBaRgiJsxAxwrw9SerGg9Ua48+tMHRVhY4qLAFe01vlVrWKEAmyBIRwC/MJwE0S5oljD+h4ZZWBzmR/+LV9Fd6iVhFClrMQLlFuB84EetUaG4fVsOqCCj2rkj9/Cbytt8pKtYyQOAshsLAz8Guy5QHFRmAtLP+1Yf5KQwW4m8TNfZ1aRkichZjdwnwAcDHwNLXG5LAOVpxvmL/CYBKDmn/rrfJ7tYyYjWjNWUiYk6IIf5YwTy5zYMGrLIObJn92Ar/tq3CqWkbMRlrUBGKWC/PrSdY529UaU8JamLuLZfBuw9w1ifHwiuMMa35nuVKtI2YTcmuL2SzMHwC+qO/B1GMYnvxFhc1SeTS/Abynt4pV64hZMlEVYtaJsrFJTd4vSZinJu2w2QlV7k0NUO8Cft5XUR1lIctZiBkpzEAf8Da1xtTnIbjjdxV2TT10CfDK3irDah0hy1kICbOYBLaBXQ+s8mjqoRcBF/RVFCMgJM5CSJjFpPFs2Hxrm8m9fawEWkichZAwi0kep15kWZ1bbJZAC4mzEBJmMZnMgU1fWOUuJNBC4iyEhFlMHbaBZ+5qeVACLSTOQkiYxRTiMMv8Lss6CbSQOAshYRZTZ8DqOcZyn+MpCbSQOAshYRaTxRaw09aWQQm0kDgLIWEWU4gXWPo9GZQk0ELiLISEWUwGXbD17pankEALibMQEmYxdTjI0jLH/7QEWkichZAwi41NK8zfP5vaUwItJM5CSJjFZLMndLaGXyKBFhJnISTMYmPSAvP2tNyPBFpInIWQMIupw76WzojatxJoIXEWQsIsNhZtsNmOxaxhEmghcRZCwiwmk+dYVkW+VAItJM5CSJjFxmABLFwY/3IJtJA4CyFhFhuD3aqsbOLlEmghcRZCwiwmml2aP0QCLSTOQkiYxUTSBvO2slgJtJA4CyFhFlOIPW0wY5gEWkichZAwi43N9rBgjIOaBFpInIWQMIuJoAU6Nh/74RJoIXEWQsIsJoJtqlEJSSTQQuIshIRZbCy2h9Ub+BYSaCFxFkLCLMaTTaG7dcPfRgItJM5CwixhFuM4qLVsZcflrSTQQuIsJMxCjBdbN7/fWQItJM5CSJjFRLIF0YUwJNBC4iyEhFlsDBaO/9gmgRYSZyFhFmJDaIPutvF/Wwm0kDgLCbMQG2g9TwQSaCFxFhJmIcYsznbC3loCLSTOQsIsxFjYxG5QpjAJtJA4CwmzEONNDwxP8EdIoIXEWUiYhWiGLqhuhI+RQAuJs5AwCxFLR9IHNwYSaCFxFhJmIWKYC20b8eMk0ELiLCTMQpTRCm0tG/cjJdBC4iwkzEKUMQkqKYEWEmchYRZiCg5wEmghcRYSZiGmIBJoIXEWEmYhPB10RAItJM5CwizEFMIwoVnCJNBC4iwkzEKMgfVT4Bwk0ELiLCTMQkwxcZZAC4mzkDALUWctrJ1CpyOBFhJnIWEWs56R4YkvfiGBFhJnIWEWogmexEx6QJgEWkichYRZiBRPJN13SiKBFhJnIWEWs5LHgYVT+Pwk0ELiLCTMYtb13yeBBVP8NCXQQuIsJMxi9rAGHpomY5wEWkichYRZzA6Ww4PT6HQl0ELiLCTMYuZzn+HJaXbKEmghcRYSZjGjWbsUVk/D85ZAC4mzkDCLGcvt6w2bTdNzl0ALibOQMIsZyRJg92l8/hJoibOQMEuYxYzjSuBZ0/waJNASZyFhFmJGcfkMEGcJtMRZSJiFmDHcd1aFZcCWM+R6JNASZyFhFmLac9kMsZol0BJnIWEWQuIsgRYSZyFhFmL8qQL/B+w7Q69PAi1xFhJmIaYdfzKwDDhiBl+jBFriLCTMQkwrzu6rsCWw6wy/Tgm0xFnMAGH+roRZzAJWAecDh8+S65VAS5zFNBfmt6s1xCzgPJPk0z5iFl2zBFriLCTMQkxpzq79PHyWXbcEegZi1AQSZiFmAHcBO59V4WnAY7O0Df4IvKK3yrC6gyxnIWEWYirwRQMWOH4Wt4EsaImzkDALMWV4EPhx7feTZnlbSKAlzkLCLMSU4EsG1vZV2Bw4Us0hgZY4CwmzEJPLY8D3ar+fCLSoSSTQEmchYRZicvmqgaHa7yepOSTQMwVFa0uYhZiu3A/sYWCwr8I2wAMa05woiluWs5AwC7HReJeBwdrvr5Ewy4KWOAsJsxCTy0UGfpv6+zVqEgn0TEIzTQmzENON1STu7PsA+irsANytZolCLm5ZzkLCLMSEcEZdmGsoEEwWtMRZSJiFmERuAr6Se0ziLIGeccitLWHOMAIr18HyYVg1CGtWwbpBGFxpGFgNw+uhOpL8X2thWRUes/BoKzz5dFj7TMvIZtAObJb6vyWwO/AsYIHuqBgj/cBzDPyr/kBfhd2BW9U0Y0IubomzmErCbGHNINz3KPQ/buhZDlutMswfBNaPz0c8AiwBbkn9XNpbZcjC1sCeNaF+FrAfsA/y4ohyTjDwm/QDfRU+BXxSTSOBljiLaSfMI7DqKXjifuh8wLDFEwZT3fiXsx64Bris9n9RbzWZC1iYDzyfpA7v4cCzUaYnkeVMA+/LCXOFJBBsezWPBFriLKa8MFdh2RPwyL2Gzvtg++VmSgrdSuAvwB+AX/VWeSp17fOAQ4GXAa8icY2L2cvfgcNNzrHTV+FlZLdTCQm0xFlMLWG2sH453HGDofsew/bV6XXJa4GLgLOBP9Qt6tp1tQJHkwT9vILEyhazhweBg0zyk5w4XwocoyaSQEucxZQT5mF46FYYvsWw47CZEffzceBnwFm9VW7PtU0b8OKaUB8PdKrHzGieAJ5v4A6HMO8K3KYxTAItcRZTRpgtrHwY7lhk2OlxwyYztDmqwPnAf/dWudnRBp01gT6pJtht6kEzin7gSAM3up7sq/B14F1qJgm0xFlMujBbWHEr3HK1Yb8RQ9csap7fAWf0VlnkaZf5JC7vk0jcnAomm94MAi80yVqzS5i7SdzcWuKQQEucxeQJs4U1d8MdVxj2WGtoncVNdSnwvt4qSwNt+XSgF3gL8DT1rmnHGuB4k0T04xHn/wC+o6aSQEucxWQJs30cbrrMsMvA7LKUQ6wDzgQ+3VtldaBd24BXA6cDB6rZpgX9wL+FhLkmzktI9sgLCbTEWWxcYR6ExZcaNn3csI1aysn9wLt6q+VbaSwcAJxGUrlIKQunJvcBLzX4vSI1YT4C+LOaSwItcRYbVZgtPPVXw313GJ6tVoriIqC3t8rDEW2+GYm7uxclrphKXAu8zMCjZS/sq3AucKKaTAItcRYTJc5fAD6Us5Zv+41h60GjQJcmeRw4ubfK/0W2fYUk0vs0kj3U+h5MHhcArzP4lyhSwrwNcC/M6riLyb5XJ/ZWGVFTTDzKZzw5wvzenDBX74Bbzqmwu4R5TGwOXNpX4RN9lXKhNVA18FsDLyQpyPFtYEDNuFEZAc4AXhUjzDV6JcyTyitQIJ4s5xkszCcD/1tv+xF46lLDuvsNW6h1xoVLgNf3VlnW5H2ZD7wJeCewg5pxQrkTeIOBf8Qe0FdhLkmcgb4nk8+ne6t8Ss0gy3kmCfMxwI/rwrwKbjvH0CNhHldeBNzYV2GfJmep/SaJAt+pZiH8SU05IXwXeHYzwlzj1RLmKcMn+yqqKy/LeeYI8/4khR66AR6Gxb+rsLdV00wUK4CX9Fa5egPu2V4kWaheB3SoSTeIR4A3mcSz0TR9Fa4FnqNmnDJUgX/rrXK+mkLiPJ2FeUfgapK1Ue6Buy+tsKNaZsIZJIkwvXwD79+mwFtJAsi2VbM2xbqatfxpw2jlsSaF+WDgKjXllGMN8MLeKleoKcYfubUnXpjnAufVhfmf8KiEeaPRBfyur8LLN3AGu8zA50nWol8NGowiORfY3cC7xyrMNZRDe2rSBpzbV2FLNYUs5+kozo0E/UvhySsrqk08CawHTu2tcs443tdnAqcCpwDbqYkzXAF80ODOhd6k1bwtcA+K0p7K/F/Ngq6qKWQ5TxdhPr4uzEvgUQnzpNEKnN1X4SXjOKu9y8DHgWeQbMn6GTA0y9t5EfByA4ePhzDXeIeEecpzFPCfagZZztNFmLcFbgI2vQ0evqLC1mqVSWcAONRVgnKc7vl8kspYbwSeO0vadA3wS+BbJsn0NW70VWgnqT61qbrulGc9cHhv1V1JTMhynirC3AKcA2z6GCz/m4R5qtANXFzLNDURM91+A2cZeB6wB/BFkijlmch9wH8B2xo4ZbyFucbrJMzThlbgZ32VGVtfXuI8Q/g4cNggrP5DhU20XWpKsQ1wUa0m8IRh4DYDHyZZjz4O+CmU5/+e4qwgcd+/Animgc8beHICP+/d6q7Tiu2B76sZxm0MEeNsNe8DXD8C1d9UmLNMTTJVuRh42cYOYrGwG8ka3VHAkcCCKd5ODwC/rf3/q0m2Rk04fRWORIlgpiun9Fb5iZpB4jzVxPkK4PmXG+xdRu07xfnP3ipfmMS+UgH2S4n1oUx+spNh4EaSmsoXmOT3jU5fhQtgw7bAiUnjMWCX3ior1RQS56kizCcD5yyG4asrqhs8DVgLHDhRAWJj6D9twEE1oT6apA51ywR+5AhJ/eRFJGvG1wK3mCS4Z9Loq7AD8C+07Dad+WpvlferGSTOU2Fg7bbwz37Y5NwK7drwN224BTigt8qaKdinOkhyfe9c+79T6ufWkd/fdcBDJEUj0v+XAjc0URFqY4rzF4EPqmtOa9YBe/dWuV1NMTa0f3D8+Biw1V8qaCf+9GIvktKFH5qCM+eh2uThFodwtwI9tf/dud9bU4L8iJlGXbKvQivwBnXLac8c4BskOQCELOdJs3B2trD0VphzpRxx05EqcKRyBE8JcT4euFAtMWM4obfKb9QMzSMpGZ+R/evDYBapNafz9+DHfRXa1BSTzhvVBDOKr/Yp/kbiPElW83Mq8OIrDa1r1RzTmR2Ad6oZJtVq3oxkT7iYOTwDeJOaQeK80RmG/74fqndrgWAm8BFlOJpUXkeyVilmFu/vq0zorgOJsyhYzc+cCy9cVFE7zhA2AT6qZpg05NKemewInKhmkDhvNFbAmfcbjLKAzShO76uwvZph49JXYV+S7HpiZqKtcRLnjWY1b94DL71e7uyZRhvwWTWDrGYxruzfV+EoNYPEecJ5Er78gKHypJpiJnJyX0VW3Ea0mueSrDeLmc2H1QQS54m2mrvmwUmymmcsBlVE2pgch0pDzgaOqS1fCInzxHAvfOgxwxxZzTOak/oqLFQzbBTk0p49vFlNIHGeMNqh91Y1w0ynQwPJxNNXYUvgRWqJWcOrta1K4jwhXGnYows2v18u7dnAf/Rpm9xEcyLK8T+b2Bx4gZpB4jzuLLCccZdRcYtZwg7AS9UME8rRaoJZx2vVBBLncWczOPZ2Wc2zidPVBBNDzb15hFpi1nGC8thLnMeVyw0vXm/o6ldTzCaO6avwdDXDhLA/MF/NMOuYD7xEzSBxHje2sHzkX2qG2YYBXq5mmBCUlGL2Ite2xHl86KvQugk890G5tGcjr1ATSJzFuPJiRW1LnMeFuZbnzYU5A2qK2chhqlY17pPdduAQtcSspRvYT80gcd5gtofXPSarebbSitbIxpuDgXY1w6zmcDWBxHmDWWg5+iE1w2xGru3xRS5tcZiaQOK8QfRVaFsAOzwsy3k28yJt/5A4i3Hl0L4KGlUlzmOnxXKwMbSsVVPMZrqBI9UM4zLZnQ88Ry0x69kE2EvNIHEeM9vBq59QM4hknVRsOIeDInVFoy8IifPYWABHaAuVAA5UE4wLcmmLOgepCSTOY6bVsq0sZ4FcsbKWxHizq5pA4jwm+ir0DBi6VehCAJv2VdhRzbBB3yejAVmk2ElNIHEeK7usVxuIUeTa3jC2Q/ubxSjz+ipsrmaQODffQJZdrZpBjHKAmmCD2FlNINQnJM4bzGZwwCoFgwmJ83ghN6ZQn5A4bzjzYJ8VagYxyn5KnCArSahPSJwnv4G2VfIRkaIL2FLNoIFYqE9InCeR1dCpVhA5nq4mGDPbqwlEjqepCSTOTbMK5qoVhMR53JivJhA5utUEEuemGZDlLCTOGojFRNKjJpA4N0VfBVOVOAuJswZioQmbxHlK0dVqFJkrCmynJhjTZHcOqOymkDhLnMeh06h0jpDlrEFYTKwRpCaQODdLjxpISJzH7/ukJhAO5vRV5FGRODfHfO1xFg4WqAnGRKuaQLg4qEqHWkHi3AzDKnohHAyqCcbEI2oCUcAyvDf0qyEkzs0woCYQDlapCZqnt8oQ8KRaQuTHWQOqLyRxljgL9YtJ5H41gdBkV+KsQVhoMJE4i6mM0fdJ4twkvVWGAS07C4nz/2/vzoOkLO8Ejn+fnhmGYYABBjlEkEMkyKXEeEVZjHc0mmO3YmKMyeZqTdzsxtSm1lilqc1hmWzWXUWJSUyMuyrJajZu4pkY8Fo1eAaMKCiYCLiiGBjOYd5n/3ibyoiIzEwfb3d/P1VTDGrh8Hv77W+/bz/9vsZZpYpQZJtTMM4ePcvHhHFWhjR6AGScPUpSkbioyTirSPpB4hSMs08mKobljqDXVjkCddffAyDj3EvPOQIZ56J5Bj82o25aYbVTMM7GWT4mKiifsAFY5iS0UyM84RSMs0dJ8jFReb9zBNppOyxyCsbZoyT11Zp84uU7++gRRyAAIp1/DCxxEG/mheiNszxq9shZFdEfXvtE4mptj5x7IZ/QAax1Eip43BH02RNAp2PQIK8ZYJz76PeOQAW/cQR9fsG7DXjKSWggPO8UjHNf3OcIBHTh4pVi8X1n0QK3OAXj3Bf3OgIBi/OJ950tEs9A1Ht8Il2NcL2TMM598TB4cXbxa0dQNHe6T9W3dlh/VPSTD8a5Dwp3p3KFqTzaK94+1eE861ubFx8xzkXiqe36tgV40DEU1S8cQf0a5PvNxtk4qwgeKKwyVvHcitfZrkuNka726PvNxrlIT87AdsdQtzwFW2T5hLWk6zlUZ8bAugP8jLNxLtITSQdwh5MwzioqT23XodGR/3IKxrmYbnQEdel14FHHUBI/w1PbdaUlsm0KfNNJGOdiuhVc+l+HFua9/m9J5BNWAHc5ifoxHta0eA9n41zkJ5LNeBquHnlKu7SudAT1Y2zk+07BOJeCp7brz+2OoKRuA15wDLVveGT7BLjKSRjnUrgTeM0x1I0HCqdeVSKFtwyudhK1b1JkSUjXcMg4F/2JpBNcaVhHfuQIyuKHpBd6UY1qjWydBt9xEsa5lK7AFab1YDPwU8dQlhe9r+FbRjXtkMiWJg9sjHOJn0iW4PuQ9eDmfMJGx1A2lwE7HEPtGZB+fOrSAJ1OwziX44lEtc1T2uV90bsM+IGTqD2zI0mj6wqMc5meSBbhpQdr2QvAQsdQdpfgZR1rSuGiI1cEPAtlnD16Vt/9JJ+4rqACL3pfxkVDNeWoSK4R/tVJGOdy+m/gWcdQcyLwY8dQMd8B1jqG6jc6svEAuC64PY1zmV/lJ8C3nUTNWZhPWOkYKrZfbSI9va1qjktk+7GRVjwTYpwr5EfA7x1DzW1TVdYPgMWOoXodFgmD4JoAy5yGca7Eq/wu4HwnUTM2Ajc7hkzsV2fjhUmqUltkw4x0X7rIafROcATFMT/HTcCHnUTV+2E+4dNZ/yEjDAPG7eZrv8J+3VF4obFxl+//BDwHLA+wrgr2q/OBf/dhWUVRiXR+KNLUDucFPz7Va42OoGi+DJwGtDqKqpapO+ZEGADMBg4D3gXMLER4YBH+7PXA8sLXMuAB4P4AWzM0giuB04HjfWhWh6MjW9phKfA9p+GRc1Ze5V8IfMNJVK1H8gmHVzDEAZjVLcSHAdOAhjL+GFuBB0lvk/kbYHGArgrvV/uRrusY4kM02yZGVp8Q2ReYE+A+J2KcsxLnZtJXjJOcRlU6K59wQ5mD3AwcB5wBvA8YnbGZ/BlYtDPWIX18V2Lf+giUd9uoZwZF1p4ZGZWDGwKc5USMc9YCfSJwh7OtOquB8YW7jpU6yMOAUwtBPokinKIuo7XAPd1ivaqM+9a3Sd8+UsY0RDZ8JDK4NX2rZHpI9yf1gau1iyyfcBdeDacaXV3KMEcIEU6O8D/Ay8BPgA9VWZgBRgEfJb3F48oIiyN8PsLQMvy//xFX0mdPZNt7I82FxTafNsweOWf56LmJ9H27Q51GVdgGjM0nvFKCKLcBnwTOAybX+Ax/QfoZ8bsCJCXat1pIr3l+mA/bTIR5+0mR9eNhJHB1SB/nMs6ZDvQk4HFgkNPIvB/nEz5Z5ChPJ/38+1nU3wr+l4DrgR+FElzedn6OkcBDwHgfuhXVeWzCcwfCQcBTwOEZW+lvnPWWTyIuYqkOh+QTnihSlCcD3yI9Za30DNKPgQUBNhRx3zoIuJ/ynE7Xm3XNSVgxFQ4ENgPvDPCMYzHO1RToa6G4R2UqqvvyCXOKEOV9gIuBzwJNjvVNNgO3kJ72/m2g73f8mp9jJnAX6SlVlU/y7oRV02FC4fefCnCtYykuF4SV3heApx1DZv1bH6M8IKaXKFwBfN4wv6UBwMdIV3kvjXBu7OPp/nzCU8AxwIuOt0wim45LWNktzDcYZo+cq/noeRzwv8C+TiNTVgGTCtdx7k2YP0B6BSu3a++8Trrq+8pA7+8CVti/7iY9xarShXnN+yObRsIBhX9yH3Ci7zN75Fy18gkvAicXnoyUHfN6E+YIgyNcR3qa1jD33hDgAmBFhJ9HmNuH/esY4ElHWhoNkaUfjXR0C/MS4HTD7JFzrRxBzwHuBPo7jYrbDOyXT1jfwzDPJV3gtL8jLIkngSuA/+zpE//8HG2kL5rOcIzFMyjy6N9EDmz6yydPXgSOCumqfBnnmgn0B4Gfedai4r6fT/hsD6LcH/gm8PfuN2WxjvQmJPN6GoH5Ob5MumLeG/v0zdaZkceOjBzV7Z+9ChztymzjXKuBzuOt1CptVmFB0d6EeSzplb1mObay20F6VbB5PbmRwvwcRwML8G2HXmmI/OH9kYbhb3wffzNwXEg/Yy7jXLOBvhi4xElUxP35hGP2MsyzgV+SvRtS1KOngHnAf4Q0FG+3j40gvc7AcY5uryWjI7efGpnb8MbV9J3ABwL8yhGVh6dWKySf8DW8vWSlXLmXYT4duNcwZ8ZM0nsEvxThu/Evi5Peah/7P+AE4HPQs7UFdRmDyDMnJCw6PXLqbsJ8pmH2yLnejqC/DnzVSZTNGmD/t7vJRYQvAt/1BWymRdIFlvOA2/Z0Pe/5OfYBvgN83LG9aYrrZsITR0TmBOi3y7/dGeZbHJRxNtAqpa/lkz2/nRDhX4AvOaqq8jzpOo5rA7y2h31tTuG/O8iRsX2/yEPHR2Y1pzdowTAbZxnoSugsHDWv2UOYvwFc6Kiq1hbgRuCaAA+/xb7WBHwG+Aowrg5ntGNo5OETIuOHwpg97F3XVRIAAAn4SURBVCuG2TjLQJfFgnzCmXsI81eASx1TzXiBdMX2TWE3FygpRPps4J94m/eva0THyMj9x0bGtsG0t3kRa5iNswx02czJJ7v/OE6Ec4GrHFHN+kO3UC/bZZ9rAM4sRHparf3Fc5FXp8Dzh0fe0fz2t7A1zMZZBrqsnsonu/+cckzvuXy9+0PdeKJbqFfusu8dCZwDfJj08qLVKbK1HZ45JNI+Acbu5apGw2ycZaDL7nP5hGt2E+Y5pHdK8mpS9elh4CbgpwFWd9v/+pN+lO4c4CSgoQr+Ll2tkSUzIslBMKOpZ49pw2ycZaDL7nVgTD5544UrYnof4Mfxc8xKP4b1CLCw8PVAgI7CfthOeiGTE4DjgfFZ+aGbIi+PglcnRQbuD2P79+453TAbZxnoirg8n/APu4Q5R3qbwfc4Hu3GDuBRYFEh1osDvFLYJw8ohPqvSC+MMplynHmJbGuBl9thx/hI2zhoH9T3P9UwG2cZ6Ip5Vz5h8S5x/mfgIkejHngFWNrtawnw9PdydADvAKYDMwrfjyh87QMM3tv85iIbGqGjGba1Qtcw6BoR6TcChg+BwUV+wjbMxlkGumKW5xMm7xLmk4HbfPyrSLaR3q1p3W6+ku3QsgHaNsNAoF8uPcpubIDBORjZCKNaYEgLhDI+IA1zxrkIpkrkEy6any65NNA9s2CXMA8lveevYVaxNJPe/Wq3d8DqBwzP1s9rmKuA1w2uskDjzTJ66qZdfn8p6elGqR4Z5irh0UMV8hT3XluaT5je7aj5COBBH/cyzPLIWR5BV86CbmFuIL3hgWGWYZZxloGuoO6ntM8HDnYkMsyqBh5FVDlPcb+lx/IJ7ywcNe8DrODtryssGWZ55CyPoEuo+yrtCwyzDLOMswx0ZcWdcS58dOo8RyLDLOMsA11ZD+UTVhW+/6JHzTLMMs4y0JV3U+GoeRDwd45DhlnGWQa6siLws8L355Ge1pYMs6qKq7VrVB2v4l6ST5hRuOvUKmA/Hw0yzPLIWR5BV9bCwq/vMcwyzDLOMtDZsKjw6zk+AmSYZZxloCsvAosKC8E+6NaXYZZxloGuvKfzCa8Afw0McMvLMMs4y0BX3s5T2h93i8swyzjLQGfD/RHagGPc2jLMMs4y0NmwBDiW9PaQkmGWcZaBrrAdwDLgBLewDLOMswx0NizPJ2w3zjLMMs4y0NmxNMI4YLJbVoZZxlkGOiNxBo5zi8owyzjLQGcrzu90a8owyzjLQGfHCmC6W1KGWcZZBjo71hlnGWYZZxnoDDkloRFodwvKMMs4y0Bnw5ZxMMktJ8Ms4ywDnR2vAtPcajLMMs4y0NmxDtjPLSbDLOMsA52tOO/j1pJhlnGWgc6ODmCEW0qGWcZZBjo7moyzDLOMswx09uLsaW0ZZhlnGegM6WecZZhlnGWgsxXoJqDZLSPDLOMsA52dQDcB0a0iwyzjLAOdnUAbZxlmGWcpY4Ee4JaQYVYtaXAE6qtfRu45LdAEzKnQj9D/0EijLzZlmGWcpewEut+hkcQ4yzDLOEsZCvTsSEdwxbYMs2qERxoqqkq9B90FG5y+DLOMs5ShQG+DzU5ehlnGWcpQoLfADqcuwyzjLGUo0JsgOHEZZtUKF4SppMq1SGxkZMNIGObEZZhlnKWMBHogbN0fBjltGWYZZyk7gc4dlN6dSjLMMs5SFgK9LdBvdqQL11HIMMs4S9kIdARmRV5qgDanLMMs4yxlJNATIi+1wj5OWIZZxlnKSKCHRTaOgKFOV4ZZxlnKSKADtEyGRicrwyzjLGUk0JsCjYdEdgQXhckwyzhL2Qh0AkyJrGz21LYMs4yzlJ1At0XWjnBRmAyzjLOUnUB3QtMU6O80ZZhlnKWMBHpzoP/syKbg1cJkmGWcpWwEOgITI0+2wBgnKcMs4yxlJNA7YN0EGOUUZZhlnKWMBHo9jJgNrwdocYoyzDLOUgYCHQNhdGTJYE9tyzDLOEvZCXQH5KZ4f2cZZhlnKTuB3hgYNCuypsFAyzDLOEvZCXT/yLMjYV8nJ8Ms4yxlJNAvw9CDYXPwoiQyzDLOUjYCnQSaRkUWDoYDnJphNswyzlJGAr0atsyEIXgrScNsmGWcpWwEujMwckJk0QCY6MQMs2ScpYwEejU0TIdWH++GWTLOUkYCvTUwZHTk3sEwwWkZZsk4SxkJ9EoYfDBsCTDAaRlmyThLGQh0V2BAc+S+ka7cNsyScZayE+g/wZiD4fkcDHdShlkyzlIWAh1o2giPTvDo2TBLxlnKTqBfC0ycFPlVCxzolAyzZJylbAQ6LIMhB8PaAMOckmGWjLOUgUAngda1sGIKjHAfMMyScZYyEuiNgTFDIguHeeUwwywZZyk7gV4J+0+DJY0w0gkZZsk4S1kIdCD3LCQzYH2ANidkmCXjLFUu0AGYC7AjMOiPsHQqDMb7PmfdtkKYf+4oZJyl2gv0wtMCrwCnAGFzYOyf4dGJsC+Qc0KZtAF4X4DbHYWMs1S7gf7daYGngTOAxtcC44g8tm8aaGXLWuD4AA85CtWL4AhUz+bnmAv8gvS0NnMTfj8FZjiZzFgOnBjgBUch4yzVV6BnkZ4uHQ0wJ+HxqXCIk6m4xcB7A7ziKFRvfH9NdS+f8CRwFPAswL05DlnqKdRKuxs41jDLOEv1HeiVwKHAjQD35zjiUXgKiE6nrBLg68ApAToch+qVp7WlXczP8bfAFcCAaZE1746MCC6eLIfVwMcC/NZRyDhL2l2g3wEsAGbuG9l0SqSzEYY4mZK5DTgnwDpHIXlaW9qtfMIzwOHAvNWB1hsDbRvgT06m6LYDFwCnGWbJI2epJ0fRZwDzcjDmPQkvToJxTqUolgCfDOmqbEnGWepxoFuBi4AvHRhJ5kRo8HKfvfU6cDFwVYAdjkMyzlJfI30AcPkAOHVuwutjfR+6JxLgWuBCPyIlGWepFJE+Fbh8fGTi3MjmZhjoVPboYeALnsKWjLNU6kD3A85vilxwRKRtKrQE96ldPUf6ueXrg58Zl4yzVOZIn90e+ersyOgJ0GykeQS4DPh5SE9nSzLOUkUiHYDTh0cuOTgydSI0hfr7uOLtwGUBFvqIkCRlLdRH3xy44znYmkBXhFjDX5siXBe9m5fkkbNUJZFuGx75xITIuRNg3FBoqZG/WidwJ3ADcGuATW5tSVI1hnrk3YFv/QFe3ALbqvAIuSvCPRE+E2GYW1TyyFmqKdcFxk+Fc4dEThoGk4ZBa0YXkS0H7gUWAXcHWOPWk4yzVBd+HZg8PPKpQXBSO4wfDG0ViHUEnu4W43uNsWScJRX8LjCwMTKnHxzZChNbYVQLjGqG0Y0wtI9//JrCEfFzha+d3y/3vWPJOEvqhVXQvBFGNEL7eOhKYHAnDEtgSIChbbAF6AA2Fn7t/rXeAEvZ9//F//8RbPMaRAAAAABJRU5ErkJggg==;" vertex="1" parent="1">
          <mxGeometry x="140" y="78" width="87.51" height="92" as="geometry" />
        </mxCell>
        <mxCell id="qtwSQsPml5bytBeIYUfw-7" value="" style="shape=image;verticalLabelPosition=bottom;labelBackgroundColor=#ffffff;verticalAlign=top;aspect=fixed;imageAspect=0;image=data:image/png,iVBORw0KGgoAAAANSUhEUgAAALwAAAEGCAYAAADfb/8MAAAAAXNSR0IArs4c6QAAAHhlWElmTU0AKgAAAAgABAEaAAUAAAABAAAAPgEbAAUAAAABAAAARgEoAAMAAAABAAIAAIdpAAQAAAABAAAATgAAAAAAAACQAAAAAQAAAJAAAAABAAOgAQADAAAAAQABAACgAgAEAAAAAQAAALygAwAEAAAAAQAAAQYAAAAAwxPplwAAAAlwSFlzAAAWJQAAFiUBSVIk8AAAQABJREFUeAHt3fmvbE9V///jPI84j++3AiKoIMgkozgk4viDv5n4r/mzCSaamECIiSjIoMgoKI5vnHBWnOfv9z42PGFRn+5zzz33ntPd93Qlu6tq1apVVWu99tq1a9fe/Wn/371wcQ5nDdwRDXz6HRnneZhnDWwaOAP+DIQ7pYEz4O+Uuc+DPQP+jIE7pYEz4O+Uuc+DPQP+jIE7pYEz4O+Uuc+DPQP+jIE7pYEz4O+Uuc+DPQP+jIE7pYEz4O+Uuc+DPQP+jIE7pYEz4O+Uuc+DPQP+jIE7pYEz4O+Uuc+DPQP+jIE7pYFrA37feyP76HdKq+fBHq0GrgV4oO6YI4sW6Gc+2uRf05OnuvGs+ejn+DQ0MG279vg2bfuZa+M3lf+0T/u0S0WnEPHkjX5p5XPh0Wlg2jEbFtdZdl5pld1UfC3A62idnQOLfr/OzjqTd6WnDHKF4lnnnD4+DbBbttO7iZXo2bKy2xrFtQA/O7cOYJaVbnDlxdUT/9///d/F3/3d3138/d///cU//MM/XPzTP/3TxX/9139d/M///M8n+HbJmPLO6ePRQLb9jM/4jIvP/MzPvPjiL/7iiy/5ki+5+PIv//It/bmf+7kXn/VZn/X/dFi9m7bzIwH8VTuZIvBLO4D6v//7vy+eeuqpi9/+7d+++MAHPnDxh3/4hxvo//3f//0TfGknGeXP8fFpgH0dn/3Zn33xeZ/3eRff8i3fcvHMZz7z4ru+67sunvGMZ1x8xVd8xcXnfM7nfMK2Ew9GI39T4aEBf53OAe1//Md/XPzbv/3bxe/93u9dfPCDH7z4/d///Ys/+IM/uPjzP//zi7/6q7+6AHZeXgjkxTeljLPcR6MBmHDw8ED/t3/7txd/+qd/ujm1pz/96Rff/u3ffvHEE09cfOVXfuXFF3zBF2xXgevg6Dq9/bR7ILr2d2lm1dnh6NFmXtph6vI3f/M3F7/wC79w8XM/93MXf/3Xf71Na5SZ4hRfZ1DnOsehgez/6Z/+6dsU5ou+6Isuvvmbv/niVa961cVLXvKSi+c973kXX/u1X3thioPnNsJDe3idbGDSgHpZ4Lk/+tGPXrz73e+++PVf//WLd77znRd/9md/tnl7UxtzPvM7hzQvcVvKuKzf57Kra4DDMlUV/+///u82ZWXbf/7nf948/Tve8Y7tCq/sOc95zsU3fuM3bp6enSeWrt7i1TmvDfiAPTsYbW0eHZ/YNOYv/uIvLt7ylrdc/OzP/uzm6f/zP/9zA3WXQPO7z//8z98OacA/h9PRAHCzqSmpg82borqS/+M//uNmd7Z1fOmXfukWm/7cdHikSJrgnx1Hd8YbvHn6m970pov3vOc9F//6r/+6eQBntrv4L/uyL7v4uq/7uu0y99Vf/dXbHA8N+PGcPf3U6vGmrbKZsvLowP3Hf/zHm2dH+5d/+ZfN85vOurqbzrA1sLP1TTu3hwL8PoCvpgjwFGEF5ld/9Vcvfud3fmc78/GavjztaU/b5nfPfvazL571rGdtNzUudZThZKCI27jkrX0/5x9cA8Bs4cFSM4/+rne9awP2U/dW4kxjODpL0O973/u2qcx3fud3bvY3x3eVvyquHrxnFxfXBvxVOtUUB69BfvjDH74waEpw9iu3bGWg3/Ed33Hxohe96OLbvu3bLp588sntMoeuPKBfpc3rKOFc59Fq4Au/8As3m5mqcFjs6Mr9m7/5m9vS85/8yZ98Ytn5L//yLzfgc2qWKzk/oL+pcG3AP2iHArzBWqZqjZ1y3KkD/Mtf/vKLb/qmb9ry3ay68RHOYH9QjR+On5NydNPqgdNXfdVXbTevcOBKLzbF5fw8f/n6r//6i+c+97kX8HDUgO+GNPWu+egGyLtbZ3cTY04v8AAGairzrd/6rZs3mJe1gF6cvHN83BoIB2zJw3Nqrt7m9Bwe0Futc6U3zYULN7s3HW7Nw3vQ5Gw2WHfw5nKCy5ilKdMY4G/6QmHCGeibGk72h/14e7E1ePP63/3d391uYjlBV3pgN+/nBLP7TQ34oVf7V0DOvHR5ADe4CXZl7sw9ehYHdoOt3pRxU0o4y330Gshu2ZGnN083tWHrnrDCRcuWOcGbBP2tefgeRsyzmDIowZkvXkPKWunn/OlpgDMzPzefdzML8E4CuAgbgH6TYKe1WwP8LhMBtJ103/AN37ApoMGegb5LW6dHy556zqamNubzDs9WAF6Iryv8Tdr/YIA3KIcHD7y7wRv4HGyKmLRNQ+efk9FANmVDS47s7fCgCcCzsQGVrs5NDPIggG9glADoux4p44nPwM+gvwnz35zMbDftBuAeIDrYfZbpyWrzm+jdQQC/byCrAtb8vnpn+mloYNpzX/qmR3JwwDur3Z07+x2FqZBo5/j0NDDtmNcXu1EVK1+PmxzlJxF2k63skZ0CAN2g5aPtqXImn5AGJth1e+Zn+jZtfhDAT3BLN59r4MWUJD3zaOdw/BqYNp69RZ9H9r0tGx9kStPgGmwKSUmX5Ss7x6ejAXZmW2Gf7W9rNAfx8A28wct31ldWvJ4U6OdwOhqYNi69z6aV3+ToDuLhG1Ae3Q1MgJ8xPvlzOE0NZLtio1jBPstm+qZGfDDAG1wDpITSxQ24fHH0c3waGrjMbrNspm9yZAcDvEEF9JYj5yUtBRTHe5PKOMu+eQ2wZ4fWsrm44yZ7cZA5fCBuYFMBKSFFxBN95s/p09JAdl7tf5u2PQjgd4HZoFNEipnmjDbr5hFW2qx3CunZ/+v0d5ceVjlX4Vnr3FS+8RZrJ9vfVJvJPQjgazwQlxfvos1y6YxXuvKpwGjHFM9+r/162L6v9Wd+ptd2bztfX4rX9m8a+Aedw6+DvUqeQijL0clxmZLiu4rsm+SpH/V9tjXHhF5+5ZFXv9C4i2d5fMpmeXXvanxygF8NlTEz8CyPVhzv5LmNdO0Xr21OuhdkvNv5kY985BOvvfX+bztL7Sf3aqQXKnzIqCfV5JI15a1t3fX8yQE+Y07PlZEnLcPGX/5QoK/94vpR39GtVnkN0jdb3vCGN2zf7+kNfxvsgNsHSH2M9JWvfOWFD5PO94BX2fLk11bldzk+OcBnrIy4Alr5Lhp6daRvM2h39ql+7KIBfZ5c2mcJfe3BS/DoXpHzBS/vEPjMheAjVt4gSi7a2ibaORz4Fb/rGGAaFWACTWv5ZEbDO+nXae9R1Zn9ro+zn5V7DQ6wfaMHuF/3utd9YmrjBXhv/fvEOH4nAa8v3dSGbPlkP6r+Py5yTtbDZwCGDdS7jDxpgaq6txXXh8vax6PcWIDXl7oA33fVTXN8Q9/nLHh1Ux6g96qc+bw5vtfnvB/shDmH/Ro4ecCvILIvB2jQAxqaEH1VR3zoq7x4J0+0q8aBOf5k6Y90e4mUa98ByF6Fe8UrXrFNV4C6jxf5rAVvX331XA3kTW0KVx3Lyrf2N3mPQ3xygA8sASMjoO8y1C5adR4k1l5tP0g9vCugkpW8dSzqAC9P7xN0vLoPWKH5iJHvMfL65vL+OcVL8Ly7KQ5Pz8vz/lcJa9+uUueUeU4K8ACyAjjwTC+5GmQXoCbPVY1+Vb4p+7J0gAfkNShDt/zoBtUqDSBbsgRssU9PB/LGiN9KzlWmNo96POsYjjF/UoC/zEAZPCUHpsvqxHuoePZNfx2TJm0eb5ri0+HA7VuMvLhPTfP684Ok3cB+93d/91anLwQY3yo3/Rxq7Idq96QAvxoupWXMYt6eQXlItPLxi6fBZ3rylE5u+YeJtbVLHnpXKeX6nucHZB8jBfT6Cuzm8gBv5cZHSs3zfa/RV72evPetTl5+ypn91kaydvVn8j5O6ZMDfMpfjTWNJt1hruvj/B3yQvVXeeVnPGVP+oOma7O+qY82gY4GpD4w62vKvLQ8T+/Jqs8SmsoAOEB/6EMf2r7Cy/v36WnTGieJT5CTkUzxrrHow6TP9Fb5Mfo5ScAz0GqkaZNpMB7QTZ5lPd8h5xl5QvULMx3tUcb6ow3AFoC3PqKZn6MBt3xpnyAU+koXz+0mFg+Akwn86svn6Z0Y5DshvuZrvmYDfzI2gTt+yKpPO4ofG9LBAU/RDuGqCo+veFpjGg4wgIjH8zQSv88ye3oJIIVZB232p3S8DxPXzq5+k4uOBzhf+tKXbiemdPxieTel/iYGr5OXN3di9919a/fKjB3NHwL7QnNy1jHso698j0P+4ICnxIAwFYom7DPGLnp1phze0tdq+0yzPNB7eGOlQ53aJ3Pmydklc8q/Trq+164pi7QTVLCkyFt3JapfYiC2DNkqDB5r8qZsxmWtvhi/Mje9Tvg2m9Xudfp+6nVuHfCM4BAYOOVHu6pC1SvMutFrB0AY3F/pfP/3f/+2Xq1dc1+enmdUp3rF1a+PtXWduP4luzhZAT2+4spXfieIG1jTlRe84AXb1cpUzZjco5BnXP5eSF0nvDo8vSlRYW0nujr7yuI51fjWAb9LUSn3USuaXB7dJd80oK8Um/f6KP9TH9+UBSD1of7JO/TJ8TAh2ckpjp7s2tNfYHayAuoa8CnrO+u8uisWuW5mLV2ayjgJeHh8pkJ9ptq9gPy+fqztPU75Wwc8JadoxsygeVJ5Bg0M8RbHX/kuY8SbnGSKbal1af++7/u+bQnPDV+AnzKnjF1tPAxtn2zt64t+mnPrJ2ALs079xKccr6uYqRCg+y9cJ7OxWabk+cl1IpkCWQFyX5NM8pO5puUfp3DrgJ/KS8lT8ZXvolV21ZgMbXQAiD0njgKeyRd9PQGjXyduLPpRe+Tozxq0K9TnypMx83hcwczPXbF4elcvdB7fjbmpjfk9uTw8fvN/PE4oUyPpuxIOCnhKXgGQ8qMDRbTifcZRfhnPCprk7KoX7TJ51X+QOHnF6tav4lmWbHpQrkw8eYFYuRdDgJ9ntxTraBnWvpv3v//9m4d3JcDjX/VMd2ZItnZ29WPynmL64IBPaVPB05iVi9F3GWEf/6z7oOld7TyojPjJqo8zjh5ttjnTu+Sg4YlPzMvbRPb85z9/W6l573vfuwHbNIe3dwKYAjkpTG94ePWaOnXFSWbtPk7xQQCfQuflO6UyviMesXy8q1Hir3715JUJ0Yo34sd/Zv1Zvtadda6TJru2jEW+saDLz/Z3tVF9Zbv4yUO3Ru/GFKhNcaxGmeL01NkDODetrd7Yp+MeYJfMXf04ZdpBAL9PYSvIGGClqYs+w+Sb9IdJ35RMfSK7435gn+NXR4hWjJY8aStSAG06Y+ryrne9a7txNcfn7f/sz/7sEy+PKHeieDfWKlYnTW2R9ziFgwA+Q2UkMVqeL/pU9C6acvQZb5lr/uhD8h6VzLUr5JtzF/aNKx3hKz15o9Xn+i12UwrwL37xi7fVGDIsVVqhsWzpwRRdA7ujl014eTexXXmSqf7jEg4CeMpjqI6UuRo0Y1YuP8OjMMg+GbW1r3z240HTq+w1T552J31fP9Anr7p5aXN1wPZwymqNKc4f/dEfbas5vP1T95YugdwJYr0e2K1guQ94XMPBAL9LodN4DCVMQweAWXeWT/qu9Fq/usVrnfj3la/8+/JTjrQjmTM/6WTFs0+uckcyJh86INtSAfDADtSmNMAP8G5i1XVDix8v0JvaPK7hIICnXIGyC9HkpXmpyt1s2frqUtzTw06I6hdPOdXfRYtffL/yyfswae3ok0N65mc/ou9rq3G56fREts1xpkqVqUuHpjbKPXCzNIkH+D/84Q9v24pNdWxBsKJjudKDKrGbXifM4xZuHfAZOqNOA03lxofGKzHKBz7wgW2bby87VLcY76y30pUXlDlp4hcL6I7y8V833tWHaLWx5tF3ndDx6Qsee+O93eTJqSXJeW8QT1sQxOoAO31yIg7pPLw0D2/Vxk3sGfDXtfqeetPgpVdWRualXG49MWRUS2xWGlyaZ70AsYu2ypXHP3nj2Uev/FHH+9pb6fIF/TZFAUwA3cWLx0FnwIv3mc985ubZyVHftAbgOZE//uM/vvj1X//17SSw9eJlL3vZdpWYJ1J92KU3Mtd+oB1TuHUPf7/BT4VKOwDeUhvQW1EAdHu+e/khmfGvxkhmfI9LTC+eltJDVwRjTw/GGeB5dlMbeSszdGh9npfvhXDTGeDnTNzwunKY2pjiqJfs9Dfz0qcQbh3w0xgUlCJT1gRnSnQ55qGeeOKJix/8wR/cngzis0mKcaaxM4Ly6if7YeNHLe8q/UkfLRXKR5v1V3p9jVeep7YCQ4/dwAK0+Xt7b8zp6fOtb33r5mhe9KIXbcBnA/WTW1wfZjvRjjG+dcBTQsbJiKtilKfQDMVDeZGZp6f4Xlbmfawv46tO8slFyxhrOw+aT/6D1nsY/vpOV9oHxmimMrx2T0mj42vcaPWb3vDS5ZRlOkOuhYHm9u95z3u2NF7e3j1CWxGSN8c125n0Y0sfBPD3U0IKTYnynRzSXkz+iZ/4ie2rXB/96Ec3Y6Fn8ORPOdEeJk7ew8h40LpzTDOtL63StJw4+zeverWpvqO6z372s7fpDJC7WeVE3Lia4rhf4khcEZR/7/d+78WznvWsbS8OW2SPZNe2dqXLV34s8dEBnqKmYTMQel6Ogd2ArUqdBl3LKHzKfVAD7JL3oDKuy9+4pi5mf+a40MtPntk2Ok9vOgPcpjfm7kDu4PFNbQDdtgQ8Ti5e3qGusE/+bOvY0gcBPEWlrIyZAqMXz/J4xKtRZ766+GbYR588x5beNa45jsrrd/l4xNHwRJdG92T1ec973ubZAd3GMkDn3d3cmub8zu/8zvZxV9NHG9N8TcGcfnr62iB/tqGdYwoHAfxUQAaZSpppvFOZs27pyuXXuvE8TrHx7htnZfvK01E6axXGiowpDRCLPeBzAngii9eXzqwKmdMDuxOFp59TG21e1u4x2OAggE/ZKad4paegystntElXd+Yn7ymnjSm9FM/xzDHvKk9Xa1n13MgC7RP3Vm7clAK1KQyAAzwv7wTweW5p5WTx9MBf/dqZfTvG9EEAnyIoPcWjUeTMo8lPeoZb+apfHfHjEtLBOp5dOog2dabepK9yAN7NKY/tywamM24+8/CmOJYtyXBSALllYnkrOKY609Ov8o8pf1DAUwSlOTKQ9BomLd74Jy+ag/Ljm+VTzqQfc9p4hLXva37ypIet4lJ3V710ZqXGChgQ9/T1D//wD7dnHby+aY45Pk/fdEYdJ4A4vdfuMcYHB/w0aOlVUZfRM2Bxddc6a3l8xx7rt7Gs49nV78lznfGqw4Pz3jy9qYw5PrqbV090fSDKFgSrNubypjhP3JsOeR4gfezhoICfBqKoXUaKp3gqNP41jre48ll3Vzp+ZVets0vOTdBaV8+Lzr7O/uKLp37Eu45JXlnlYnV5bGvupjk8N+9umgPwPL/9N57O4ufpAd0JgHf2pfaPKT444FP2/ZSScVajXVYPrzVml2KeycFghbXtmX+QdpJ3U7F+1be1X+Urrw/R5SuLJs+T21pstcXaOm8txAPs0s3p1XEy0aU5vfV6N7JuXNFdFfwvFeAnYxN4ZD8HAfyqEMqMlnHSU3T5ma48fmUzXTmAuwT7RIXtxfaEC/HGt+aji6fsSb+NdP1q7OXrV30DOmkeevLgKz9lAOcLX/jCbZ+MDXm8c7LwAzLP7ZPbpjX0yMMDu9gNLc/fSo4tH2Q4UfThWMNBAJ8BdiklpSvLQLv4ok2e6iZfnhHchJljulQDPO/E88c325q02jiGuHHqX31EC+AB/rK+Thnm5x4g+eamm9A1xOtk8D1K2xBs42ha0z56qzc8/a/+6q9uVwl79LtarDKPIX8QwDdwSu2IJk7Zk1Z6GjvajNVlfHzAwEu5dAM64/FQPD7jJUv9+oHmqA+TZ7Zz2+m8Zv2rzxPw9am+l288jbGTg/cGYICfPOrVDu8OwLYhO0m8iMNh2F5Mlx5MeU/WFcCJ4YO1rg5rH+rLoeODAv46g0+RDLKGyqLjAQg3VjzZD/zAD2ygR7O1mOFcljOuesmd4IiW3NuMG1N9ENc3/QDeQnQ88UcTT3p1dsV4C/TjpLB3nqNwwwrk6Q2fK6j3Zp+89zc7rqLHHE4O8JcpMzBMHuD2YIT3seEM+M07GUYZLzVBU13lDJ/3i37bceALwNpH03e02ffoaJMfr4AW3c0l7+0KWBsb08d/0PCa+tEXz25NnpNozzwdmTLatu1rZwBfW1PWMaVPDvAZbBopGsVKK9tVzkBP3Fsz/vEf//GLl7zkJZshLbfN+tM4GX3Sbju9qw+7xqZfV6Ubr5UZ8203rxyC0MlDjrRpi3//tnnst37rt7alSCtd6tOlG1Uvh9s63Lfnj3n+bownB3idXsNVQIGH9+HlHfcL0/gTSPer96jL15Oxvqz02W48aPjWfLzR8Ux50s3P3ZC+853v3MBuGshBALVlTc6D47Da411ZJ1FXxto4tvjkAZ+hMh4FZ8Bo4mi7DBBfZXhXWmW3Hc9+rGOobNLXKQUe5WuYdZWVl8b/kY98ZPs836/8yq9sL3Z7h9j0DqCt3QP493zP91y8/OUv39KmR8cOdmM7ecAbhMBIq9HQo4mn4UtXjndXuF/5rjo3RdOXrjwT2Mayjv+yPlw2pl4G4dl9weA3fuM3tp2T2tWmdXbLmc997nO3G1UrPa6Y5vKzT5e1f8iykwP8LmMFXoqsvHgCYRdNnckzZUgfQ6h/c5yTZlxzbPU5WnnxpK3y5M3RvRgP7K9//es3T59nt6xrtcveeTepth+Yxuy78Z3tHkv65ACf4qaxGLF8cXziXbTV8HgmbdY/hvQ6hsZ8lX7He9k4zNktP/p7HPtkvNr3u7/7u9s0Js/uBhfYvSEF7Dx9U5lkX6U/8R4iPknAUyqvwxD7LqOBF69jV4hnV9mx0RqDPtfv4l1la//xpovqTZonpm5K3/KWt1y86U1v2tbc07F9MpYe/cOILxL72pkVnv4kLnnJ13a0tR+Hzp8c4FNqCpWXdkivYR995Zv5ZE7aIdNzrLv6odwcOz486WLS1rp4PCG1rv77v//723ydZ/ev5Z6qKgd22zI8ae2zfk/eW2+3jm8qg6e2yL+svbX9Q+RPCvBTuTz7zFN0yo5evvgqBqluxph1ox0inv3Qx/Limde3q4wBj5PEFgsfVn33u999YUXGNgHeXjkd8+Lm7cDOu1t3t0oz19vxFvZdcSs/dHxSgJ/KomQ3WB5181A2M82gPFBM+v3SGe86de8n+1GWr+Ob/X7i3vo4kLZMWJn2G5eHSu2DAXYfXjKloVNr7Z5IW5GxacwNqgdL/h4zz05WcneddMqPMZwU4CnWwTM5rA2//e1vv3jq3of9rSxUzhAO+RmmgdDjia96yqYs+WMLcyxr/3/yJ39ye4LK2yprXPEZi5tU+2NsmX7zm9+8xdbe7ZHB1y5Jn9p7zWtes4HdJjwnkTDbl9/XjrJjCicF+BRHuQ7zS5fXNjXl6TNG/JfF5BRmveiTFt91410yo5F51bZmnbUvZJh6uOHkFArV4dnpic549t/8zd/cVma8wgfsgumKG1QPlTxF5dnnSyL366fy2qv9Y4lPFvA98TOntKnJzZfpDS+1L2SEDCIvfT8D7pP3oPTmtysQ9/Wj/mpn9hGdLLRkTV5vJZmWeBi0Bg+W6MmN6a/92q9tD5VcIXl88uhVPUuPP/VTP7U9VLIbsr7XD+05Zr5+zr6s7R86f3KAnwq2n8MuSMbhnXgrADA3bZVhKnifIabM0rPew6ZrN3BqA81Re+Loa3vxoE9Z1Ym/suSUF/P4wM6TA7u1dmvuwI8uALsnp+bsL33pS7f3COi4aQyeKbP2Jw3PMYeTAvyqYA89HAxk555yL3qY27dfG20GxnEkq7KVnhHX+vE/SLxLFo+ZlwbGAl50J8eutnfJqm4xgMYXjTxOAMB9agPgXRnpS3umMZYZbRn4mZ/5mW2dPc9OVvqSXmUri1Zcu8cWnxTgV2VSNEPyQj4d/UM/9EPbRiYefl21mYqfQEpmMb5pwMk7ZTxsWnsO8mcbaz9mO7MMfdabfHYw2vILxPTDg1t98TUx23zd6FuRMY0xfQF0m8GA/VWvetXFk/fW2ee7qWsfZ1unlj4pwFPuNHqG4OWtKnga6G9aGDneyY+mzloeTwAqH3+yxNcJ9VNdspNfe8lEj7by3C8/ZZQmy5XOTap97bb5WpEBfH8Q50pg+dFauy0DP/qjP7rFpolre8ksrp/y8VZ2zPHJAX4qk6JdjoXVADMv7cgwMy5NhjQ+J4R0h7KHDbOd+rbSZru1N3mizVj5HF+y8bQiY+mRZ7fz0S5IJwCwe/fUldF3Ii0/8vKmMclc25GvrHZm/6LFN+sfS/rkAT8NMJUvPcsonEHiqXyl45l8j8JQtZmsCYxJi77yT57SazzrSjt5bAazasWjv+1tb9vm7j2v4NktNVrlsoxpOuNhlaXeZInrS/Ha7kqfdVbeY8ifJOApNaPw8Cm9OMXGE716ax49OZVNGcrR17J4rhInoz6sdaZ8PDMoW6dhs1y6+mJLkpZpbRMA9va0d4MK1KYtnqJ6icO2AWDvo6i7rjSzPW2soT7Xj7X8WPInCXjKC0D7FJkB9pWv9H3yHlTOKlc+GcUrz9r25AOg8ivfKqe27I+x/AjsblB9hKo3loDaipaPpvrSALDz8ry9G1ht1N6utuvDBH11jh3s9HOSgKfY5u4ZeZeRlM0wjRQ9WnH04ujF0R8kVjdQqJes6MWVVS4/xxUdbaarh847e4rqBtVWX7EHUZY+ARqw7Xy0lOspKrDP/THkJpvcGbrK1P4+vlnn2NInB/irKju+yxQ+DXaV9GWy7ldGvj4Vam+lK69s8keftNLFlmN9UoNH98YSDw/8yoHdNown7m0sc5NqMxiwez2P16/N2hE/SJj1H6TebfOeFOAZriMPn7EpfCp9plPqVXjVi694l6xkPkisz8kUJ7d4ylK+i6f+Jac8D27p0UMlN6jm7dbeeWUrMp5V2BNjCsOzm783jdHulFc/ZvtotbX2tzz+tU6yjiU+KcBPpWUgtKnwybMvrS5PaC3aSkb7SFb+QxnPieH1Od7XwyOAnSHgoQG0OTtw8+zAbusA8FuDVxew3ZTagmHebvnRMwsrNVP2Lj2uOohn9qd0/VrrVH4M8UkBnkKnUikwT58yU3aGkS9U1ypGW4u9/GDpbvLFL570ZM7yq6ZXOfIOMpMbj+nHj/3Yj1183/d931YGlJXFKwZ2Y/E1MJ79He94xzZvt+3XKg0e0xUrMqYw9sfw8Lb5rntkjAP/7Fdjq+14xJM26dLHHE4K8KsiM/5Kn/mMiFbaSQJUlucAA+jbcBZfMlbDRn+QuH4mq37IS6/lHgjxxDy0flZvbdP2CZ7dy9atxvgkXhvnPIH2n7bW2IHdi9d5dleOQv0of5W4MeCt/9Vb89GPIf7kqI+hN1fsA4XuUupl9EQDOz43cFYreEOeEnBMA1a5+8CWvPvFs09kBa4pF095aSeiKZd5+aTPttDb124j2Fvf+tbt+4+mN+qRYz+MqYynqK985Su35UievfbEQnHyyxdHX+Nd5btoa71D5k8S8A+rMEZhePPkPhkNZDymOb14BVr567S9DwRT5uRxUpqqKJ88te2q5ITwzUee3et5pmjA7uQ1FnuLfPPRSxymMa3GzClgsmfb0uiTVruPQ3wnAc9wbtgAw42cmzoGdhPr0fu60zLjB5AHNXz1kiOORtZKV9ahbPJL659+WnZ8071Patgf40FTnt3J7BsyXs3zEoepzbr0mPzZfn2qPw86zlPgv7OAzzgu+76xAhw8Pi9pqiDclOED1r42zK9f8YpXbECdc22bwVyBbO3tM3jW2W0ZAPbuS5rCOJl5ejLWsaz5ToCVviniMfq5U4APaBnV5b+txVYyXv3qV1/qWR+F3QMWWU0v6lfy9S9aaX3tjSU3qf5ihoe3wuREwMeLu1q5Qf3pn/7pDez2ugvkNe7ZTul4xCvf5Dn19J0C/GrIAAdMs2ymH4WBJ3h3yUaLR3uzP+jm81ZeTGN8KMlDJZ7dPF65k9Y0pm8+8uzywD7bm21oZ5bJp4/41nI8px7uFOCnsRjTwbgAVsjIxdHxrbTK7hcHIHxk7JKDhq8jPlMVnt1+GLsf7Y2xt93yo+kNUNsLY23dUuZrX/vaiyfvvbHkJNjVjj6s/alflSnfVxfPKYc7B/gAxWh5tOIMGfjKix8GALNuYBLnyWt/8mlTuRtUD5a8oO4Ads8NrNRYr/e2kienwG6rL7A7AchKXmMuX6wNZWuYddeyU8/fOcAzWKCTXo0/88qFXbSPlVztt/qBKwDOfDxJBHYPnnh2L1sDu20DVmRMZTx9BWwPkuyLsQTZgyVlU17tkB190mqzOJ7yj1N8JwHPoNOoGR9tVzpP/KgMXxt5dnLRZr9MY6y+WGO31m4qY0rD41uNMUe3umS+bp3dQzT73HeBvbEWG49QXqz9xhl9Y3rMfu4c4FdjBr7VrtGL1/KHyZOpHwA/5UsDnXm7ZwJP3ftAkimMPTK+7svb59mts/s6mGmMm1V5zxbWk0g/55hne5WhrfSHGd8x171TgM+oADCNHCAqL0avrPg6xkxedScoya0vYp6dF28zWC9e2+sD7G5GLaGas9vmKwb2dUWmtmZcP+ZYahvf7Nes9zil7xTgM1yGLy+etAmIyfMo07ON0oGPl7e2bg7vwZH9MGgeIJnKPHHvJQ5gty1CGo0MBxnJK7/2u/J1zJNeeq176vk7BfgAkKHlp2EDSzT5eBk6+oMafdZLXm2RFY2HNT83NfHOqTRQ269PBg/Pk3u45PMa/qiAx59PUpNVm+Joa78ri7e+xD/pa91TzR8U8BSbclP2bSlZO2tb+/Kzjw9raG2Qt6+tthJYVwd883ne3cnQ4Ykqry7G31Rkl1z9rc1dfa9s9memd9W5Lu1+erypdmd/Dwb41TjyUyHr4Ctb6XMwV0mrv0vGLhp5+/iv0tY+nrWtmZfm2S05ms4Iq64AnLcXr3Wv2ubku6qMWedB0tlOndKzzQeR9bC8BwP8ro5PJayKmWW76j4utMYJ9I5TDfMkNabVnsaFPstuY6wHA3yDNchdyog2FXcbCjm38fAaYLPsx85C8UxPWnWqt1W6gZ+PfZjxBgRfJtJADczcdA6wQc+6KWVX2eQ7p49LA9ltV6+y5bQ9/o5ddR4V7dYBPwcF8AKawZePhi7sUtBWcP45Sg1MG++y3aRJF6qX3aM/yvggUxqDXAdX3uB2KeFRDvos6/Y1MEE8bb32ZNp+LXsU+VsH/BxQy2kGkkIqL66s8kcx6LOM29XALtvtomVz8a7yR9HrW5/S6HQDMijrzB6seMnhHB4fDUwbG5U8G3t6LHagCYG7/Ea8oZ+DAL6xGKiB2ztCEefweGuAc7NlwhHgYaDD6G8a9AcDvIE5DN7ra+IGmwLEKSH+jXD+OXoNZLs6akHCxjgvrkzAT7tm9+rcRHwwwDcYSvClAHGAV7YOfpZV9xyfhgbYLsC7mrN1Hv62R3BQwFOE9zL9lSIvn1eY4A74xbetoHN719cAO2ZLMaCzM9Dz8k4Cdp1812/tajUPDnje3QvJ9nvPkKKidTKUP8enoYHsKAb0vvtjocKcfobbAP5BAD/Pam/x+GScbztOL27wPMBUWOmppHP6eDWQPcXAzan5QhqbA75pjaD8tsJBAN/gABjQvZjsmyt///d//4nPPE8lnIGexk4zNn3xNTcfjfINTK8vyh9iHn9wwHtR2Vv5QO+9TW/kC3mHaeJ5Ekz6OX0zGuBoOtYWohev5eWVA7f7NPb90Ic+tHl505s8PJ7bCrf+pHWCVtobPF50cKl797vfve3z9r1HW2Pt+Z78t6WUczsPpoFpowleU1LenW19Kc2nyXNovqmDF+jVT0bxg/Xg6twH8fAN0NYCr6l5+95qje+u8Pa8vvVaCpthKnPSz+mb0cBl4MuGk4d95uFholUZixI8u+mrci+3+D4/p6Z+jm3KupkRHehvKydwvZv5spe9bHtL32cp/E26gfvmio8M9Spbb/jclCLOci/XQGDMdmK0SUdzcwroDn8wYc7uCww8vM+Te1eXx1fPjSvHNmWWvrw31y+99SmNATUog+5T1TwB7+7fLAB/fm/laU972vb+JtBX9/pDPte8qgboen2NcK6ckdMGQLzKTFFcrc3bfVPHAfiWIf3FvT9mcL8G6E4G9Zwk69X8qn18UL5bB/zsIMDz4JTgf4gMvHme7ydSnK9pufyZ15v35VGmnHP65jSw6nsCUxnAB1rzdYcpqRU3K29s6Ls5pq6+kOY9Xas080sL9Z6cmw4HAzxlOYCYEvwztOmNDw/5vByv4Dvoysz5eHk3t7sUddNKOsv/5KauQBnYxRwVoPPaPLkpiw/A+oSIT4r41Aiwu5p72uoqnv3FhZmO9qjjgwGe4joMFJh5c/8SDeC8A0/Q8hWlmvasl9hHrZCzvE/VQACf1GiBNjuyEfvw6JyXK7fjyXtfNJZ3leb5herskjtpjzp9UMDP+aDlSQeP7sbGui0vbz7PW3hKx4ucw2E0ML0vsM6pDZC78jpcsS02ALgvpvkbITerbEvGBLyRdPKIZxs3NcqDAH71DJTXYCmPcszbxaYybTbiQc7hdjUQILNPrUeXV8Zupd2XcVw8OrA3DV1lbBU+/qN+x2V8s8510rcOeIOZA6K4zu7o1mdNaxwr/3UGea5zfQ1M+5CSjXZJjLeyy2w35cQH8JOenEcZ3zrgU4qBGeBcX1dWuOmB1845vlwD0w7S00ZqruWrNPzxNIVdPTkeZa7g8VRnlfew+VsHvA6nNIPqmHTpBox3Kk3ZOdyuBrLFbHWfTVbebF3d6q18ypWt/NV7VPFBAG+wBtbZ3GD2KeGy8srO8c1pYIJwtdFlZXo0+aV592xfOfrku7mR3HtQdpPCryLb4KfSZp199MlzTh9GA9cBaaDO5qt9ryPzQUd/EA9voAbXTUoDTyEGsdJ2lc3BzvJJ3yVrLT/nL9fAZbq9rOxyqR8rzc7i0lepd12egwD+QTo7FWoK1DRoKqebIHLxzzoP0taZ9zAamLa86R4cDPAGCbzCLpCuoMXvLt6j6XU9vocegG/VJ5lb4vxz1sDQwMEAP/qw1yMDOeAHdHs0bCrztM7DqE4Y+zU8oPKvGV/1VV+1PbCylq9+MmZ75/Td1cBBAb/Li0cD1IK91d6U8bL3G9/4xm1Tmb026MIznvGM7c95X/7yl1+86EUv2p7y8fpNf+aUJ5nn+G5q4KCAn6AuXTzNYR/NBz/4we3Ped///vd/Ytspz4+f17fPpqez3/It37LtnydjnkClp+xz+m5p4KCA36XqAA+cAZR399frtg4DNx4blJQDvW2pXh6x59o+DofpTTLwT7m72j3T7oYGDgr4AB0YqRytfLEbVd8ysdfaFmJbTv3VuhtUnt3rY/6W3RQnPtOZlj2TW3t3w7TnUe7SwMEAD3wAKQCn/DwCuxiQvTKm/Ml7e6u9HfXSl750ewnYSfD2t799OxnM2/E5QbqhnTJ3KeBMu1saOBjgAfkyUAIqHjEgm6bw7t6acdhnjW46Y9+1E8HKjC2p/r+0TWnqC8m6W+Y9j3bVwMEAryNAKOTpt8z4CfT2xbshFbxY8PVf//Ub+AO8/BNPPLGdQF5AaA92omqn/Dm+uxo4KOAvU/sEKa/9Xd/1Xdun2tC9+ufmlUfvLXlpa/HW4b08cg5nDezSwEEB33RjV8cCPB6Af/azn72tr3vlz0On3nw3LQJ6U548vauB+skv3tXOmXa3NHBQwAfqCU7qX/OmKebvTW3Mz50EbmbN4b1OZl7viasD/xnkdwvIVx3tQQGvk4HWlMScvJOgAQCuMl6bFzdtwQP0wO67J+bsPgmRjBXsyVzptXGOb14DbNDV2BVZOrvcfOufbOGhAa/TK5AayP3o+Cwj2ibgoRHvXJ1kfLKrFxvIrcAI+JwgvLnY0bp7Mqq75qOf45vXQPgAcM7JR5o8OZ97oW6+F59s4aEBT1SD+qTYj6VWOuB1xAvwvhsOuAC/hgl8dXnxQoAvf46PSwNsl/0A3jMTYAd8V+d2vU5MxH9TI3noN550VpiDixZdjNbauHyBEjwddcYnQzyVEO+UG+0c37wGpl12pff1AG9TF2kPBNmZzXs46Krc1XmfnEdJf2jA1xkDmmEFJ8/sRtM8fA7QJ5R9Us+HlyjD/K4wlRvtHJ+GBiYe2DTH5tuhHJwrO7qFCFd2Cw8c4oqbRz3aRwb4XR2bXtqNpQ1fVltMX5pvm7+/+c1v3r4oa5+7S90MgX7Szunb1UB23Bevvclm+NnZwoQNgPY72fXqGQpHZx+UxQZPymGj1TX1bio8kjm8ztVJgy09O21glg77xqAzHriB/A/+4A+278JbR1fe4J39FOY4h+PWQB5dbG7u4MGB2os7/hTBt/9dzeVzbFbfbAQE+hzhTY70kQA+gJuvFaLJU4JL1tOf/vSLp+49OLK06GP4QO8DqRTzvve9b5vqeKKKjudLvuRLto+sUsQ53L4GdjmvgF1v2BltHkAO0G5O2dl/O3l5x18a+TY8bw8rprZW53xA1/dErcBN3NTGo4wfCeDrUIMvL05BQGtbr4H5fLLLHIU0v+MB8KKZz+MFeidKe2OaBk355/TNaYA9dgEwm86ybk7FnJgD2C1DuoI7vLNgKuOGlU29s8C7O3xx2H3elHkTI7s24PcpQ4frdIoRm57Y4wLw/gnCTYt97Hl4S5MUBOwufZTh7HfJ66HSrlWem1DKWeYnHVW2nDrJrrMMDdgd7NjBm/unDzerFiV4f4Eze9aznrXtkfKKpj1Qc8l5tvco09cG/FU7kXLyzl3CWot15pvmUJSTwNxPzBPw7i5zTpYJ9qnoq/bjzPdgGshuaqXvSUuasuhidjSd6R5NDPRsKnBewP3MZz5ze//4Oc95zuYIb+OGVfvXBnxKIKQBTxp6Ab0yXt6fHwCwy9qb3vSmT/zxAQ9gquPhhM1h1UmOdmor2jm+WQ1kg31631W+8joJ8HFertj+tdF/eH3v937v9gK+e7W5VH2TI7o24O/XqQZtoClFHUA3cCsx3lwyUPN1S1UufdZoeQTzPPP75Mz2dtFm+Tl9HBpgW1dnz1+stXtp58l7L+rw6qYzVu2AvakMu06s3MQoPu1eI5/6xOgarSSizq75RE66uZzLnamLZSp38P7byV28ub05II+/htpY6ef8o9VAtnpQqexTXY7N1dxSM6BbgQN20xkOr3uz+LNt8YO2fRX+awNeJ9eO1XENV4YWHc0h7zLXCg1gewDlL26AvwdQpjeFZEzZlZ3jR6+Bqe9V+rTtWjbzPLfDNNZNqpWYVt88cVc2n7Ekd8p41OlHDniKCtg6G7ilu3FNmQ1QHuh5fJ7fMeup6wQ5h8NqIHutvcieK529HW5IeXtxCxBT1kyvMh51/tqA39cRg18HkEJW+pTB2zus0gC3OtWLb+anrHjRVnp1o08ZlRXHIz/5Jj3ey3jqfyd4dZJZvE/upMdLBnr5q/BUp/avE9dedWs3+ppf+ZS7b3N0Y4pWvfhvK37kgL/JjqdkbUyFoQPZPoBNXnWnHPnC5MPjQJv0eMX7eAK8evpUqN3iysrHN9ubZejl4ykvRtvFk9zrxMlf6872Kou3vkU/pvikAE9xKbr0LmVOhe/iX8uTsY+uvLKMWp1ZFi2eYnWrj2fSZx30eOOpvPrR5aVnPl5x5aXF8dcGmoCe/I9RPtlH+crwOZmFqzqXjfmIfj7pfo6oU5d1JeXHs8vg0fDEP2kzXXnyivfRKxfj2cW3j17d+5XP/tWOeKXvou3iwSfMspleyzbmhT/aykvOKmvyHlv65Dx8Ctyl5MC3q6x6YuUr6Gad5Mw6peNbeaLHpxwt+mwvGt4pJ/6mZ0158OVZVznqRFvllq+NNU9uoTL5yV8afeWRj1Yf8B1zuLEHT7c16Awyle/G14MrT2stbdqXYxkMbwbq5thDLg+7LJvZq5+8q/TfapJ2rC45PGDxJFGonSkvWrLLxzP7F8+UNWnS1Vt5Jn2WRa/dVYZ8Y7JqZmyWFG3xeFzCyU1pKJ7BMlrpjMkTWu2xS8+LJW94wxu2d2YrFzvw2M/j89uve93rLn77t3/7/wFQsmtL29VHs/HNswOb3d7ylrdse76VV2/yS+8Kk1e5+lY0LpOz9mfKnfWkZ7621rh28drz4om3h4C/9mu/tj0fmfJn3eTPNibvMaZPDvApfCqTwmcIzB/60Ic2QHtqOwN+JwYPBrCe8trNd9WgD4KYHFcLbTbtqGxjuuQnOfHLTxDtq7qOd/JNmdEv46/teOnEVY9ebOdNd6vcZBZX/9jjk5rSUHqgStHFFC3twGPH3l/91V9t3n3XFgU8QGqjGuMybIBL1i7jZXixJ4Uu921tnV9diI+MmdY/+V00fZqrH3Nsu/oSLT71yZWf8//4ajP++iFfPToBenqx7cNUTZh1qz/pu9rbKh7Zz0kBnu5SdvE0xNQt45u/m5NK7wrq4nFCtI3BicLg88kvo5v+MKo5eo/K1Sfbwcvby2+ag8d83pNFJ4WAbvuE4BG7hzDaACr3GmSRb/u0wz4TTyXnVtvSZNij4mTTFnBqW6yf6tmJqh33JdoCZFs2TPXanKdNMvDU5/S26q6TQttryBYr/RjzJwV4ip3KZTBHxphl0gDkiI5XKK9MYORkASZguDoAInCIgRVwvJ1jA5SbYPWcHEAGSHicHL6D6XVG7agjBkb/YqLOq171qg2w2nAP8c53vnNr3+N3r7s5bK4KzG6qO/SFPFeVJ+59MRmwTcd8I9+OU30AYiflK1/5yq2fePRTuXdKHU40wY7F5z3veduGrsbk5HACpxN82nSsYaVlj5XvWPInBXhKC7QpcCo8A4kBS6h81ptp5Z0U0oAB8O9617u2XZt2+gEPbw3U733vezfPDJA8KSDb8AZMvKJ2n7r3QgvAAL16PLk3ury1rw1ygP1tb3vbdrKQ1aN30yuvO/qDNq9C5r31hwxXDqtOrgCASaYdpt4bdTVxspmeObxcQ64xGDMZ+J1IxqSPrhpvuvdOghPV9t10tjqLreDeT7pLr9FPJT6pm1bK7kjBFN+BphzoAnw0cUZKhvxqWIAHSF4XEADCa4leVnjy3hZXqzm8qSkEULkCBGbAB26A57mdOPoh5nmtfuAlH0B/6Zd+aQO3bbMvfOELN8/Og1s18lI7sFs1cXK89a1v3VaCtAfsdh3qP2/dpy8A+Qd/8Acv/Kmbdt10Oqlst3YVeMc73rG9TM2ru8q87GUv2zZ1/fIv//J29TH2qZOugPSVHtNttK1g/KTjQTqq5El5+FWZa55mp8EC/9T4rLPLeNVxeedJgQOAeHNA5Y15Wd4cQDK82FzY5yasDgGiF1zwOAEAHkjJAXogbg7OM5v6AJjpB0C35KkddP0xJzf9IJcsJ5IyJ6UTwQminj64D9CWub56+F772tduVxTvkGoHrxPU0Q7VOZ7S6S/dok89Vn4K8UkBnkIvU7SyjMLADAPUa71kBHhxRiztTRyX+CfuzZMdynlfNNME04lAUrtOENMQHpcHB0Jg5GFNVdQN8ObQphW8cv0RAyi6ek4MwHQy6I9VoO/+7u/eAG9MTiYniz4DLcBr00lqGqOtbppNX5yQTiCHewLTmMDenH1T1r0f43WsobGu9FPJnxzgp2IzymqEgIw3MFUvIxZPHjT8ThZzb2AD7pU3mfGSoU1gdTOpHgC5mXWS8PBi73Hy6oCZZzUNMgcPmIDuxPHk15VE0B+yAV9/tIXmBHADjeaEcBKaSnmuoM9usE3H8Cn7rd/6re0kagUoWU4MsmcwNkdjTzeT5xTTnzrKExxBBgmEhpCxpJV3AsSDBpA8nXRAwi8AEwACvTSe6n6M41N/a8MqC+9s+gFM5vimMrw78POwpho+SqRtVwh0oNceOQIeICWnebWTCE/9wQu4rhroAE+up75OMFeHliqfvHfvYbyePJvX+8Kbeo7GSgeNsbhR3m/8+Or7WjcZxxKfPOApeCpZGvCAhRF5tm4u0YADD6ABBk/LK/O8wpTnRJk0ZRkWXRqPGHCqa55vhabvsQAbkGm/kwKg9eGJe9OllinJNB1yD6CfeJ0Ysx/acQjm8FaHzMXxmZv7IoAbVCeZ9t3smj5pzxXjBS94wcXzn//8DeytIJGlvn42PmMRGlN5NDyOyuKrbPKiHVM4ecBPZWYsl2jej7dlfN7OTSTPyVMyCLDziKYQLvumEEJGzKjRxMmftAnG6G4SAZ631Tawm1cDvKmJKYs5NM+un044Mfk8MM/vCoHXPHuG2T9AdwWxkqOuNozFyesAeuXSysmkAx7fSWnsdEWmKwnHgLYG5YWpA+lZFs8xxycFeApOyRk+5a6GABZzZsESo4c+gIWurhUXJwOAvOY1r9kAmvxkilfaauA8O15l8sDkzfzmzG40rY/zsA6fqDCPt6Zvzu1Gs/k0b8zzk+MkBPjKVg8MrMDsHsCSo/EZj/sFBw+ubSeCK4YbaWvzrmqmQE4YdQVt6guHIDTu4sZdvDGNH3zCvvLBetDkSQE+TVFuihWvRsFnOuCGjgf+lV/5lc3b8ZxAoA7wmPLwvi7xeXjlQAS0vG6el0xgsPoBgICrDWlAAx4gIpssXhTQAAn4LW2SpQ7Zyiwf8vKuAvqpT9ogzxREP8h0pdJPbalfkOaxyTU2J4sxdVP8xL3pkpMLj3JTJf3EB/SmMU4E0yBtquck0rarkP4Yp7ACOv3XF/Eu2iw/hvTJvQCyKp4SJ+BTOmO51POebt54dEYGLMABLFMM69mmIIAOLHiAQl0ylGd04AXOQM0Lu0eoDmC19Mczm1+bJpCvTJvaEPTHlMM8HI+2jAPYAFydPHz90a7+dBICsXb06al7UzTTEf0BYsAFWu0aG3Dj0Z6AZlza1P9OJm1r11jJ1p4+Tb3rx8xvAk/k52QBT7+BO+Wn80kHcAfjAT/DMy7QMDgAAm6BLAcZkz7LpTN6bddm8eTfxYOmX8Ac4NWxLs+rC7VReiN+/CeZsoBvDu4kdZi2GZ+4K4ITCrAddGHcgCx2kjhZHJyAPqxBew59mv2afOvYZ9mxpE8K8Ck95aX88pVPOprA4AwLZMqBGfAnLz75GdZ8ZcktfxW+lYcM/XISFvQJCPE69FcoH19jrRzd+MhrbGQ5hNpSng5qRxmaMjRXiF0BX0F/yhevfYz3mOKTBTzl7gqUX1nxyoenIyOtRitf3WRNerR4KotevvJJL60sPjRph/Sax1u9+OLtaiS/hupEX3kqj15+8kebPKXFDjz1o7rHFp/UTSuFpniKTNEpdVf55K9OHo5x1vJ40MnPg2ZINGGtt6svG+OeH/zJKE52bc12KotWnWL0+oDmKK9MiDbHNOt/jOtTf6eMyVt/opX/1NrHl/vk5PX4+nZpj1Iwhad0FWZ6n4B4ivfx3U9eYKgvq5xd8quDd9ab6VXOvvyUX/1oa7720PFMPrRd/LU7+S+rpyw51T22+KQ8fMrLQBlCPkPgKT35qltZ+RknB4+0ID3r8L7JnXV38UZb+eRrq3jSSot3hVmnvs6rljSeeQWTn56dXLTCOs7K59jjrax41k3mvnpTxiHSJwl4ipoKlaboaCl9n0Ljj696xdF31a8s3pVnX3l0/LNu6eJVXvmrltfO5EdzTNpM18asW7qy4k6aWV965uM9xvjkAJ8hVgWv+dXAu5SfV5wGW73jauDkru2Rrwx/c/D6WtuX1cVDJp74qrcrTvbsO1rtz/4lc3r82kt2POVn/WjxiFvhqqx4V73KjiE+OcDvUprlNEty3hKy+SrD7FK+p5yewHrA0j6SZKonzHrSu3phGLgAAAu/SURBVOj76sy68RTvKpt9VV57tbmr7qyjfPLWBuB78OVJbmv71vc9/CpUr3ajXxavvFPGZfWOpezkAU/hAO/hi/0kP//zP7952OnN8DgYy94SD1wYfq43Z7hdhplGli5MudEm76SVXmMyVq9MBlp9rs5sG22WSwu1zwF4f9UribY1PHFvm4GHUAEe/6xfXXGypGeY7UvvklHdyTtlHDp98oBPsQDicT2P9upXv3p7FY5yK0/RHtl75M74nRQZaeVHn4ZNRjLXWHmyKttFi0cZvvqx8k4ZpdWtX/iFymYaj6eudmXaJ+PhFh0VZp36E00cbcosrazy6iRbPlptHVN8soCn8KlYeZuf7BWxY/BHfuRHPmGUAIXHNCbvjt50iEd0kInO+3vqWF18jOogR1xd+1LynIzrakOWea76Pe1MRm2gk4M3WWTXz/qAv7rFeJIToJKDDuC2UtCH7QsBXr3awt94jJVu6m98yuNBm2NKN+gO7TqOOZwc4CmUchlBmtIL5e0hMV/FJ6BXDz8gZSz7WGwuM9/1eQyGB14vU9jRaMciGtA4oYBIzHvagmvjlvdYfVZDPby24JJlI5nDZizt2yxmLwtgmVfb2EUeXluVHY3LSfvEvWkI72x/i/ZqV6zf2jJOsoHX1Y0M43cSepc2wAZa+2V4ff02Zv1R372N9vTV/Q26NvVPW9rUhumgfrebNN1PO0Q7xvjkAE+J06PsUioPNven4GFURslDkWHDFYDYB8743hBSDriAoRzwbDJjcIAFZttrbcBSx4slPLottsBi0xYen/LwEogTB/jIRQcgJ4H2nUxONt+LIduXDAJ8IHPPoT/a11dtOtHsZkS3m9FYlaOToQ/KyNZP4yAXYPHphxdNyFJOL+3D11/9Ip889wH04oQ3BluaxUBPp+l2S5zAz8kBHlACbwpPz8qAj5HcwArx86o8Zd4JSFzufSX39a9//QZOr9qpz7hWe7yg8VM/9VPbqg4Akvume9+qASA3gjysqwVvCDwCmpcqvD9KvnZ4afcM3rAiByDR3XN4KcNXeu1396UwwHSyudn0xhQP7p5DG4CnfTKevLffvhPTiaC/PPSr792/ADFga4+XdzLSAxADtu/Q8N5eSiFfm2T/4i/+4va6Ie/txMTr5RkOgWwnMP05nMRkOgQnTWn51TZoxxBODvApjUJXpVI4L8bLAdIMwMFQAAmAjG8qwdA8oW+9+OYLsPBsTgReEJiAEUAA+Kl7e8rJcmkHYnTtogMBGiDnHZ1kvLSrjpPCyeSjS3gBzQEsvL7lUieT+k4Cb0z98A//8MbjRAR07ThZ9Jds4wBOsWmSMeAzJlcZ/cNPLwBszDw8PbgiGZu+oXtBhAfXdzLINPWhI57fDX/7453ogrGvdph6P7b0yQGecikZUKSBpRAdOHjJGfChMzw+IOn1the96EUb2BiU8YGZgYEfYIBBe4AOmDzgS1/60g1IQAOgTo5uMk2BvGkEMMACPADG65Jjjsxrmxp4DVG75t3qAZuTQtvArz+CPpOvrinHS17ykq1936UnW94XzMjSR8D0uQ7Ad0UhD3idwPLactWjQ/XROITAn+5cAdzLeCvsxS9+8dY2Pei7MPV/CsA/OcBniDWmbAdDACzPNQ3Ao/KAvCIeAHAlwPPEvcs1gCgTAMBVALjyuAAJcICijCdkbAdPbAqSh8frmzCmFE4YN4n4gDZgi3le7SvD12H64sSs/+oJ+g2AgOlVQ3LVAVb3GsbsZBDINya8rjracoXi5WvTiRhwnYh4gdmY6UC/OhGcSOSvYfax9MpzTPmTA3zGZ4wUnAEZj3F511ffm8vOgB9ggZJn48kYFj+jMjAaPgEdaLSHTz3yAUKZNoHLyeIJr+kK+QHae6zA5aTiWQHOyRKoAJrHd7L4lxKyW7nBR7629KsgjaYN/WwMTlR1lBXU12dj0y/BFc6J3gnlquQKgBfN1Ur/nFTG7SpJV+TUD3RH+pcWisk65vBJbR5zL+/TN8rmoQTAYTBThpSfMZRHCzzqmd4wbmX4AYD3NH0BJHKVA4+60oDQXB6YgFu5KZKbWp/IMD1xMvCuThAfP3LCRLc6o31XDX02HcHXybb2fbavTwCtL7y1PsdvXMBtWqVv9beTSKxNJ5mybrD1zQlEHw5tGO8EOP41RKv98ivfofMnC/ipWGneTpyiZ/mkxcOwwGVOayXDlCDvThbwAqyVDJ6PhxbISh4wAA5wOszlAc+8/Il7nt/83bTD6g7Z5v2mQtoGsKY82nZj+4pXvGLjA9Q3vvGN25VFXwT9ru/aB2hygBaojcF40JV3k2oMyvUVuIHYCeZE9vVgJyD+5vv6aUzzfiew60c62ten2Uc8xxZOFvCBLoVOo6Ct5fFFZ3zzbF4c8ExLXL4BBc2lHoiByAGga8j4ZD3xcYCbxvCI3UcAnCVDJ4x7AvNgQMVDvvacXG6MTTEAzVTHyYPHTexT91ZmgFaYwNeuJUf99zxAfwBeW/jJTC+uRsDtCuGKo5/6ZZxkOmG0Ke0K6cQQ6CudySsXdtHjK94Yj+zn5AC/KpMB0HiwjDt5MlBGSv+8NsAxNFD5JB3gmBYwtqmCG0MAdfNnCiKQN2WiAbL7BnN93hOoyOZFu9FT5sRBa25NvpUi69yekgKf9gHe1YGnNeVR3ry+9o3RfNsypHsEcpxcYiesw5VCPe2RBfD6ZayWbV3dBCdIOpR3supDJ/Qc70yr45h9qg45xxhODvC7lAjsvHOP961nr4FhhIyjDlCbsvzET/zEJ6YPPC4e4ARWB7AAvWB+DeDqFoDYdAWAeWsyeWcy/H2Nh1cAb6mTrNoGQN96NG1xkvDY6il34qhDpmmLE1TQriMgq2Nrw0/+5E9uVwf19Z+npxPz8dbQk+8B25P3Hlw5sV1RtI9Pub7ri/bIkXayG6OQHosnbWM48p+T+mrB/XQJrAwNMI5dQTkDMxgeaR7OJd6BBigM7tIujzcQieW7mmhjls32o6NJq7PWM/UAbqByALeDp+ehgV57+gPos/3Gp/+Aa9rlnsFJ6YTgzU2f1K/P6jRtc1XRBplOYjfNAG7MaPOo77V5qvFjBfirGIERATAQqIMGYA6GZXBgMRVQJuB/2LDKkg+svC1wAytviw6YXXH0x4k4Q/LEDv13AgG5I/BWJ35jIR+vGJ187Rq//KMYb+0eU3ynAD8Nzgj78soyOJ4AEE35w4ZVblceJxvQXSXskkFO3li5oN/SygTljWWVsea3Co/Rz50B/C5Dos0QCCYtnl1lk+9+6eTgS1Y0eeny8cQnH1jR4kcvRCOjesXxrPJ30aOtdaOfenw1V3Lqoxz9X4E1inYmGf5hjR/QimtoypbOswP35K3P0WZ+n4zamPHkTZZydCFa+Y34mP3cGQ8/DZoNp2Ez9loWffLG8yBxcqqTPHSHvGPli7941kMrL73KQhPWqwNavNJTxkwre9zCnfLwjHmZQe8Htocx/truvrbWPk6+KWPlq2+TP5p4Fx1t0qf8WfdxSt8pD38/wzH+LqPvo99P3iyfwCrdFKb8bBvNEU0cjdzo8az5fW1Peunqln+c48fiwdOjMtA+w++jX7VdoLws7JI/6+wq3ydvF2+0KVP9SS+9T+7jQr9TgM/g07jRMmhl0ctXfp34QWSs7VZ3H11/4qlv8ZavXLyWyXcoj7e6j1t8pwCf8TL6/Ywbn3r34032ZXHyklV+lY+OJ74pc6Wt+SmzesmrnV08u3ijPU7xnQI8cDB2BpdfATONG3+0y3jj2RfPduOZqydoyS+Ob5ZFm2NAKy9W37G2mdziKXfSklFbj1N8pwA/DTcNHP22DV0fiuuHeBdtll81vU+OsRb28VT+OMV3DvC7jJvxizNwJ8CuOvFcJU4uOVPWTO+TM+viuSxfWbL2yccXL57S96tX+SnHdw7wGWsXGFaa/Eqr/oPEDyID7wTgrvza9pQ/0yvfzO/j20efdU85fV6HP2Xrnfv+wBq4U09aH1g75wqPnQb+f837UgfcgHPvAAAAAElFTkSuQmCC;" vertex="1" parent="1">
          <mxGeometry x="220" y="71" width="71.04" height="99" as="geometry" />
        </mxCell>
        <mxCell id="qtwSQsPml5bytBeIYUfw-6" value="" style="shape=image;html=1;verticalAlign=top;verticalLabelPosition=bottom;labelBackgroundColor=#ffffff;imageAspect=0;aspect=fixed;image=https://cdn4.iconfinder.com/data/icons/logos-and-brands/512/272_Raspberry_Pi_logo-128.png" vertex="1" parent="1">
          <mxGeometry x="291.04" y="81" width="78" height="78" as="geometry" />
        </mxCell>
        <mxCell id="qtwSQsPml5bytBeIYUfw-26" style="edgeStyle=orthogonalEdgeStyle;rounded=0;orthogonalLoop=1;jettySize=auto;html=1;exitX=1;exitY=0.5;exitDx=0;exitDy=0;endArrow=none;endFill=0;entryX=0.5;entryY=1;entryDx=0;entryDy=0;entryPerimeter=0;" edge="1" parent="1" source="qtwSQsPml5bytBeIYUfw-10" target="qtwSQsPml5bytBeIYUfw-4">
          <mxGeometry relative="1" as="geometry" />
        </mxCell>
        <mxCell id="qtwSQsPml5bytBeIYUfw-10" value="" style="rounded=0;whiteSpace=wrap;html=1;fillColor=#ffe6cc;strokeColor=#d79b00;" vertex="1" parent="1">
          <mxGeometry x="140" y="240" width="240" height="140" as="geometry" />
        </mxCell>
        <mxCell id="qtwSQsPml5bytBeIYUfw-11" value="" style="shape=image;verticalLabelPosition=bottom;labelBackgroundColor=#ffffff;verticalAlign=top;aspect=fixed;imageAspect=0;image=data:image/png,iVBORw0KGgoAAAANSUhEUgAAAecAAAIACAYAAAC4pKTzAAABgWlDQ1BzUkdCIElFQzYxOTY2LTIuMQAAKJF1kbtLA0EQh78kSkQjClpYWBwSraJoBNFGMEFUCBJiBF9NcuYh5HHcJUiwFWwDCqKNr0L/Am0Fa0FQFEEEO2tFG5VzLgkkiJlldr797c6wOwv2cEpNGw2DkM7k9NCUT1lYXFKcLzhppgM7SkQ1tIlgMEBd+7zHZsXbfqtW/XP/WstqzFDB1iQ8rmp6TnhaOLCe0yzeEe5Uk5FV4TNhjy4XFL6z9GiZXy1OlPnbYj0c8oO9XVhJ1HC0htWknhaWl+NOp/Jq5T7WS1yxzPycxB7xbgxCTOFDYYZJ/IwwxJjMI/TjZUBW1MkfLOXPkpVcVWaNAjprJEiSwyNqXqrHJMZFj8lIUbD6/7evRnzYW67u8kHjs2m+94JzG36Kpvl1ZJo/x+B4gstMNT97CKMfohermvsA2jbh/KqqRXfhYgu6HrWIHilJDnF7PA5vp9C6CB030Lxc7llln5MHCG/IV13D3j70yfm2lV8GqWe66Z74eAAAAAZiS0dEAP8A/wD/oL2nkwAAAAlwSFlzAAALEwAACxMBAJqcGAAAAAd0SU1FB+IGBhYQJFMZkxcAACAASURBVHja7J13nGRFub+f6pndybvLgmREkCxJEJQgQUAMYECuInoF81zBnO41K9drFrPDz4heTCAiiCJwDQgiS152CSI5h2V3dmd2ZsN0/f443T0nVNWpnp3ZSd9nP/uZme4+3efUqa5vvW+99b4ghBBCCCGEEEIIP0ZNMD4svHDhZ4C3AKsxDNV+roba78n/IWts8pipPWYZosJqbOO4fuBBDA8uf9HydWpZIYSYfbSqCcaNQWCrzCO29sNYDAZrbPKYGX2uMT0yhSlTdZNLNnnEGnsfcD8w+tMkP1e8cMVKNbsQQkichZ/HMqKbElxT+8XYmkC7fBY29VjyewXYxlizDXCwNbZwzIJLF/RjaqJtSIv4nRhuWXHUClneQgghcZ7l4mwdgpuznDMCnRblouXcOLbAqJDPB/YG9s5Y5MnPNQsuX3CTNXYRcC2GRcA/+1/Qb3WrhBBiaqM153Fi4YUL9weuK7SqAZtWbeO5AyZ8V2zFlrvCbfY5x+euAK4HFtXEelH/kf0P6+4JIYTEeaaK87bAAy6RtaTWnNNCisNq9omzyx0eEnqbs7p9xxkexrIIw7XAIuDa/iP6+3VHhRBC4jwTxHkuhjWu1m1YsKbkDriEPe8KL7O8U6LfcKfnPz9tZRfPyWK40WJ/azAX9B/ev1h3VwghJM7TWaCXAwtcbueC9VwmzDZxZRtrRi3nvOu6RNSDd7zMWjeN97gH+G3t/99WHrZyRHdaCCEkztNHnC9aeDuwq691LbYopMZ/Z5wBZCbC6qbkWBPRA4zzfJcBFwMXAH9c+fyVq3XXhRBC4jzVLecrgOe7hLduOWes2rG4tG2kQPtc6hao+HtB/bMKVn6a5Pgh4HLgtxguXHnIyifUA4QQYnzQVqrxneo8VnjMZsW21C1dP4bR/dFjmnJZj2vbFM8r+3SyRt0QdddkIHmsAzgeOB5Ldd6V864GLsDwk5WHrHxcnUEIIcZORU0wrjzu3e6U3YMc9l343N0WfwBY/XeLX5Bd1rdjYmBGze5Y30oFwyEYvmSx9/dc1fPTnr/3HKjuIIQQEuepwGMNYc2JpLEmK3Q2J6jW8RwlFnZe/I1H/NN/V0s+A4/VbkqE2jaiw9swvB64pufvPdf0XN3z+p6re+aqawghhMR58sTZui1kiw0Lomvt2JNxzGvV2uzjxpriMZWAkKc+uxEMZnMTCfyWvrEmm/gEDsTyUyz391zd85meq3u2VhcRQgiJ88bF8rizqEXdEi3b55y2dG3gOZ+FnRJca6w/9ad1n2PDAi6Y/YRd3KFJRHJOWwAfB+7t+UfPL3r+0XOIOosQQsTZa2IDWXjhwoOBqxrTHuuwREOinBdgV47tiD3O6b+dqUN9VrorcUla9CN6kKtAh2eScSMVvgn8fNVzVw2r9wghhCznieJxr6WZdxFTYoW6kon43N0e0Wxs3ypbL069d8EVnre4Q4JtPGvVONvj2Vh+iOXBnmt6PtO9qLtH3UcIISTOE8FjvqAvY03WtR2x/lwX5oZAN1lPqmEB24jJQJnIEhb4xjax0DW5o9U3JXF539m9qPvt3Yu6W9SNhBCzHbm1x5mFFy5chaE737pOt3ZoS1MqQ1hD/JrJzY1jn7NxWLLGL6CFzzSBXjOWtKG5NqgdeyvwwYEDB36v3iSEkOUsxmu6c3tGeFJWrNM17LJg0y7mMsvZY/nW144zopwOBjP+97JY92f6orbTa9t29Ly9wmyzE4RGVrLkuD2Ai7uv7b6s+9rufdShhBASZ7HhWJa4BCxYmSovYDHJRPLWZ1pAU4lEMpMCUzIpqD3nzUzmOy43CfFaz573KUxCksePxnJD97XdP+y+tltbsIQQEmexQSz1CpIpsXjTIprehmWNV0idFmntd2+kdihDmR0NJPNu/8oflxL0QtpP47i+dHsYQmJewfJG4J/d13V/uvu67i51LyGExFmMhSUFqzmU49qUW6bpteeM8PkmAClRzIilS+Ad59rIr+3bJ+15n8y6ussDEAiWK7mWLuATwJ3d13W/ufv6bvVbIYTEWTSBYWleeBvbk2KjrR3iW9hS5RI+67BQ8ViuaQG0DivdZ2Ebvxcgk5ObgMXt+NzCRMA6r3UrDN/HcmP39d0HqLMJIWaulIhxZ+FFC/sxzMuLbDB62nNHMmUjQ2vOHkvc6doO/U4qSruZ8pTWc30ln+VNtOL77NHH1gOfAj43sP9AVb1OCCHLWZSxNDqy2udmtqOWbCZy2mUVO6zYwr5jXy5txzk0gshcIulya6cs50LSE1NiveOw2l2fXfQKtAL/Dfy5+/rup6vLCSEkziKMLQaF2WwVjHLRNk1Y2/gt2kw1rMgSkJmiF5CtZFUJH5eZSDRTDpNCtHZWoP1W+2HAzV03dJ2kjieEkDiLEEvyItKwKEv2GOd/N9Zk14F9Qpz/PJsK6rLxAlkX9Iaou6xgj1hmArtM2MoOTkzAX+TDOI9fAPy864aun3Td2KU0oEIIibNwCstSrwsZj+AYv2h5txqF6jaXUcVfdjL/e0yt6bSl7ps85K3i1FYqZ0BYTOnMzMebfwdu6rqx6yB1QiGExFkULeeQW7dMvGKEMP0a144nX/RzXhw95+EsG5n+PI9gO933xmG1p70DVZP1EIS8AuVLADsCf+u6setTXTd2KU+3EGKa2nhiQlj4u4VPYtnUG8EMxT3Bnr8LEdu+18bk1o48j8y6c0zUNWAr1l+HOmJyEjzf+lTSEcXtnEgkr/k78PrBfQfvUY8UQshyFklQmMlGMHv3AXvc0+mc087SkeMxxcqvDfv+LnObm8QCzri2m1hbL/UweNbrG2Ux3Rb2wcBNXTd1vVodUgghcRaQ205VD9DyimvebVsXOyIqPXn1zWSLX+ARy9xWqdL9yj4Xc37NuRkrmlwgmq9AR86lnmlX90RgHvCLrpu7PqAuKYSQOIslGSsYR5WoMgvSFQUdEKr8sZYmyje6RN2XF9v636cRIV4WzOWxxDPR5TFbsczoOQe8EAbLl7pu7jqz66YuLeUIISTOs95yTolHIZkIRFnE3uxgeISP7KQg+NqQ6zki2Yn3emyEdV9WA9o3Kcg930iPmhf94jm9B8PPu27umqvuKYSQOM9Obklbkw0L2EYIq+9vU2Jp5wTdu/ZbkoPbGlusLhWyXl3n2MREwlky0jT33rbiqcBVPOY1GC7pWtw1T11UCCFxnmU8dfxTTwG3pWsrZyxgE2mVkktrGZvvOi12rjSeZZnG0q8t2w8dKIbh9QoYRjOPUWK9l9SftsY21ucjt58dCfyt6+Yu1YkWQkicZx2GP+VLNzqFNlzgIWwF+z7avU59HZZHGp9ddb+fcW98Dgupbz3ad6xD8J37nE35Z2fyecevKO8N/L1rcddu6qhCCInz7OJPecHLVF7KC5tHtLxWcN4itVlxdERq7wZ8EsPtzoISLre5HeOVR9Spzl9foSoV4UmL08pu5nwM21tjr+q8pfNgdVUhhMR59vAXoJqs4NrR4KVQju2yOsdllqgJWLPQDXwL+AZwZaEgRnp/dagiVZn4+QTThK8141Uos9IDmcKC7ZNbbzfWLDTWXN55S+fL1V2FEBLnWcBTxz31FHBT3YJtRGzbgEhViUr4UZrgw2elw1ws38LyWyznuSzYRuBaKIXmWDYkWb8F7N0uFjkZyLRrJcIrkc3p3QH8uvOWzrer1wohJM6zgz95BdQGRMtX6cmUWKYut3ZR0CoYvoThDuBrURnHynKC20BUuvVbwJkoa5dIG4dnICTMOde+87zT9adH06K2AN/tXNL57+qyQgiJ82wRZzPG/cpNWpBpQSoEoRWP+SiGDuADgG1k+KoHWfn2Mqddy7mymAYzmpfbJZCeSPS6FVtasMO63yMwEQm2s8WmJxMG+EHnks5j1W2FEBLnmc3fgHVO0Y0sKFEqzC4BdFWKcov+24GDgDdgWQOJNZvJaBaTjGSs1xA76cBzrflr9E1wHGvimSj40YnHHOC8ziWd+6vrCiEkzjOUp457agC41hkIFhNljGP7FQFrMiXYBk+e66IL+FXAm4BXYVheD1yrB7F5JxGmaIU2jvG53U3xXDMi6ZlgxGQa80548tdsRtvHVlLpRkevqRu4uHNJ547qwUIIifPM5U8NkfWVeLRe4RwVL9cxgWIUDbe2P4l2miOBz2B5pbHmvsZasGu/sTdltynuOfZZ2aY4+Qi43/2i7bPefa/LbTkrFOoY/bkF8MfOJZ1PU/cVQkicZ7A4Z9ZTbcAKdTxWus85mJ7ahq3O0af3A74PnGysuckr5oF9yI01XJdVn6ZKoTRmlGUcosyV7bCwC9Hz2XX0nYCLO5d2dqkLCyEkzjMMi/27xQ57RTRQCMO5LhohygVBDu2pzj63E3Cexb4TuNR5jiWfWciRbTw9r/b59YjpYDCY6/1q526NY33clN6U7L7zvDCPfvYBwLmdSztb1ZOFEBLnGcTy45avMZirMkKQz1vt8zxb4y4IESoCkRarkCXqnxBsZTC/A74I/Ljgjg6UbYz63JyIFtacfa56xzp0JnAtP5EIFRPx1ND21JF+cc2jIIQQEucZZT0b697vXJZwJGT5eUTaW/3KOj7Pk1vbYufXBPq3VDgjaLHHZjRzbcGyjgmIr9CGwZ1VLLb9TMnj+YlH9vWndN7a+Vn1ZCGExHlm8aeCILgsNp8A+qy/EhHKuMQjgrpyE4p2LOdhuRfDW7GsD22dymzZ8p2ncVio1hEUFiqk4UhCknHjG7eQu67bYv0Wd3GS8JHOpZ2nqSsLISTOMwRjzbUW2x+0PD0BTN7UlhZ/xjFyFqlLIIMe6IZF2gL8AFgAvAIY8gle/ZhGxHakxd/YzuSyvCNKUTaSkOSFPx/NHlsT2wQ8BIZvdN7aeZR6tBBiQjVDTbDx2OTiTX4EnFoQioAFXF+PdWYX861ZG4d16ItcdlihAVH/BEkxj4uA+c5jcayR24D17IpIzx+bzpVdcV+H8xopsbpNdruZdyJTfK+HrbF7D+0+tEy9eoYPkGtNF7AVhq2wLMDUQhlNZopbwWAstv73OgxPAI8Bj1FhhVpSSJynsjj/bpOjMVzmbfkS123Iui5Yo3WhxFFhKiKbV6F846hA/g+Gc4FLMGxRmEykRTI/cfAItXOd2nfOZedb9lqPOHuPcZxH7bMuGNp96JXq1dObynClQrJDYS9r7J7Gml2tsVtj2ArYCkuP18tkApPK7O/bYXhQrS0kzlPXcq4AD9Zm4n5LNsaidAlg6vfgVqq04AZcv4Uc2aPHnwl8l2Sr1TMa51mx2XPyTQQ8EereQa6kMEc6SUv0ZCT1mswe8orH0nd/du/qPVafpZ49TYR4daUDw0HAvsBewF4Y9iCpSuaf5Pn+ruS8U/7jnoHhPt0BIXGe2gL9VeC9YxZn3ww+xj1t4wUvaNEmP78DfA64BHhWwWJvZpDzWSCea/O1Q8G7EBGdXXCHN3FfgNXW2P2Hdh+6XT17CorxYKUC7IfhGOBoDIcAba5+no7rsBUblzM+18+cQYkJz8Rwt+6IaAYlVtj4nAO817u/udltVa7gpUpOKGNct4XT8FjBo699B9BOkvbzIgzPrQtd0IogUph9aUp9Ewk8W7jKXPiuQLGIWtm1c+4Eft5xW8dzh3YfWquuPfm0DLTsABxjscdgOBLLpoX+EKhHnskY5/puVjx9wZ+Zp16OVIjmJpdqgo3L8pcuvx7DHRkx8GUIy+/npcSqS/3eKMXYjFC6Zv2uAWo0KvxNwJnAsVguz5yrjZhImMD12RLLGc+1p9/beF6XOxeDcZ+jCd+X2jnvC/yPevYkCvKqls1aVrW8u2Wg5UaLvRs4C8OJBWG27u9Numyp97vmm8j5LObsayXOQuI8LbCc48y65RgMMluMyiot5SwAM5q6yz8BcGXJIiK5x+hzryPJnvVKgzmvEFnuy1sdY1Fbz+TFOqwd12cFjkm/r9fqDiRyyaUbfV/HbR3HqGNvVEFubVnVcnzLqpbzMTyM4Wu1iVL5hDPWS2VLvm/16mbpeuLWYaVLnIXEedrwsygRSM/iTZxQRQ0y6ceqRXG3RBSiyA52J9au6RTge17hd4m0r/hFrHu/tq86004lW8ucngcIJ3jxZHSrfa4Bzu64vWMzde0JFuWVLc9qWdXyZSwPAhcCr6zV4C56QdzeHq/nJWNBm4j+Unu/TBIc9+4CibOQOE8Hlr90+V3AP1wDRP7L3whW8bl5PfmgC5avz6VcKT6X2YLlE/uieB6P5TfAe4w1XyhYGDgsClsinL7qVyYr6s4sX77JQK49MoN5JWJCwqi1lJtUbIXlh+rdEyDI/S2mpb/lpJb+lkXAEizvz2zjC5UWNQHLmYg+GJrs2ujnJM5C4jxtMCnXduzAULa9J5/j2gTWcgOfa7Hxg1H22BcCF1vsGcCHgnnD86WbQ2vOrmtMud/r0eGZetJl6UrzLm1LpozlGDm+4/aOd6hzj5Mor2gxLStaTgAWAz8nqRAW71kxhMqBFvpaZs252e9meBIrcRYS52mD5ZcY1ju3OKWsP2dRCAIWZeYjrD8K2uKtylS3JjOu4vRnGEIR30dguBQ4C8tbMIzEWB/BaO2IQbAu0AUrOrT1zHiuLeRxwHO+o6/9cscdHbuqg28YrStaj8dwPYZfA3sGJ2r5e+PaHudbCnJ4okrrizv6hgl3WImzkDhPF5a/dPkTWC4rCEiohGSZO80R3V0IVMEhQrkJQaMuM9YdZGUDlkLy2QcDl2M4H8ursazxDpQx+cNjBLvMTe463jqsJOsRZFu09J1lLi0dWM5UDx+jKC9vPbZlRcs1wIXGmmcH+3+o+EqMpyk3OSwsH5VbxKMT6HrpUnf/ljgLifO0wtQCw0oqJxWEK3KNrD5oFETReizv5iz/4t/ZPcsHAH8G/obhpcBA5nW+iGscEwcT5zVIFetwTwTyEwwTyIJW0ra5aO385ODFHXd0vEgdvAlRfqr1yNblrVdiuMRgDmzkPHdPgLz9OVN0xYYt7PS9NNWS5R/jt7YbOyrqk1mldhIS52nPBcBq33pqQbjK9u7mhCmYHcwXcIVn329klq8c+5AUylgKvABY5hvgfEIf9BRk/nREzPrEPXXtmcHfQuw6eaHEZfFavtJxR4eS/JSL8uatT7Wej+FPWA5J98HCBCg9aoVSwJYJa+65RurXkDs74DEylMZ1PK47LSTO04jlL1k+APw6Y3U59iRnahzbuNl9w83msiDKArxs6Rpa3Jau5LE9sPwJuBd4PqQKAJQlWYlZJzSO8w0Fg+Xb15RMDDznU0iPWrz+PYC3q5cHhflEDEsxvLIQxR8SxEBGt7rQNuXxscUUnsE+l/egYLN7nYsT2od1t4XEefrxlcwXOScaGevBRFqsJufSJsrKHbU8TC6K2TVQUbTEM67I7Ot3By4nKaF3CPDP/ADo3OcckzQi754uS8OZa4fCunqkSzKYsW100P90xx0dC9TFc6K8rHXT1mWtvwDOxbKZTwSda7iRrmqn0Lq+O6lEIk1NRlNWc32S5tnl0I9hte66kDhPP+v5ZuCP0SJgA4NGKqCrqSISuc/LWN0lW7bSf9ePLSRxSJ7fm6SKVX/Ngr4x5Fp3TVQKKU9zg2Rw7d6UvH9EkgrnRCYs/psCn1Avzwjz8cAS4DX5TFtRZVINpUljCjscfAIdCPbzVjIrm+wWXyOrWUicpzFfdH7ZLcWgI9+gYZqw6iKtaBN+Mjx4Weeguz/wB5J19iOAKyCpAhSM1g4kEamLZ8bS9yU/yQuyy8p2RbEHBueItj69446OnWe9KD/ZOr91WeuPSbJ6bZlp35BIUi6mBS8MNmqrYcbzkvqeFSYFtjmrPccjGt6ExHn6Ws9/Aq4rFSQ8YuJ4LJPS0jWgBKzMeoYw51aqwB7TQi1l92B6EPA7LOuAY4GL0pZOITrXlA/ImTziIQs/PempXVtmT3dZhSobsJ6N9/7MAb48y63lYzEsIUnv6p/M5LwUwZrkrklh3h3u8or4XOg2YiLqSQ0bXD6yspyFxHlmWs8e68BpCfoKRaQHl6pjkCmzTHFYkq49w768xsXB7XDgtzX9PwH4aUHsQoRc7WXCnJq81AUgU3+6ieIIhcmP9XoQXtbxz46jZqG1bOY8OeeLWC7Bsm2MIKeF2dufKPlu4NmCVfI98fY96znOF4yY/W5KnIXEeZrza+CumHXhKFH1CbrLEnTs2YyKmHV8biFq1fV5VQCOwXBezUw/xVjz9VLrxXMeTg9BqHAF2UlGwSVecq2ZSmHxVv6ZHf/smDXJKOY8OWcu8DMsHwxOrmzAe5OPoC6Ztzld065dBTHfMV8fNI6JangiKHEWEufpzPIXL68CX/Fav1Bu2Rn/YFUmyulBMWN5+JKAeJeIrVvg3ZOL44CfY6iseu6q91hjPxEUVE8gUCGiPX+OoS1VeLKoWc+ATGDblw1OKvYC3jwrhPmJOQuw/BE4qREcWJYEx9OnvIFd+PtuZr97KDdAoFSrtz/EnHf2NVpzFhLnGcCPqCcsyK2HRe3fzBeFoMTqCJSgdOa6jrA2MnuyQ4PX6Nu/CvhJzzU9lYEDB84ATgNs0BItK5oRsnjyg6r1ZHYKra271sdDE6jRv89ov7N93gwX5m2BvwFHFCY+MRXIjMeD4xPbMo+Hz3IOWeKumI+AADe2EGJcEzNZzkLiPAOs52Hgmy7rwZvsIrRnOb8lqtk60KEB0GOF2or1W9yeNWtr7MnA93qu6TEDBw58B3hdLWAs7ryace3HinfgveqpHgvWuk/QR9tuc2PN6TNWmB+fsxdJKdQ9G5MX60kMEgi0a0yWbJP3MN3nQ/vyS96zMMH0TRIc37fCdj/DfRrZhMR5ZvBt6nmoU1azt0IUYWvPWQggVF0qNAjGRI/b3OBW5jqksS/1TdbYbwEMHDjwcwwvxzJUdn3Zp0sGVcd5NwbysrXq0CAfszd69JjT2+9snzsDhfnImsW8TbqPNZJzxPap2j3JlP8s65uu6lC+bXQm3A8bk66y70W6YAam2PeSPx/B8ICGNCFxnhnW83Lg+3nLOVp0UoNDRtDTr6/iGkj8Yud5/4LVUCZcLlehzQyM7+he1P1VgIEDBv6A4RhghSuIy+UhsM26A1wTnbKqW6l0j0Fr3j+h2Qo4aYYJ88nAJcD8aM9MSYUzZ15tQ9TWttKIf1+pyVDZUtdWuZToeybB12hEExLnmYThq8D60sElZEXYknW7CNHyFhFwWIaNzGK2RCTzQUHFc3lv96Luz9YE+irgcCyPBk/X95kRGcIKg2qZizuV7rGwXSefAMWzXchY894ZI8yPzfkw8L/A3NKqXjYwOcp5e0zVxAXe+Uql+rZSuSZlruQntmRimRo9nalnk59XazATEueZZD2/aPkDwM/TX/zSyOvU70GLI6b4RUjUjMcCzm9LClkeHkspNaB+pPva7o/XBHoxcChwT2jgd64TQlxQWX0grhJ2UeesZq+lld4y5s6Vvm/7ne1HzgBh/ijw+cbV5ZcHrCc/tkuYHek3PbmqSydS3vSdPqs558GJcmvX7m9hkpa9tn9oNBMS55nHGcDaUgvUMSg0rAcCghUKkonZA5pLxFBfa/ZErEa55HOpSj/TfW33B2oCfRdwCIYlBQEwngmJy1rzZ/EKWtfeiQBhz4XrfVLHvm9aC/Pjc14LnOGdvJFbby5Jn1loY4x7WSV2f7ItsZrz/cPkhDnmOxM+l/XYVNY/ISTOM8Z6vhP4em5AL965kmjtIKGiE75BzlETufB5xiHgPquJgmil+VL3td2nAww8Z+ARqhwGKVdhIB2jd+B3bTcrS9MZs/+2LJdzbhJhrHlp+53tu0xTi/lQLD8CjNf9m56sld1/z75jbyBZ5CQqilACHl/fifvOLKaialRC4jxjrWdjzaOZLTvWbbXmLRbvoJF/j9jBy1Vz2mHtlOZDjmX0uG90X9v9lpoFvRzDMRgudU5CbHjy4Ho8s/2liXMurT/t8jIw6ga1yRtMu7XnOY/N2RnLBUCbc209N4EJxgJYTx/zTXBiRRaLdwIX8OA4t3yVTQ6Md3lDLm0hcZ7B1vMq4L+8lmBeLNO1actyc4fK9FlnTebR3Ny+bE7YuGCz3ADpjLAdHVQNcFb3dd2vBxjYf2AQOB741ehbmqIbNGZrFPj3xMZ4EwhYy4F2Tl3rG9rvbN902gjzo3M2BX4PbOrNnlWMwC+mWDXEJfqIvQf5iakhbutWzHYpE55sBSa4EmchcZ7hnG2sWZQZTELuttTvzvXfEpGpC3uh0lPEYFcXumA+ZEfVp3RQjacEYwXLD7uv6z6mJtBrgdcCP6hPChpVtEyE1VMvE1j7Z2JUISJ1aUzijNwkpBND7zQR5jaSYiU7FbwSgbXYQkrN/KSSJj05rr7sKngRc49sibfJFbTmuNZGyttsjIfEWWwQRk0w9VnwxwXPBa4uqIgJTLmsJ8K7LACsJlrGmmy2L0u4vrFxVHhyfV7gPUqPg5XA8weeM7AYoPv6bgN81xr79tJzDCVsMYHI68C2qmC5yBILLXXsI1ieMbzz8NopLMwG+Bnp/dkmrq28fTBkNdfTqlZK9h0H3iMzUTMR/a/s88BbptUh7E/QwuYauYQs5xnOimNXXIPhp1HpDCuE1z7z24U8Be9txYbLU+b/tsQlArHERru6Bsl5GH7ffV33tjUL2gL/YTDfdlq2ptyqtRXbXPIS4xiQ83EANGEFWrbCTPmkJGcYa05yilQo4K5saSVwr5177EPu5Pwkz0T1p8xjzmIvrslcPqiwuJXqAo1aQuI8W7D8JzBQOrBVU3/mtzaF1thcxSSMW5icbklTev7+IC3f610DsWUbDBd3X989ry7QA/sNnE4tst07+IcG5DEEhHkG5ShhzuzpTn5M2cCwuY/MfSPwUWefKavQlK765UrS4hLCfKUwAp4XfBA06QAAIABJREFUl/VrIgISy/b2h4poRHieqOUoEELiPDus50cwfDbWyqwHWWUimWOEJx11XZbKMj9gxvQ0j3UZtU95lL2xnNd9fXdr/YHB/QbfA3w1mOXLeAW/uYE60rr2XUMmSUbSxvu2/6v9+VNQmI8CzvJOQkICbUfjFgp7nV3rvvkgQXKVv0zx/V0enULsgiWuX5nI++oW4/RE7WHgrxqxhMR5dlnPZ2K4yyuU+S07Pqu5rKZtupKQKRGfkICZSMsjZIX6t9kcA/y/9CGD+w2+H/hiqBRmqIZ1qD1c51u619kz8Bcs5+TX104xYd4EOAeYE5Wv2tG3MsscZRasb+3Yt/c4UE88k87VeCYQlfC9jQ5Qs4VqVL+ikvZfCSFxng3W8xpsKrOUKRnY6pHIocjaZqxGT1R4wfJOWy12jBfr25+cHZTf2H199yczAv3swQ9j+J9S0TQlVnuJxRQtVjHZ0BJe1f6v9pYp1N3OBLZIC1ZmCaDMIk2n7/T1Bd/+6NQLvdnYfBnY0hMC14TQus/TeW9M/H1NnbNc2kLiPEsF+kLIJuFwDXaN/M9pl6LbAnULhyviOBShazwWZaiyT4wg5gfQYqKRT3Vf331KTqA/CnwmMxh7BtdMFqqQu9NRYMFZ/KLEai6Izuh7bo7hiClhNT8891jglLyXoHBfXR4Gn/CZyL6QS91Z+MwIa7sxIa0QN0lsNoWtLX5e7X7eRQuLNEoJifPs5d3AcGg92JmQPzZTUn7NuYk0n4W16iYL1keLdfozjf1e1w1dR+cE+pPAJ5xrv45JR8OVWZLuM5M3utnyhGXWmeU1U0CYu4Gz8ucezCeeb5/6Vr783mYCfcGx5mwwQVH0lYwsWM2Rfa0p17372F9oaBIS59lsPb9wxe3Ah8oGj8baZkigHIJUX0NzFs6IqfIUayWnqjzlqlJFJfRITUTmAL/uvqF7r5xAnwF8pHCdqYlEKp1meaBQWS7wyHXRQJKWE9rvam+d1M5l+DywfX4Pb6Z9QtHOrgpPIUvU4E5MU9sv7wwIIyC6NreVqsxitlH3pdS6rn1X5NIWEmcJ9IpvAhdnBhLHXt/CflGfOzK0hzk9kHkGLU+xebdQ26LVGrTMXFtwioI3z2J/33Vj1zYZgd538HONiUzefZr6zEy6Ul8wmXVMfGKsZhttoW2K5ahJtJoPxfIO10TCWIOp5oLYytJvmkBltGZEMNQnrHvSmRH1shKolEy6fNHh2aIvS2hhqUYmIXEWAG8EHnXmx87O6MPrbrk9y/U1v6BbMveehUAcKI9eLhMt4+ipjsE8ZSlti+X3XTd2zcsJ9JeA9zkzVNVcqBkLL2IrVrBmcImFFrTMzeS4tuc+NLedJB2qidqzHtrrnJ+0GcpLN3rayRmt7csLz+iEKXOcL2LbRk6cbMAbNDoZ+LGGIyFxFnXr+QngVMCmrZm6FVjYymIClvFYRKaw+8mUDqBNW0h1qp7jatebEoG9gfO6buxqzQn0mVjelR6wncLh8w7EtFdJRiyn+744YXll+13tcyehO30K2CXvIchcRsWWC5YJiGHZRC0faOXa0uTKcpez0oOxFrH9zxXMZj0eI8tTmNo6vRASZwGw4pgVfwS+5hpcgpavLyGHSVmSMXucCVhQoe0zud+j3MRlA+3oc4U90DWB/iZwmlcqTLmFFDWYe84xs77taqdEnBbUzn9jWs37YXi/y4tSar02e4/yrwmUjcxsBQz1v7FWoCJgNVvCSzzpCanha7bFDmg0EhJnkR+E/hO4yTVwOCNe88E7pmiJlg6uYwkA85xHXZgjCl9438vhi31j101dnywI9D6D38HSC9hGkY5QZLnxD+SFACIT52HIWHfuwLyN5tqe+9DcVuCHQGthQlW2r7skaK8hrq6JWsijkppYBt3MZbWZqxHeG1MSpR1azkmWRPot9hsahITEWRSt56NXrMVyMrA6Lw6FDE0RATgNwbKegTgQrVuwdMqsTQiXiywTZpNyFxdf+Kmum7pOcVjQ/w/LW7BUC5nU8haapw2C0drWb0lnop/Tr61kXv/y9rva2zZS9/kwsE/IMg26iQOTqNxyQ1NekUaF7tBE0bHcUPf6eKPLHfez0f+qxu9F8a95f5sW+jUKCYmzcAv0MStug1r2sLwwp4WlzCVoIlJpegQ6qrqTY6AMWkc+az8nHqZq3JWM4HtdN3Ud5bCgf2iNfRPkUi2a8LmWWpOm3GJ2Vj/KWt7zgBdNuNX84NzdsHzcGZEfynvebLyAbfK1Nieyoc817smjNzlMIDivUCK17HNg0FhzpkYfIXEWZRb0WcAFmS1KGH8VIN/acUjADd4gHkNgn6jPlW49WcUiXMNOa78ornOA87tu6torf8zqvVefbbFvsNiRUsGIWXP2vdZQXgmp+H4T79o2fB5DW1lsgNd6NcRn3gq1oSOLmNObUZYdLBUUlukPkdu1GhOnmO9A8vdZttU+qZFHTMzXU8woFly2YFMMN1tjt2kMVNi4rSwpoSukTyzZz5rZAxxyZZZ8btDaCUwqGhWQjPWJ5YMYnje4z+BD+WO7FnedZI39X6Cl2XYKvtazDzizxu6/tgEMTxvecXh4gqzmAzFcE3OtpdcZec2lo09K8AuR4SZwTOicy4LCHEGJmWN9n20YBna0rfYRjTpClrMot56PWbHMGvvv1N21vqjYEqsus/c3bSWHrGKfK3osxAYQQX5bi89a2xa4qOvmro784YN7D/6CpCrU+qiSkpRYgEQKc/p1xevrxnLQBHaV/46dsheSxHjKfjqzzdXLlsbmUrcez4yJt9y9yys23C+dGc38OxN+IGEWEmfRFP1H9f/ZYN6VsZhDVajyxSt8WZ3KBNJ4imaMVaRN3PGZLTch9zI8G/iu6z1W77X6XCyva0xqwu8zpvXmtAB401Jmfz98gqzmw2slN0snGd51X59oOjJ1GYxbWD33OZ1MpNA+/gIoTfVT1zkHS4Bmr3sQy+c10giJs2jegj5qxbcN5iulQVqmxNprVlitI3WiKbeOo12njvPP1O8N1Y1Onjul6+au/3AK9N6rfwW8NVuzEH9aT5pvq0z2tnTKUPdk6bAJ6h6fDXomTNFqduYej9hzXqiK5hJWW5wcRvVbz9JJMEe7Z329PmFq5KIPZz77hJ1jH9QoIyYSrTnPYBZcvsBg+JXFnui824F14UKu7LK1xfyxxvNax9/Bfc55C82zrlnYMubr4cl7rQUOH9x78B+uduu8pfPdGL4WshKd65Ohz3SJdPla+hCGBcM7Dq8dR6v5JcDF3nvoq7EcUwbU83zh3hi/18ZVj9w5cYuMQyhdo7b419fd13YdhufZ1pIgQiFkOQuv9Xz0Cmux/w783Rv97Ft/w1HkwGdhp15nsX5LEMLJOmKmjyFhDk08sn/PxXJe1+KuzZ0W9F6rvw58ImiF48goRbhNnZY8weM6gAPHuVt8JngPIzwVwXN23Jtg5HVMFL7PMnf0o2DyEjx9KbSlL8t64K0SZiFxFhtM/1H9w8DLgDudubVjfCmxNZ19Yu57/3p5QF9CDxsnbM5Sf+XHbgP8onNxZ4tToPdcfQbwJd/xpecc2JddGpWeZdzWnec+OPcFwP5ekSO67cJinbs3BQs23TbV4vG29i/YVz0TvkJ+7ZiEKSa6lvNX7Rx7k0YVIXEW4yXQy7C8GHgiI6Ch8pHWsW/ZlFs/jUGxUjKYUmK1lOVudg3coQAld+TvkbX6xXgE+kOQKmiQeg/v+YZqZ+fbyJRMgsz4ijOW9zZlueZE1il4oQkanmxzJVZ6OiAxU4889Nkpy7mw08A3ufBdH86+dRdJcRAhJM5iXAX6LuBlWIaClmlqUC0E89iwQDoLbYREtCy5R3yZxZAAZ4+pFq7jA12Lu04MnMU7gHPS75MJHqLEuvOk8CxUXPJHLx/cfnd76wZbzQ/M3cVgXur5jKBwZiK2XZM6T1GVjEu7meDC1D30xiF4JmXefPIRkwrvNSbn3mvn2iGNJELiLMZfoF/Q/w/gdViqPgFz1jaOsLKCe0tDj5e5p0us0PrnNvIwh7JxOQSwFhn8o85bOnf3WM9VLKcCFzQOrZqsyPomDvgnIYFkKfn36sLWXNEbgMG8x6ZPNuB2997KtBVc9UyQUq7qehR9wVNQds3GY8n6Jhb59eb8Z4YC2FwpP4sR3mfbufZyjSBC4iwmUqB/0ygP6BiUM/tSY1Mzkkqb2MzeK1dmMluSttFVfaj2uY2sUj6L1OJzr3cD53fe0tnjEej1GE4CLoPR7FWl5+q4zoh6ztn3Ss55g1zbbQ+0LQROKf083ILtnICErGeTFVnn/mHruCemZMJnc5Od3BJC2mIulLks6YOZjGTZNngcat8XISTOYkIF+sj+r5GuAW0jLAvKLejoNUnH4NgQ2dhCB7lBOFOaMOI4bGEA3w3o853m6j1WrwFeAVzlPVdLaUCcMz1kqG2T12zouvPbLLbTKZCx+dVd12nLPSPBQCuD3/WP9bdjhfJsbLF1uF0TkFHRXw+82s61yzRqCImz2DhY3gd8OzcYFUsiNlOw3nhKRm5oGs/AY2nLObO+WfY+ZjTZRcriOrnzls6TvQL9rNWrsbwUuLFgoUF5iUKfJRo4x9q39ND2u9tbxmg1z7HY071r/6HPDZ1jRIawets2Jk5lk7+0dyG9TOE730DAXcb740oJ6pioFaxty/vsXPtXDRZC4iw2nvX8gn7bf2T/6cDn04NdPRDMmcCBgLXUTNS1I+OWt2xkzGBeW2MMWluB68it/367c0nn0wMC3Q+8ELgtGMFcVqTDFRnsj5yfB+w7xlt9nMFs4/wMGzcKFNKNRgSDpb0Zzm1RJtKKbaLv1ftCIW4i/7me7Xy5de4f2Tb7TY0UQuIsJkekj+j/LwwfyVsdGWsnJCAxli4Byyw2R13JMdFrjOXlLxcAZ3cu6fR+N1bvsfpJ4Bhr7D3eLFTWY+WRcm1bvG5dh8iPzbVtOSUdS5BJGRrKt47jfJu51zZXncwX4Je/n1XHPXVNdjzb1grR2qHPdVjPtdctAv5Do4OQOIvJFujPAe9sDF3WU2YyZmCOWYt0RAp7g45syWOuY22JZZf6WY+8brjjk9cfAXwg1Gar91j9EHAU8HDUJKasdGJo+1fSZk3n2W57oO1pwEsaUfh1i7LiEa6Y+xuzrzyfI7ssS5zv/oYqhAX6mHdvdUStbWvso8AJdq5do5FBSJzFVBDobwFvBEYaQVahbUKhdd2yTGS+ZB2uAbNkrdBrYYUEJGspj1pN2fc/o3NJZ9CVPLT70D3A0cCTpQFULiu0TBCzbXDAGKzmk4E5jcmH+32jJmDRkellohp6j/zasC+hS0ylNfAvLfiLfqw11rzKzrUPaUQQEmcxlQT6bAyvMZi1yRjW/LYo73ohAbHNH2sjLXIT+Ny8BZZLfFJ3R3vX1mEucE7n0s6OEoG+DTgWS79TAMpSYcbWvTZs3X5P+/ymbqjhlKDFTmCC5BNvX2UqE5gMlQXoOSLHC+vyxv/a0s90TQAca9HGmtOr7dW/ayQQEmcx9QT68P5fAy8nqYjkt0g8LsOMBWpoqu6ZV0Dqn1eJsPhc+2cdlnIjUru2BuuZVOyB5Ytl5z20+9ANGF6KZXVBMMpyjVNyTdlgp91j27Ltvra9sDw7M8kKpGoNrgOTW9M3Hg9J0UUctpohmO7UmXHOdZ/z+bzz8RKmZLKR8I1qe/V7GgGExFlMZYG+xFjzImCVVzx8STOguI2lWUFqUrzq68WNdePQFiGbOw6KaSKzx53WubTzRaUCvdvQVRheAazxTWjSywWF6GefNZgxHs0eTbTXqZl7Esq2ZUqsTSI9GbmJUWZLU4xVS06UYyzwsvV6oq7pu8B79M0XEmcx9QX6iP4rjDVHAcsKFpPLXWwi01mGrO+QNVxWvhGHlWZKLDU8wpU9NwP8qPPWzs0iBPoy4CSS0oKF93ImL/GJh1v4osS57b62VuB19c/PBGaF2tZz36LqbOfF0jpycrvWoo17cteILI+4f954BFefLb7ld62xp1Xbq1bfeiFxFtPFgr4WeB6w2GuJmqLFHHRHxljLoaCuQP1pb2lC/FZ+o8BH/nXZc9gSy5dj2mxot6ELgFMbb1pl3LZ+WWyc5Zxsu9oi3z7edjV+C7ow4bIBy9nVdpby9WBHgJezslRoYpdyhTfuZ6V0UvddLKfZNithFhJnMb1YedjKfwEHAefEpHosRCJHRiQH3MpRWa2igtc852Iw5RMIwxs6l3YeEinQ52D4YOYbVhb57LvWbDvGurVf1lTb1J+uus+1NEGMdUzW0vWVI7KmRU3GTMTxZSU7bUqY4bRqhyxmMTUxagIRy7wr5p2O4avAHGcuY19kcMhyitn/az0DrylaTVEJToxnIuEb5EcfWwzst3qP1SMx7dVxR8e3gNMymlax4e1U/s8GsBbbs2aHNYOhz227v+1eYPugxY5fUF3nVbegnRXLjP/e1lN4eu+N514G+4RNWcWez/Yem/yUMAtZzmJGWdHfIknQ8bDPivJWXSqZGnrXqi1ul6u7ulTRustbdanjve5a/zacvYHTm2iyd2O4KP2+pXm1fUk9kmsxBrNbUJjva9sH2L5w/Tj3cmc/2zYhzDETIFtiuZuSY3yZ02IKW/iXUyTMQuIsZqBAP3/l3zHsB1yBd1y0YSswPxCbiPXFQGYo57pxXmg9BRZKE1oUB/jPdN7auVVMWw3tOjSC5bXA9U7rNXaLVXPrzi93JXBxRkCbJtvKJ+auc/Vtucq3tY1o+1CUdswxo5//NQmzkDiLmSvQh658jCR15Zn5tcRCJSFbLrZBq3m8CiV40n7mih24RSJ7DfMgLjisJtCDwHFY7nOeXxPbmGoW7B4lYv6yprwBEROCQhvFWqv5bVyutJyePfOFHNmh2IXyOtBrsby12ll9b7VTwiwkzmJmC/T6lYeufB+Gk4BB78BoSkTAOATAt00Hv2h5RSeU4tGV7cq3zp3l5M5bO49oQqAfxfASYEVhQhGZmSvlWvaKc9t9bdti2b90AlNS6tEV3ZzxMkTuXa+XfswU+ci/tlpy/dbhOSE4ecrf18cxvKDaWf2+vrVC4ixmk0j/EjgQuCOqLKCFqEAlnyVnAsLTzN7p1Bp5wc1sA+c7+ty3O27raI0W6F2GbgVOANaWXq/DOkwlWglZzi/zFtzIb2+zgUmML7CqLHd6wQFSsr+6ZPLW1Bq3u8/cgOE51c7qVfqmComzmI0CfSuwH/AVDCNRIuAQ2OB2Kp9YRkSCh6xFZ2nMkBt4dAKwB01mlRraZejP1ti3jCVgrrH3F7tD+z3tbZ4jjvdNfjJZ28q8GaFtX+kJjG/dt+wexVxv2bG+yO9RfoHh0Gpn9QF9Q8V0RFupxLgy76p5B1js94G9va7pki07zteW5Eeu58lulEQMlQc0ueMw5ZWtctZ2TbQGrLE7DO0+9GQzbdTxz46PA5+xFetfd/b8XbOA91mzw5rF6afa7mubQ+I273RtZ/Jdv3MJIWZrnIloY1/7utrVU5wkuO3M3Y+qwEdHukc+r2+jkOUsRN2KPmTltRieg+Fj5PNM4xaB+uBbEMjYqaP1ZAgLTUfrBTBcSTZK1q5TaTi7gXc320ZDuwydYY39ab2WdNBCz0Zq1y1gl2v7AKAz8z4mZzWHvBABD4czYM63Bux4T6dru8R6rx8T5U0Zfa9+i32ZhFlInIVwsOrgVetWHbzqs8C+WK4MCp9hTPuiMwN5eiuVJS7IKuSWLav/nLWeT++4raNnDM30Nmvs9U6r0yGwjeCqZCayo+P9jig8UqWYBS3WdVwW9FUilKUTrbzA5wTdmW7Ud47Je10C7Fntrl6sb6CQOAsRFunbgcOwnIatVbjyuUND4uDaWuV4nSEiLaYtEaPAfuy8NVkToAXAO5ptm+Gdh4eBV2J4wml1uiYwtvFzC6845xO2uALCQha05zwyW+RC+bJt8fWlFbFcW6EsFDwL7rKW/cBbRnpGXjzSPfKgvnVC4ixEnEDbVQev+g6GZ2G4ODPI5rJXOcsohgQkJRzOFJHNbp8KHRO2KN/bcXtH+xgE+gEs/4ZlvbfCU6qdUpHlGXGuVaE62DsZAfd+buN+rasuc6FONxHtEsoQFtjLXreaI5YbLsGy50jPyA/0TRMSZyHGItIHrXpg1fNWHQecjOUxl5Wa2a/sivi1JZa3afJvAiktfbjXYrfA8uaxtMvwzsN/xfB+Z+nGQhyWqQtX3nI+AOhynmc6+M2UpNEMBOo5rV9b4mkgUNvbRk4S3G3fD7x5pGfkxSPzZC0LibMQGy7Sz1v1cwzPBD6GZUU+i5RXBFw1nV1u0VBZQUfAlWlmw4L1TCaS9/tgM/ueMwK90/A3gLN9VZ7qlmujHGLerW1T6835dqr9npmE2Oau0xkQFgrYi5kQ+D7TNfnJvsUfgD1H5o38UN8mIXEWYnwFenDV81Z9FtgRw+exrC5sm3EN2IEUjo2I4LIsVjmBTkVAl1rK6ePr55kSkO0xnLwBzdKL5bqCi92m0ozWnjCYLXLneHjpefueK3Pj40jUkp8EeKzmTJR2bPR9yhWeq4D1MJZTR+aPvETWspgNaJ+zmHR6runZEviYNfatwNyYEobOcpEQTkKSs/gaa9Qx6ULLShomj98GPGtot6Ex5W9u/1f7dhiuw7K5c3+3baTRtFjmrtlhzfq2e9taMSwHuoPX6pr8BK4tWH4xdC/yEe2uWAAcgu0qAZp8bj/wReBrI/NHVuvbImQ5C7GxLOnnrnp01XNXnQ7sCpyNZST64JDr2hdQlt6uk39NKFtYbl924XMtu5MUBBkTwzsNP4Dl1RjW+yz92mMGw+a1x/bEpoS5+NrGz2hhDnkeCFjLjjXy0vdzuLNrE621WL4GPHNk/sj/SJiFxFmISWLgwIF7Bw4cOBXYC8OvG0N3SWBXdL3gsoCkMvGoCbypmtBa6ss3pA2Gdxr+K/BRl2WZ8w5sUXt8v7L81KWBYCXPeVN4NjNxMpH3xWAN5hyL3XVkwch7R+aPLNM3Q0ichZgaIn3bwAEDJ2I5ALgQS9UnrHXXqVNcIgTYYPyC5dkPbSvWHcCW/Hr8ODTBlzH8pXCu9b3DiZW+Re0z9wsJrsH4K2D5vAah4iL5kSOwZ72RHMaXAKb4eZdi2W/9gvWvH1kwcq++CWI2ozVnMeXpvrb7GUAvhjcDm2Wsytz2qowYROT1dpYzbGJN1XPMvkO7Dd28Idfcflf7dsBiDAs813fqmmesObvtvrargIODiUF85+va451be8+sVYdiAcqqWvnuRRKR9wfgK+sXrv/TJHSvnYC9gR1r/7uAe4G7gbuAf0BqmUEIibMQOZG+rrsNw6uB04DnZkQ2HxDWRDWjTHGGiO1BBaErvu8nhnYdOmNDr7f97vbXAj/Lv39NoD8MfBnLSgxdpRZ/vo3Kgu7GEhAWaF/HcQMYfozhm+s3Wf/PjdyVOoATgbcBh5a89hHgB7X/suaFxFmIoFBf371/TaRPwtCRimSOFpJMNLFL2NOu11SlK2fkc/ZzrhvabeiA8bjO9rvazwFOduwZ/iqG75FEiAcFMlgZCkqrUmVEOrZcp2/SBPdg+CaWH67fdH3/JHSd1wHfBDbJPf4UcA8wCDwD2Jbssp8FfgK8E2qpaIWQOAvhFemFGN6Epdca+8woq84hPhn3dqRl6BTnUVfttkO7Dj08DtbzfOBmYPucNXoOht8D5wS3g+UjzEtc367XNGU514+pFLZR/Rn4OnDR+k3XVyehq3QB3wJOTT32D+D/ARcAy3Ovn1vzzrwVeDVQr6F9J/Aa4EZ9+4TEWYgykb6h21jsscBrqXA8lk2CLmqfMJcIsjcFaFGweod2HTprXKznu9sPA/6MGbXkrLGX1UT7A17B9K0dN3GN6ZznXsvZekX+UYs9D/je+s3WL57E7rEF8Bdgt9rfi4E3AjdEHr8Q+EzNUwOwFng9cK6+eULiLESsiXRjVyuGI4ETgFcAW4YsxYxVaYl2jQf3DcOvh3YbOnG8rqn97vbPW2M/nDrHxcCTwAua9hCErOZYD4GluNcjee4JDL/G8kvginVPW1ed5O7QAlzaaCf4LvB+YGgM7/VK4IcklchWk+Q0v1XfOCFxFqJZob6pq0JSsekEkhKNzygIrKWpCO9SSzT5uXho16F9xlGc5wBLbMXuYqzBYh/HMAccHgLP+rHXPV1mAVMadb0Mw/lYfgX8ed3m60amUBf4NPCJ2u8fB/57A99vd+BaEjf5rcCBJOvUQkichRizWN/ctR/wKuAEDLs1lfYz980pWYtdNbTb0LzxPPf2e9qPt9gLC8FdZa7msvMNbKVyWs8JT2K4CPglhv9bt/m6qbjd6GDgytoV/QE4DqjWPCmXOF4/DDwEPFj7fyFwh+N1JwPn1H7/DqPubiEkzkJssFAv7trJYp8PHILhUJL0oaURyemiF4GIbTBsPrTr0BPjLNCXWWOPLrXu4/Zj+13gOQ8B8KQ19q8ka7d/wbB03Rbr7BS/xefVJmKPAnuRLAMAbAfcH3H8IPAW4BeO574PvLkm6NuQRHsLIXEWYrzpvKVzM+DgmlAfguE5JFG7hW+L162dtj4tewztNnTbOIvzXhZ7I4aWoDjnz5eItebs48uAhhhbY5es23LKi3GarWsC3AJ8DPhs6rm0OJ9JsiYNyf7nrUmSkbwDaK89fgBwXe79n0GSqMQA76u9jxASZyEmXKyXdLZhOADLIRgOqQ3SW0YFhCU/dx3adWjcE2y03dN2FvC2ZippeRKB1B9bgWEpsBTLYgx/w3DL2q3W2ml8+z5Bst68Dnh6zXp2ifObgB85jj+sNjkB+BzwEcdrLgZeAvyTJBLc6lsjxotWNYEQblbvuXoNyZrllQ3BvrWzxxq7i7FmF2AXYGcMu2DZBcP83FtMVGDUx4GTsMyLyoRg4GfhAAAgAElEQVQ2as0PkAQxLcWwBFgKLFm7zdqHZuDtO7b286KcMMfyN2AFSWT2QZ7XfK8mzrvULOl79K0REmchJkOw91i9Cri+9j9Dx+0dmzcEO/k5IRmw1uyw5vG2e9s+C3yh9lCVxA39KPAYJvXT8iiGxzDcieW+tdutnS3W3Y61nzeM8fijasIMcLvnNTelft9B4iwkzkJMQYZ2G3oceDxtaU8gX8NyGfAohsfXbL9mRHegQSeje9vLBLMDqEfVdwH7k2QGO6n22Drg255jHyQpitFaE2chhBBCeNiV0SKYhzie3y71fOj/AEku7hD31F57hppdyHIWQgg/6TzZC8Zw/J0kQWK/JInIDrGJ4zOF2GAqagIhxAzjCZL0mjC69uzj3cDmwJHAF2tW8E4k+bTLXOKbQCMI8G41uxBCCBHmlprQft3xXNqt/cbcc2eknust+YwDUq/dR00uhBBChPlpTTQfoLh8FxLnVuDvteeGgX0Dn/GF2usGSYLJhBg3tOYsxDTAJoP/TiTbtHYCngZ0p/731H+vgrHQb2AVsBIYWAPVIagMQWU9PNgKf98GrjIzN+3k90nKOm5Lshf5wsjj1pPkzr6ZJIr7V8CzKRa3aCNJYALwM1T8QgghZrQIt1k4zMKHLHzfwl8tPGzBTsT/9bBqEP71KFx/L5x/N5y2YnRr0XTGkCRcscDlZNOyhCznOm9JveYLjudPST2/v3quEELMMIvYwjEWzqgJ8fBECXHs/xGoPgXL7oXLb4fT70ms8unIO1MC+o4mxbmlZj1bkr3Oe6We257E42BJykcKIYSYAYL8TAsfs/APC+smW4wjrOvqE/DUbfCbKwx7T6OmngNcXRPRNSkLd1MSV/TPgMMDxx+aet27a4/NBf6Res9nq0cLIcT0FeStLbzXwqKpLsYlVvXIg/DE9XDWuYatp0HTp63cB4HnbcB7zQfOT1ndquMshBDTUJAXWHibhT9bGJnOouz6Pwzr74T7LjX8V19lSq9TH58S1HXA+2m+It/+wF2p9zkXVfUTQohpJcrbWTjTwqqZJsiu/1Wo3gVrLzL8pK/CdlP0thxLkpykLq7XA28mvAXKkLi2/xdYmzr2y6TrfAsxAWjmJ8T4ifKewIdIiibMmYXXzz1QXWq4+GHDR3qrLJlip7gN8HPg+anH+kmiue9KTp9BkvKPOwAHAs9KvXY5cCrx27KEEEJMoigdbuFiC9XZYClHWNL2bqiea/hLXyUYcDUZtJLsf76SuOIXFniEJHPY1urtQpazEFNflPcAvkFS+1fkGIGRGwwtN8GVVcO7eqvcOMVOca+aJfysmqX8DBJ39cM1K/oe4IKapbxOd1RInIWY2qI8H/g0SbSusuyVsALW/sXQ+pjhe8BHe6ssm6KnWiFZjlijuyYkzkJMH1E2JEkrPkdSyUjEt529Dew1hv61ho8Dfb1VRtQyQkichdgQcTkQ+CbJTzFGBmH4DxXalyXZt97VW+UKtYoQEmchmhXlVhIX9n+i+ufjQhXW/cVQudPQApwFvLe3ypBaRgiJsxAxwrw9SerGg9Ua48+tMHRVhY4qLAFe01vlVrWKEAmyBIRwC/MJwE0S5oljD+h4ZZWBzmR/+LV9Fd6iVhFClrMQLlFuB84EetUaG4fVsOqCCj2rkj9/Cbytt8pKtYyQOAshsLAz8Guy5QHFRmAtLP+1Yf5KQwW4m8TNfZ1aRkichZjdwnwAcDHwNLXG5LAOVpxvmL/CYBKDmn/rrfJ7tYyYjWjNWUiYk6IIf5YwTy5zYMGrLIObJn92Ar/tq3CqWkbMRlrUBGKWC/PrSdY529UaU8JamLuLZfBuw9w1ifHwiuMMa35nuVKtI2YTcmuL2SzMHwC+qO/B1GMYnvxFhc1SeTS/Abynt4pV64hZMlEVYtaJsrFJTd4vSZinJu2w2QlV7k0NUO8Cft5XUR1lIctZiBkpzEAf8Da1xtTnIbjjdxV2TT10CfDK3irDah0hy1kICbOYBLaBXQ+s8mjqoRcBF/RVFCMgJM5CSJjFpPFs2Hxrm8m9fawEWkichZAwi0kep15kWZ1bbJZAC4mzEBJmMZnMgU1fWOUuJNBC4iyEhFlMHbaBZ+5qeVACLSTOQkiYxRTiMMv8Lss6CbSQOAshYRZTZ8DqOcZyn+MpCbSQOAshYRaTxRaw09aWQQm0kDgLIWEWU4gXWPo9GZQk0ELiLISEWUwGXbD17pankEALibMQEmYxdTjI0jLH/7QEWkichZAwi41NK8zfP5vaUwItJM5CSJjFZLMndLaGXyKBFhJnISTMYmPSAvP2tNyPBFpInIWQMIupw76WzojatxJoIXEWQsIsNhZtsNmOxaxhEmghcRZCwiwmk+dYVkW+VAItJM5CSJjFxmABLFwY/3IJtJA4CyFhFhuD3aqsbOLlEmghcRZCwiwmml2aP0QCLSTOQkiYxUTSBvO2slgJtJA4CyFhFlOIPW0wY5gEWkichZAwi43N9rBgjIOaBFpInIWQMIuJoAU6Nh/74RJoIXEWQsIsJoJtqlEJSSTQQuIshIRZbCy2h9Ub+BYSaCFxFkLCLMaTTaG7dcPfRgItJM5CwixhFuM4qLVsZcflrSTQQuIsJMxCjBdbN7/fWQItJM5CSJjFRLIF0YUwJNBC4iyEhFlsDBaO/9gmgRYSZyFhFmJDaIPutvF/Wwm0kDgLCbMQG2g9TwQSaCFxFhJmIcYsznbC3loCLSTOQsIsxFjYxG5QpjAJtJA4CwmzEONNDwxP8EdIoIXEWUiYhWiGLqhuhI+RQAuJs5AwCxFLR9IHNwYSaCFxFhJmIWKYC20b8eMk0ELiLCTMQpTRCm0tG/cjJdBC4iwkzEKUMQkqKYEWEmchYRZiCg5wEmghcRYSZiGmIBJoIXEWEmYhPB10RAItJM5CwizEFMIwoVnCJNBC4iwkzEKMgfVT4Bwk0ELiLCTMQkwxcZZAC4mzkDALUWctrJ1CpyOBFhJnIWEWs56R4YkvfiGBFhJnIWEWogmexEx6QJgEWkichYRZiBRPJN13SiKBFhJnIWEWs5LHgYVT+Pwk0ELiLCTMYtb13yeBBVP8NCXQQuIsJMxi9rAGHpomY5wEWkichYRZzA6Ww4PT6HQl0ELiLCTMYuZzn+HJaXbKEmghcRYSZjGjWbsUVk/D85ZAC4mzkDCLGcvt6w2bTdNzl0ALibOQMIsZyRJg92l8/hJoibOQMEuYxYzjSuBZ0/waJNASZyFhFmJGcfkMEGcJtMRZSJiFmDHcd1aFZcCWM+R6JNASZyFhFmLac9kMsZol0BJnIWEWQuIsgRYSZyFhFmL8qQL/B+w7Q69PAi1xFhJmIaYdfzKwDDhiBl+jBFriLCTMQkwrzu6rsCWw6wy/Tgm0xFnMAGH+roRZzAJWAecDh8+S65VAS5zFNBfmt6s1xCzgPJPk0z5iFl2zBFriLCTMQkxpzq79PHyWXbcEegZi1AQSZiFmAHcBO59V4WnAY7O0Df4IvKK3yrC6gyxnIWEWYirwRQMWOH4Wt4EsaImzkDALMWV4EPhx7feTZnlbSKAlzkLCLMSU4EsG1vZV2Bw4Us0hgZY4CwmzEJPLY8D3ar+fCLSoSSTQEmchYRZicvmqgaHa7yepOSTQMwVFa0uYhZiu3A/sYWCwr8I2wAMa05woiluWs5AwC7HReJeBwdrvr5Ewy4KWOAsJsxCTy0UGfpv6+zVqEgn0TEIzTQmzENON1STu7PsA+irsANytZolCLm5ZzkLCLMSEcEZdmGsoEEwWtMRZSJiFmERuAr6Se0ziLIGeccitLWHOMAIr18HyYVg1CGtWwbpBGFxpGFgNw+uhOpL8X2thWRUes/BoKzz5dFj7TMvIZtAObJb6vyWwO/AsYIHuqBgj/cBzDPyr/kBfhd2BW9U0Y0IubomzmErCbGHNINz3KPQ/buhZDlutMswfBNaPz0c8AiwBbkn9XNpbZcjC1sCeNaF+FrAfsA/y4ohyTjDwm/QDfRU+BXxSTSOBljiLaSfMI7DqKXjifuh8wLDFEwZT3fiXsx64Bris9n9RbzWZC1iYDzyfpA7v4cCzUaYnkeVMA+/LCXOFJBBsezWPBFriLKa8MFdh2RPwyL2Gzvtg++VmSgrdSuAvwB+AX/VWeSp17fOAQ4GXAa8icY2L2cvfgcNNzrHTV+FlZLdTCQm0xFlMLWG2sH453HGDofsew/bV6XXJa4GLgLOBP9Qt6tp1tQJHkwT9vILEyhazhweBg0zyk5w4XwocoyaSQEucxZQT5mF46FYYvsWw47CZEffzceBnwFm9VW7PtU0b8OKaUB8PdKrHzGieAJ5v4A6HMO8K3KYxTAItcRZTRpgtrHwY7lhk2OlxwyYztDmqwPnAf/dWudnRBp01gT6pJtht6kEzin7gSAM3up7sq/B14F1qJgm0xFlMujBbWHEr3HK1Yb8RQ9csap7fAWf0VlnkaZf5JC7vk0jcnAomm94MAi80yVqzS5i7SdzcWuKQQEucxeQJs4U1d8MdVxj2WGtoncVNdSnwvt4qSwNt+XSgF3gL8DT1rmnHGuB4k0T04xHn/wC+o6aSQEucxWQJs30cbrrMsMvA7LKUQ6wDzgQ+3VtldaBd24BXA6cDB6rZpgX9wL+FhLkmzktI9sgLCbTEWWxcYR6ExZcaNn3csI1aysn9wLt6q+VbaSwcAJxGUrlIKQunJvcBLzX4vSI1YT4C+LOaSwItcRYbVZgtPPVXw313GJ6tVoriIqC3t8rDEW2+GYm7uxclrphKXAu8zMCjZS/sq3AucKKaTAItcRYTJc5fAD6Us5Zv+41h60GjQJcmeRw4ubfK/0W2fYUk0vs0kj3U+h5MHhcArzP4lyhSwrwNcC/M6riLyb5XJ/ZWGVFTTDzKZzw5wvzenDBX74Bbzqmwu4R5TGwOXNpX4RN9lXKhNVA18FsDLyQpyPFtYEDNuFEZAc4AXhUjzDV6JcyTyitQIJ4s5xkszCcD/1tv+xF46lLDuvsNW6h1xoVLgNf3VlnW5H2ZD7wJeCewg5pxQrkTeIOBf8Qe0FdhLkmcgb4nk8+ne6t8Ss0gy3kmCfMxwI/rwrwKbjvH0CNhHldeBNzYV2GfJmep/SaJAt+pZiH8SU05IXwXeHYzwlzj1RLmKcMn+yqqKy/LeeYI8/4khR66AR6Gxb+rsLdV00wUK4CX9Fa5egPu2V4kWaheB3SoSTeIR4A3mcSz0TR9Fa4FnqNmnDJUgX/rrXK+mkLiPJ2FeUfgapK1Ue6Buy+tsKNaZsIZJIkwvXwD79+mwFtJAsi2VbM2xbqatfxpw2jlsSaF+WDgKjXllGMN8MLeKleoKcYfubUnXpjnAufVhfmf8KiEeaPRBfyur8LLN3AGu8zA50nWol8NGowiORfY3cC7xyrMNZRDe2rSBpzbV2FLNYUs5+kozo0E/UvhySsrqk08CawHTu2tcs443tdnAqcCpwDbqYkzXAF80ODOhd6k1bwtcA+K0p7K/F/Ngq6qKWQ5TxdhPr4uzEvgUQnzpNEKnN1X4SXjOKu9y8DHgWeQbMn6GTA0y9t5EfByA4ePhzDXeIeEecpzFPCfagZZztNFmLcFbgI2vQ0evqLC1mqVSWcAONRVgnKc7vl8kspYbwSeO0vadA3wS+BbJsn0NW70VWgnqT61qbrulGc9cHhv1V1JTMhynirC3AKcA2z6GCz/m4R5qtANXFzLNDURM91+A2cZeB6wB/BFkijlmch9wH8B2xo4ZbyFucbrJMzThlbgZ32VGVtfXuI8Q/g4cNggrP5DhU20XWpKsQ1wUa0m8IRh4DYDHyZZjz4O+CmU5/+e4qwgcd+/Animgc8beHICP+/d6q7Tiu2B76sZxm0MEeNsNe8DXD8C1d9UmLNMTTJVuRh42cYOYrGwG8ka3VHAkcCCKd5ODwC/rf3/q0m2Rk04fRWORIlgpiun9Fb5iZpB4jzVxPkK4PmXG+xdRu07xfnP3ipfmMS+UgH2S4n1oUx+spNh4EaSmsoXmOT3jU5fhQtgw7bAiUnjMWCX3ior1RQS56kizCcD5yyG4asrqhs8DVgLHDhRAWJj6D9twEE1oT6apA51ywR+5AhJ/eRFJGvG1wK3mCS4Z9Loq7AD8C+07Dad+WpvlferGSTOU2Fg7bbwz37Y5NwK7drwN224BTigt8qaKdinOkhyfe9c+79T6ufWkd/fdcBDJEUj0v+XAjc0URFqY4rzF4EPqmtOa9YBe/dWuV1NMTa0f3D8+Biw1V8qaCf+9GIvktKFH5qCM+eh2uThFodwtwI9tf/dud9bU4L8iJlGXbKvQivwBnXLac8c4BskOQCELOdJs3B2trD0VphzpRxx05EqcKRyBE8JcT4euFAtMWM4obfKb9QMzSMpGZ+R/evDYBapNafz9+DHfRXa1BSTzhvVBDOKr/Yp/kbiPElW83Mq8OIrDa1r1RzTmR2Ad6oZJtVq3oxkT7iYOTwDeJOaQeK80RmG/74fqndrgWAm8BFlOJpUXkeyVilmFu/vq0zorgOJsyhYzc+cCy9cVFE7zhA2AT6qZpg05NKemewInKhmkDhvNFbAmfcbjLKAzShO76uwvZph49JXYV+S7HpiZqKtcRLnjWY1b94DL71e7uyZRhvwWTWDrGYxruzfV+EoNYPEecJ5Er78gKHypJpiJnJyX0VW3Ea0mueSrDeLmc2H1QQS54m2mrvmwUmymmcsBlVE2pgch0pDzgaOqS1fCInzxHAvfOgxwxxZzTOak/oqLFQzbBTk0p49vFlNIHGeMNqh91Y1w0ynQwPJxNNXYUvgRWqJWcOrta1K4jwhXGnYows2v18u7dnAf/Rpm9xEcyLK8T+b2Bx4gZpB4jzuLLCccZdRcYtZwg7AS9UME8rRaoJZx2vVBBLncWczOPZ2Wc2zidPVBBNDzb15hFpi1nGC8thLnMeVyw0vXm/o6ldTzCaO6avwdDXDhLA/MF/NMOuYD7xEzSBxHje2sHzkX2qG2YYBXq5mmBCUlGL2Ite2xHl86KvQugk890G5tGcjr1ATSJzFuPJiRW1LnMeFuZbnzYU5A2qK2chhqlY17pPdduAQtcSspRvYT80gcd5gtofXPSarebbSitbIxpuDgXY1w6zmcDWBxHmDWWg5+iE1w2xGru3xRS5tcZiaQOK8QfRVaFsAOzwsy3k28yJt/5A4i3Hl0L4KGlUlzmOnxXKwMbSsVVPMZrqBI9UM4zLZnQ88Ry0x69kE2EvNIHEeM9vBq59QM4hknVRsOIeDInVFoy8IifPYWABHaAuVAA5UE4wLcmmLOgepCSTOY6bVsq0sZ4FcsbKWxHizq5pA4jwm+ir0DBi6VehCAJv2VdhRzbBB3yejAVmk2ElNIHEeK7usVxuIUeTa3jC2Q/ubxSjz+ipsrmaQODffQJZdrZpBjHKAmmCD2FlNINQnJM4bzGZwwCoFgwmJ83ghN6ZQn5A4bzjzYJ8VagYxyn5KnCArSahPSJwnv4G2VfIRkaIL2FLNoIFYqE9InCeR1dCpVhA5nq4mGDPbqwlEjqepCSTOTbMK5qoVhMR53JivJhA5utUEEuemGZDlLCTOGojFRNKjJpA4N0VfBVOVOAuJswZioQmbxHlK0dVqFJkrCmynJhjTZHcOqOymkDhLnMeh06h0jpDlrEFYTKwRpCaQODdLjxpISJzH7/ukJhAO5vRV5FGRODfHfO1xFg4WqAnGRKuaQLg4qEqHWkHi3AzDKnohHAyqCcbEI2oCUcAyvDf0qyEkzs0woCYQDlapCZqnt8oQ8KRaQuTHWQOqLyRxljgL9YtJ5H41gdBkV+KsQVhoMJE4i6mM0fdJ4twkvVWGAS07C4nz/2/vzoOkLO8Ejn+fnhmGYYABBjlEkEMkyKXEeEVZjHc0mmO3YmKMyeZqTdzsxtSm1lilqc1hmWzWXUWJSUyMuyrJajZu4pkY8Fo1eAaMKCiYCLiiGBjOYd5n/3ibyoiIzEwfb3d/P1VTDGrh8Hv77W+/bz/9vsZZpYpQZJtTMM4ePcvHhHFWhjR6AGScPUpSkbioyTirSPpB4hSMs08mKobljqDXVjkCddffAyDj3EvPOQIZ56J5Bj82o25aYbVTMM7GWT4mKiifsAFY5iS0UyM84RSMs0dJ8jFReb9zBNppOyxyCsbZoyT11Zp84uU7++gRRyAAIp1/DCxxEG/mheiNszxq9shZFdEfXvtE4mptj5x7IZ/QAax1Eip43BH02RNAp2PQIK8ZYJz76PeOQAW/cQR9fsG7DXjKSWggPO8UjHNf3OcIBHTh4pVi8X1n0QK3OAXj3Bf3OgIBi/OJ950tEs9A1Ht8Il2NcL2TMM598TB4cXbxa0dQNHe6T9W3dlh/VPSTD8a5Dwp3p3KFqTzaK94+1eE861ubFx8xzkXiqe36tgV40DEU1S8cQf0a5PvNxtk4qwgeKKwyVvHcitfZrkuNka726PvNxrlIT87AdsdQtzwFW2T5hLWk6zlUZ8bAugP8jLNxLtITSQdwh5MwzioqT23XodGR/3IKxrmYbnQEdel14FHHUBI/w1PbdaUlsm0KfNNJGOdiuhVc+l+HFua9/m9J5BNWAHc5ifoxHta0eA9n41zkJ5LNeBquHnlKu7SudAT1Y2zk+07BOJeCp7brz+2OoKRuA15wDLVveGT7BLjKSRjnUrgTeM0x1I0HCqdeVSKFtwyudhK1b1JkSUjXcMg4F/2JpBNcaVhHfuQIyuKHpBd6UY1qjWydBt9xEsa5lK7AFab1YDPwU8dQlhe9r+FbRjXtkMiWJg9sjHOJn0iW4PuQ9eDmfMJGx1A2lwE7HEPtGZB+fOrSAJ1OwziX44lEtc1T2uV90bsM+IGTqD2zI0mj6wqMc5meSBbhpQdr2QvAQsdQdpfgZR1rSuGiI1cEPAtlnD16Vt/9JJ+4rqACL3pfxkVDNeWoSK4R/tVJGOdy+m/gWcdQcyLwY8dQMd8B1jqG6jc6svEAuC64PY1zmV/lJ8C3nUTNWZhPWOkYKrZfbSI9va1qjktk+7GRVjwTYpwr5EfA7x1DzW1TVdYPgMWOoXodFgmD4JoAy5yGca7Eq/wu4HwnUTM2Ajc7hkzsV2fjhUmqUltkw4x0X7rIafROcATFMT/HTcCHnUTV+2E+4dNZ/yEjDAPG7eZrv8J+3VF4obFxl+//BDwHLA+wrgr2q/OBf/dhWUVRiXR+KNLUDucFPz7Va42OoGi+DJwGtDqKqpapO+ZEGADMBg4D3gXMLER4YBH+7PXA8sLXMuAB4P4AWzM0giuB04HjfWhWh6MjW9phKfA9p+GRc1Ze5V8IfMNJVK1H8gmHVzDEAZjVLcSHAdOAhjL+GFuBB0lvk/kbYHGArgrvV/uRrusY4kM02yZGVp8Q2ReYE+A+J2KcsxLnZtJXjJOcRlU6K59wQ5mD3AwcB5wBvA8YnbGZ/BlYtDPWIX18V2Lf+giUd9uoZwZF1p4ZGZWDGwKc5USMc9YCfSJwh7OtOquB8YW7jpU6yMOAUwtBPokinKIuo7XAPd1ivaqM+9a3Sd8+UsY0RDZ8JDK4NX2rZHpI9yf1gau1iyyfcBdeDacaXV3KMEcIEU6O8D/Ay8BPgA9VWZgBRgEfJb3F48oIiyN8PsLQMvy//xFX0mdPZNt7I82FxTafNsweOWf56LmJ9H27Q51GVdgGjM0nvFKCKLcBnwTOAybX+Ax/QfoZ8bsCJCXat1pIr3l+mA/bTIR5+0mR9eNhJHB1SB/nMs6ZDvQk4HFgkNPIvB/nEz5Z5ChPJ/38+1nU3wr+l4DrgR+FElzedn6OkcBDwHgfuhXVeWzCcwfCQcBTwOEZW+lvnPWWTyIuYqkOh+QTnihSlCcD3yI9Za30DNKPgQUBNhRx3zoIuJ/ynE7Xm3XNSVgxFQ4ENgPvDPCMYzHO1RToa6G4R2UqqvvyCXOKEOV9gIuBzwJNjvVNNgO3kJ72/m2g73f8mp9jJnAX6SlVlU/y7oRV02FC4fefCnCtYykuF4SV3heApx1DZv1bH6M8IKaXKFwBfN4wv6UBwMdIV3kvjXBu7OPp/nzCU8AxwIuOt0wim45LWNktzDcYZo+cq/noeRzwv8C+TiNTVgGTCtdx7k2YP0B6BSu3a++8Trrq+8pA7+8CVti/7iY9xarShXnN+yObRsIBhX9yH3Ci7zN75Fy18gkvAicXnoyUHfN6E+YIgyNcR3qa1jD33hDgAmBFhJ9HmNuH/esY4ElHWhoNkaUfjXR0C/MS4HTD7JFzrRxBzwHuBPo7jYrbDOyXT1jfwzDPJV3gtL8jLIkngSuA/+zpE//8HG2kL5rOcIzFMyjy6N9EDmz6yydPXgSOCumqfBnnmgn0B4Gfedai4r6fT/hsD6LcH/gm8PfuN2WxjvQmJPN6GoH5Ob5MumLeG/v0zdaZkceOjBzV7Z+9ChztymzjXKuBzuOt1CptVmFB0d6EeSzplb1mObay20F6VbB5PbmRwvwcRwML8G2HXmmI/OH9kYbhb3wffzNwXEg/Yy7jXLOBvhi4xElUxP35hGP2MsyzgV+SvRtS1KOngHnAf4Q0FG+3j40gvc7AcY5uryWjI7efGpnb8MbV9J3ABwL8yhGVh6dWKySf8DW8vWSlXLmXYT4duNcwZ8ZM0nsEvxThu/Evi5Peah/7P+AE4HPQs7UFdRmDyDMnJCw6PXLqbsJ8pmH2yLnejqC/DnzVSZTNGmD/t7vJRYQvAt/1BWymRdIFlvOA2/Z0Pe/5OfYBvgN83LG9aYrrZsITR0TmBOi3y7/dGeZbHJRxNtAqpa/lkz2/nRDhX4AvOaqq8jzpOo5rA7y2h31tTuG/O8iRsX2/yEPHR2Y1pzdowTAbZxnoSugsHDWv2UOYvwFc6Kiq1hbgRuCaAA+/xb7WBHwG+Aowrg5ntGNo5OETIuOHwpg97F3XVRIAAAn4SURBVCuG2TjLQJfFgnzCmXsI81eASx1TzXiBdMX2TWE3FygpRPps4J94m/eva0THyMj9x0bGtsG0t3kRa5iNswx02czJJ7v/OE6Ec4GrHFHN+kO3UC/bZZ9rAM4sRHparf3Fc5FXp8Dzh0fe0fz2t7A1zMZZBrqsnsonu/+cckzvuXy9+0PdeKJbqFfusu8dCZwDfJj08qLVKbK1HZ45JNI+Acbu5apGw2ycZaDL7nP5hGt2E+Y5pHdK8mpS9elh4CbgpwFWd9v/+pN+lO4c4CSgoQr+Ll2tkSUzIslBMKOpZ49pw2ycZaDL7nVgTD5544UrYnof4Mfxc8xKP4b1CLCw8PVAgI7CfthOeiGTE4DjgfFZ+aGbIi+PglcnRQbuD2P79+453TAbZxnoirg8n/APu4Q5R3qbwfc4Hu3GDuBRYFEh1osDvFLYJw8ohPqvSC+MMplynHmJbGuBl9thx/hI2zhoH9T3P9UwG2cZ6Ip5Vz5h8S5x/mfgIkejHngFWNrtawnw9PdydADvAKYDMwrfjyh87QMM3tv85iIbGqGjGba1Qtcw6BoR6TcChg+BwUV+wjbMxlkGumKW5xMm7xLmk4HbfPyrSLaR3q1p3W6+ku3QsgHaNsNAoF8uPcpubIDBORjZCKNaYEgLhDI+IA1zxrkIpkrkEy6any65NNA9s2CXMA8lveevYVaxNJPe/Wq3d8DqBwzP1s9rmKuA1w2uskDjzTJ66qZdfn8p6elGqR4Z5irh0UMV8hT3XluaT5je7aj5COBBH/cyzPLIWR5BV86CbmFuIL3hgWGWYZZxloGuoO6ntM8HDnYkMsyqBh5FVDlPcb+lx/IJ7ywcNe8DrODtryssGWZ55CyPoEuo+yrtCwyzDLOMswx0ZcWdcS58dOo8RyLDLOMsA11ZD+UTVhW+/6JHzTLMMs4y0JV3U+GoeRDwd45DhlnGWQa6siLws8L355Ge1pYMs6qKq7VrVB2v4l6ST5hRuOvUKmA/Hw0yzPLIWR5BV9bCwq/vMcwyzDLOMtDZsKjw6zk+AmSYZZxloCsvAosKC8E+6NaXYZZxloGuvKfzCa8Afw0McMvLMMs4y0BX3s5T2h93i8swyzjLQGfD/RHagGPc2jLMMs4y0NmwBDiW9PaQkmGWcZaBrrAdwDLgBLewDLOMswx0NizPJ2w3zjLMMs4y0NmxNMI4YLJbVoZZxlkGOiNxBo5zi8owyzjLQGcrzu90a8owyzjLQGfHCmC6W1KGWcZZBjo71hlnGWYZZxnoDDkloRFodwvKMMs4y0Bnw5ZxMMktJ8Ms4ywDnR2vAtPcajLMMs4y0NmxDtjPLSbDLOMsA52tOO/j1pJhlnGWgc6ODmCEW0qGWcZZBjo7moyzDLOMswx09uLsaW0ZZhlnGegM6WecZZhlnGWgsxXoJqDZLSPDLOMsA52dQDcB0a0iwyzjLAOdnUAbZxlmGWcpY4Ee4JaQYVYtaXAE6qtfRu45LdAEzKnQj9D/0EijLzZlmGWcpewEut+hkcQ4yzDLOEsZCvTsSEdwxbYMs2qERxoqqkq9B90FG5y+DLOMs5ShQG+DzU5ehlnGWcpQoLfADqcuwyzjLGUo0JsgOHEZZtUKF4SppMq1SGxkZMNIGObEZZhlnKWMBHogbN0fBjltGWYZZyk7gc4dlN6dSjLMMs5SFgK9LdBvdqQL11HIMMs4S9kIdARmRV5qgDanLMMs4yxlJNATIi+1wj5OWIZZxlnKSKCHRTaOgKFOV4ZZxlnKSKADtEyGRicrwyzjLGUk0JsCjYdEdgQXhckwyzhL2Qh0AkyJrGz21LYMs4yzlJ1At0XWjnBRmAyzjLOUnUB3QtMU6O80ZZhlnKWMBHpzoP/syKbg1cJkmGWcpWwEOgITI0+2wBgnKcMs4yxlJNA7YN0EGOUUZZhlnKWMBHo9jJgNrwdocYoyzDLOUgYCHQNhdGTJYE9tyzDLOEvZCXQH5KZ4f2cZZhlnKTuB3hgYNCuypsFAyzDLOEvZCXT/yLMjYV8nJ8Ms4yxlJNAvw9CDYXPwoiQyzDLOUjYCnQSaRkUWDoYDnJphNswyzlJGAr0atsyEIXgrScNsmGWcpWwEujMwckJk0QCY6MQMs2ScpYwEejU0TIdWH++GWTLOUkYCvTUwZHTk3sEwwWkZZsk4SxkJ9EoYfDBsCTDAaRlmyThLGQh0V2BAc+S+ka7cNsyScZayE+g/wZiD4fkcDHdShlkyzlIWAh1o2giPTvDo2TBLxlnKTqBfC0ycFPlVCxzolAyzZJylbAQ6LIMhB8PaAMOckmGWjLOUgUAngda1sGIKjHAfMMyScZYyEuiNgTFDIguHeeUwwywZZyk7gV4J+0+DJY0w0gkZZsk4S1kIdCD3LCQzYH2ANidkmCXjLFUu0AGYC7AjMOiPsHQqDMb7PmfdtkKYf+4oZJyl2gv0wtMCrwCnAGFzYOyf4dGJsC+Qc0KZtAF4X4DbHYWMs1S7gf7daYGngTOAxtcC44g8tm8aaGXLWuD4AA85CtWL4AhUz+bnmAv8gvS0NnMTfj8FZjiZzFgOnBjgBUch4yzVV6BnkZ4uHQ0wJ+HxqXCIk6m4xcB7A7ziKFRvfH9NdS+f8CRwFPAswL05DlnqKdRKuxs41jDLOEv1HeiVwKHAjQD35zjiUXgKiE6nrBLg68ApAToch+qVp7WlXczP8bfAFcCAaZE1746MCC6eLIfVwMcC/NZRyDhL2l2g3wEsAGbuG9l0SqSzEYY4mZK5DTgnwDpHIXlaW9qtfMIzwOHAvNWB1hsDbRvgT06m6LYDFwCnGWbJI2epJ0fRZwDzcjDmPQkvToJxTqUolgCfDOmqbEnGWepxoFuBi4AvHRhJ5kRo8HKfvfU6cDFwVYAdjkMyzlJfI30AcPkAOHVuwutjfR+6JxLgWuBCPyIlGWepFJE+Fbh8fGTi3MjmZhjoVPboYeALnsKWjLNU6kD3A85vilxwRKRtKrQE96ldPUf6ueXrg58Zl4yzVOZIn90e+ersyOgJ0GykeQS4DPh5SE9nSzLOUkUiHYDTh0cuOTgydSI0hfr7uOLtwGUBFvqIkCRlLdRH3xy44znYmkBXhFjDX5siXBe9m5fkkbNUJZFuGx75xITIuRNg3FBoqZG/WidwJ3ADcGuATW5tSVI1hnrk3YFv/QFe3ALbqvAIuSvCPRE+E2GYW1TyyFmqKdcFxk+Fc4dEThoGk4ZBa0YXkS0H7gUWAXcHWOPWk4yzVBd+HZg8PPKpQXBSO4wfDG0ViHUEnu4W43uNsWScJRX8LjCwMTKnHxzZChNbYVQLjGqG0Y0wtI9//JrCEfFzha+d3y/3vWPJOEvqhVXQvBFGNEL7eOhKYHAnDEtgSIChbbAF6AA2Fn7t/rXeAEvZ9//F//8RbPMaRAAAAABJRU5ErkJggg==;" vertex="1" parent="1">
          <mxGeometry x="140" y="268" width="87.51" height="92" as="geometry" />
        </mxCell>
        <mxCell id="qtwSQsPml5bytBeIYUfw-12" value="" style="shape=image;verticalLabelPosition=bottom;labelBackgroundColor=#ffffff;verticalAlign=top;aspect=fixed;imageAspect=0;image=data:image/png,iVBORw0KGgoAAAANSUhEUgAAALwAAAEGCAYAAADfb/8MAAAAAXNSR0IArs4c6QAAAHhlWElmTU0AKgAAAAgABAEaAAUAAAABAAAAPgEbAAUAAAABAAAARgEoAAMAAAABAAIAAIdpAAQAAAABAAAATgAAAAAAAACQAAAAAQAAAJAAAAABAAOgAQADAAAAAQABAACgAgAEAAAAAQAAALygAwAEAAAAAQAAAQYAAAAAwxPplwAAAAlwSFlzAAAWJQAAFiUBSVIk8AAAQABJREFUeAHt3fmvbE9V///jPI84j++3AiKoIMgkozgk4viDv5n4r/mzCSaamECIiSjIoMgoKI5vnHBWnOfv9z42PGFRn+5zzz33ntPd93Qlu6tq1apVVWu99tq1a9fe/Wn/371wcQ5nDdwRDXz6HRnneZhnDWwaOAP+DIQ7pYEz4O+Uuc+DPQP+jIE7pYEz4O+Uuc+DPQP+jIE7pYEz4O+Uuc+DPQP+jIE7pYEz4O+Uuc+DPQP+jIE7pYEz4O+Uuc+DPQP+jIE7pYEz4O+Uuc+DPQP+jIE7pYEz4O+Uuc+DPQP+jIE7pYFrA37feyP76HdKq+fBHq0GrgV4oO6YI4sW6Gc+2uRf05OnuvGs+ejn+DQ0MG279vg2bfuZa+M3lf+0T/u0S0WnEPHkjX5p5XPh0Wlg2jEbFtdZdl5pld1UfC3A62idnQOLfr/OzjqTd6WnDHKF4lnnnD4+DbBbttO7iZXo2bKy2xrFtQA/O7cOYJaVbnDlxdUT/9///d/F3/3d3138/d///cU//MM/XPzTP/3TxX/9139d/M///M8n+HbJmPLO6ePRQLb9jM/4jIvP/MzPvPjiL/7iiy/5ki+5+PIv//It/bmf+7kXn/VZn/X/dFi9m7bzIwH8VTuZIvBLO4D6v//7vy+eeuqpi9/+7d+++MAHPnDxh3/4hxvo//3f//0TfGknGeXP8fFpgH0dn/3Zn33xeZ/3eRff8i3fcvHMZz7z4ru+67sunvGMZ1x8xVd8xcXnfM7nfMK2Ew9GI39T4aEBf53OAe1//Md/XPzbv/3bxe/93u9dfPCDH7z4/d///Ys/+IM/uPjzP//zi7/6q7+6AHZeXgjkxTeljLPcR6MBmHDw8ED/t3/7txd/+qd/ujm1pz/96Rff/u3ffvHEE09cfOVXfuXFF3zBF2xXgevg6Dq9/bR7ILr2d2lm1dnh6NFmXtph6vI3f/M3F7/wC79w8XM/93MXf/3Xf71Na5SZ4hRfZ1DnOsehgez/6Z/+6dsU5ou+6Isuvvmbv/niVa961cVLXvKSi+c973kXX/u1X3thioPnNsJDe3idbGDSgHpZ4Lk/+tGPXrz73e+++PVf//WLd77znRd/9md/tnl7UxtzPvM7hzQvcVvKuKzf57Kra4DDMlUV/+///u82ZWXbf/7nf948/Tve8Y7tCq/sOc95zsU3fuM3bp6enSeWrt7i1TmvDfiAPTsYbW0eHZ/YNOYv/uIvLt7ylrdc/OzP/uzm6f/zP/9zA3WXQPO7z//8z98OacA/h9PRAHCzqSmpg82borqS/+M//uNmd7Z1fOmXfukWm/7cdHikSJrgnx1Hd8YbvHn6m970pov3vOc9F//6r/+6eQBntrv4L/uyL7v4uq/7uu0y99Vf/dXbHA8N+PGcPf3U6vGmrbKZsvLowP3Hf/zHm2dH+5d/+ZfN85vOurqbzrA1sLP1TTu3hwL8PoCvpgjwFGEF5ld/9Vcvfud3fmc78/GavjztaU/b5nfPfvazL571rGdtNzUudZThZKCI27jkrX0/5x9cA8Bs4cFSM4/+rne9awP2U/dW4kxjODpL0O973/u2qcx3fud3bvY3x3eVvyquHrxnFxfXBvxVOtUUB69BfvjDH74waEpw9iu3bGWg3/Ed33Hxohe96OLbvu3bLp588sntMoeuPKBfpc3rKOFc59Fq4Au/8As3m5mqcFjs6Mr9m7/5m9vS85/8yZ98Ytn5L//yLzfgc2qWKzk/oL+pcG3AP2iHArzBWqZqjZ1y3KkD/Mtf/vKLb/qmb9ry3ay68RHOYH9QjR+On5NydNPqgdNXfdVXbTevcOBKLzbF5fw8f/n6r//6i+c+97kX8HDUgO+GNPWu+egGyLtbZ3cTY04v8AAGairzrd/6rZs3mJe1gF6cvHN83BoIB2zJw3Nqrt7m9Bwe0Futc6U3zYULN7s3HW7Nw3vQ5Gw2WHfw5nKCy5ilKdMY4G/6QmHCGeibGk72h/14e7E1ePP63/3d391uYjlBV3pgN+/nBLP7TQ34oVf7V0DOvHR5ADe4CXZl7sw9ehYHdoOt3pRxU0o4y330Gshu2ZGnN083tWHrnrDCRcuWOcGbBP2tefgeRsyzmDIowZkvXkPKWunn/OlpgDMzPzefdzML8E4CuAgbgH6TYKe1WwP8LhMBtJ103/AN37ApoMGegb5LW6dHy556zqamNubzDs9WAF6Iryv8Tdr/YIA3KIcHD7y7wRv4HGyKmLRNQ+efk9FANmVDS47s7fCgCcCzsQGVrs5NDPIggG9glADoux4p44nPwM+gvwnz35zMbDftBuAeIDrYfZbpyWrzm+jdQQC/byCrAtb8vnpn+mloYNpzX/qmR3JwwDur3Z07+x2FqZBo5/j0NDDtmNcXu1EVK1+PmxzlJxF2k63skZ0CAN2g5aPtqXImn5AGJth1e+Zn+jZtfhDAT3BLN59r4MWUJD3zaOdw/BqYNp69RZ9H9r0tGx9kStPgGmwKSUmX5Ss7x6ejAXZmW2Gf7W9rNAfx8A28wct31ldWvJ4U6OdwOhqYNi69z6aV3+ToDuLhG1Ae3Q1MgJ8xPvlzOE0NZLtio1jBPstm+qZGfDDAG1wDpITSxQ24fHH0c3waGrjMbrNspm9yZAcDvEEF9JYj5yUtBRTHe5PKOMu+eQ2wZ4fWsrm44yZ7cZA5fCBuYFMBKSFFxBN95s/p09JAdl7tf5u2PQjgd4HZoFNEipnmjDbr5hFW2qx3CunZ/+v0d5ceVjlX4Vnr3FS+8RZrJ9vfVJvJPQjgazwQlxfvos1y6YxXuvKpwGjHFM9+r/162L6v9Wd+ptd2bztfX4rX9m8a+Aedw6+DvUqeQijL0clxmZLiu4rsm+SpH/V9tjXHhF5+5ZFXv9C4i2d5fMpmeXXvanxygF8NlTEz8CyPVhzv5LmNdO0Xr21OuhdkvNv5kY985BOvvfX+bztL7Sf3aqQXKnzIqCfV5JI15a1t3fX8yQE+Y07PlZEnLcPGX/5QoK/94vpR39GtVnkN0jdb3vCGN2zf7+kNfxvsgNsHSH2M9JWvfOWFD5PO94BX2fLk11bldzk+OcBnrIy4Alr5Lhp6daRvM2h39ql+7KIBfZ5c2mcJfe3BS/DoXpHzBS/vEPjMheAjVt4gSi7a2ibaORz4Fb/rGGAaFWACTWv5ZEbDO+nXae9R1Zn9ro+zn5V7DQ6wfaMHuF/3utd9YmrjBXhv/fvEOH4nAa8v3dSGbPlkP6r+Py5yTtbDZwCGDdS7jDxpgaq6txXXh8vax6PcWIDXl7oA33fVTXN8Q9/nLHh1Ux6g96qc+bw5vtfnvB/shDmH/Ro4ecCvILIvB2jQAxqaEH1VR3zoq7x4J0+0q8aBOf5k6Y90e4mUa98ByF6Fe8UrXrFNV4C6jxf5rAVvX331XA3kTW0KVx3Lyrf2N3mPQ3xygA8sASMjoO8y1C5adR4k1l5tP0g9vCugkpW8dSzqAC9P7xN0vLoPWKH5iJHvMfL65vL+OcVL8Ly7KQ5Pz8vz/lcJa9+uUueUeU4K8ACyAjjwTC+5GmQXoCbPVY1+Vb4p+7J0gAfkNShDt/zoBtUqDSBbsgRssU9PB/LGiN9KzlWmNo96POsYjjF/UoC/zEAZPCUHpsvqxHuoePZNfx2TJm0eb5ri0+HA7VuMvLhPTfP684Ok3cB+93d/91anLwQY3yo3/Rxq7Idq96QAvxoupWXMYt6eQXlItPLxi6fBZ3rylE5u+YeJtbVLHnpXKeX6nucHZB8jBfT6Cuzm8gBv5cZHSs3zfa/RV72evPetTl5+ypn91kaydvVn8j5O6ZMDfMpfjTWNJt1hruvj/B3yQvVXeeVnPGVP+oOma7O+qY82gY4GpD4w62vKvLQ8T+/Jqs8SmsoAOEB/6EMf2r7Cy/v36WnTGieJT5CTkUzxrrHow6TP9Fb5Mfo5ScAz0GqkaZNpMB7QTZ5lPd8h5xl5QvULMx3tUcb6ow3AFoC3PqKZn6MBt3xpnyAU+koXz+0mFg+Akwn86svn6Z0Y5DshvuZrvmYDfzI2gTt+yKpPO4ofG9LBAU/RDuGqCo+veFpjGg4wgIjH8zQSv88ye3oJIIVZB232p3S8DxPXzq5+k4uOBzhf+tKXbiemdPxieTel/iYGr5OXN3di9919a/fKjB3NHwL7QnNy1jHso698j0P+4ICnxIAwFYom7DPGLnp1phze0tdq+0yzPNB7eGOlQ53aJ3Pmydklc8q/Trq+164pi7QTVLCkyFt3JapfYiC2DNkqDB5r8qZsxmWtvhi/Mje9Tvg2m9Xudfp+6nVuHfCM4BAYOOVHu6pC1SvMutFrB0AY3F/pfP/3f/+2Xq1dc1+enmdUp3rF1a+PtXWduP4luzhZAT2+4spXfieIG1jTlRe84AXb1cpUzZjco5BnXP5eSF0nvDo8vSlRYW0nujr7yuI51fjWAb9LUSn3USuaXB7dJd80oK8Um/f6KP9TH9+UBSD1of7JO/TJ8TAh2ckpjp7s2tNfYHayAuoa8CnrO+u8uisWuW5mLV2ayjgJeHh8pkJ9ptq9gPy+fqztPU75Wwc8JadoxsygeVJ5Bg0M8RbHX/kuY8SbnGSKbal1af++7/u+bQnPDV+AnzKnjF1tPAxtn2zt64t+mnPrJ2ALs079xKccr6uYqRCg+y9cJ7OxWabk+cl1IpkCWQFyX5NM8pO5puUfp3DrgJ/KS8lT8ZXvolV21ZgMbXQAiD0njgKeyRd9PQGjXyduLPpRe+Tozxq0K9TnypMx83hcwczPXbF4elcvdB7fjbmpjfk9uTw8fvN/PE4oUyPpuxIOCnhKXgGQ8qMDRbTifcZRfhnPCprk7KoX7TJ51X+QOHnF6tav4lmWbHpQrkw8eYFYuRdDgJ9ntxTraBnWvpv3v//9m4d3JcDjX/VMd2ZItnZ29WPynmL64IBPaVPB05iVi9F3GWEf/6z7oOld7TyojPjJqo8zjh5ttjnTu+Sg4YlPzMvbRPb85z9/W6l573vfuwHbNIe3dwKYAjkpTG94ePWaOnXFSWbtPk7xQQCfQuflO6UyviMesXy8q1Hir3715JUJ0Yo34sd/Zv1Zvtadda6TJru2jEW+saDLz/Z3tVF9Zbv4yUO3Ru/GFKhNcaxGmeL01NkDODetrd7Yp+MeYJfMXf04ZdpBAL9PYSvIGGClqYs+w+Sb9IdJ35RMfSK7435gn+NXR4hWjJY8aStSAG06Y+ryrne9a7txNcfn7f/sz/7sEy+PKHeieDfWKlYnTW2R9ziFgwA+Q2UkMVqeL/pU9C6acvQZb5lr/uhD8h6VzLUr5JtzF/aNKx3hKz15o9Xn+i12UwrwL37xi7fVGDIsVVqhsWzpwRRdA7ujl014eTexXXmSqf7jEg4CeMpjqI6UuRo0Y1YuP8OjMMg+GbW1r3z240HTq+w1T552J31fP9Anr7p5aXN1wPZwymqNKc4f/dEfbas5vP1T95YugdwJYr0e2K1guQ94XMPBAL9LodN4DCVMQweAWXeWT/qu9Fq/usVrnfj3la/8+/JTjrQjmTM/6WTFs0+uckcyJh86INtSAfDADtSmNMAP8G5i1XVDix8v0JvaPK7hIICnXIGyC9HkpXmpyt1s2frqUtzTw06I6hdPOdXfRYtffL/yyfswae3ok0N65mc/ou9rq3G56fREts1xpkqVqUuHpjbKPXCzNIkH+D/84Q9v24pNdWxBsKJjudKDKrGbXifM4xZuHfAZOqNOA03lxofGKzHKBz7wgW2bby87VLcY76y30pUXlDlp4hcL6I7y8V833tWHaLWx5tF3ndDx6Qsee+O93eTJqSXJeW8QT1sQxOoAO31yIg7pPLw0D2/Vxk3sGfDXtfqeetPgpVdWRualXG49MWRUS2xWGlyaZ70AsYu2ypXHP3nj2Uev/FHH+9pb6fIF/TZFAUwA3cWLx0FnwIv3mc985ubZyVHftAbgOZE//uM/vvj1X//17SSw9eJlL3vZdpWYJ1J92KU3Mtd+oB1TuHUPf7/BT4VKOwDeUhvQW1EAdHu+e/khmfGvxkhmfI9LTC+eltJDVwRjTw/GGeB5dlMbeSszdGh9npfvhXDTGeDnTNzwunKY2pjiqJfs9Dfz0qcQbh3w0xgUlCJT1gRnSnQ55qGeeOKJix/8wR/cngzis0mKcaaxM4Ly6if7YeNHLe8q/UkfLRXKR5v1V3p9jVeep7YCQ4/dwAK0+Xt7b8zp6fOtb33r5mhe9KIXbcBnA/WTW1wfZjvRjjG+dcBTQsbJiKtilKfQDMVDeZGZp6f4Xlbmfawv46tO8slFyxhrOw+aT/6D1nsY/vpOV9oHxmimMrx2T0mj42vcaPWb3vDS5ZRlOkOuhYHm9u95z3u2NF7e3j1CWxGSN8c125n0Y0sfBPD3U0IKTYnynRzSXkz+iZ/4ie2rXB/96Ec3Y6Fn8ORPOdEeJk7ew8h40LpzTDOtL63StJw4+zeverWpvqO6z372s7fpDJC7WeVE3Lia4rhf4khcEZR/7/d+78WznvWsbS8OW2SPZNe2dqXLV34s8dEBnqKmYTMQel6Ogd2ArUqdBl3LKHzKfVAD7JL3oDKuy9+4pi5mf+a40MtPntk2Ok9vOgPcpjfm7kDu4PFNbQDdtgQ8Ti5e3qGusE/+bOvY0gcBPEWlrIyZAqMXz/J4xKtRZ766+GbYR588x5beNa45jsrrd/l4xNHwRJdG92T1ec973ubZAd3GMkDn3d3cmub8zu/8zvZxV9NHG9N8TcGcfnr62iB/tqGdYwoHAfxUQAaZSpppvFOZs27pyuXXuvE8TrHx7htnZfvK01E6axXGiowpDRCLPeBzAngii9eXzqwKmdMDuxOFp59TG21e1u4x2OAggE/ZKad4paegystntElXd+Yn7ymnjSm9FM/xzDHvKk9Xa1n13MgC7RP3Vm7clAK1KQyAAzwv7wTweW5p5WTx9MBf/dqZfTvG9EEAnyIoPcWjUeTMo8lPeoZb+apfHfHjEtLBOp5dOog2dabepK9yAN7NKY/tywamM24+8/CmOJYtyXBSALllYnkrOKY609Ov8o8pf1DAUwSlOTKQ9BomLd74Jy+ag/Ljm+VTzqQfc9p4hLXva37ypIet4lJ3V710ZqXGChgQ9/T1D//wD7dnHby+aY45Pk/fdEYdJ4A4vdfuMcYHB/w0aOlVUZfRM2Bxddc6a3l8xx7rt7Gs49nV78lznfGqw4Pz3jy9qYw5PrqbV090fSDKFgSrNubypjhP3JsOeR4gfezhoICfBqKoXUaKp3gqNP41jre48ll3Vzp+ZVets0vOTdBaV8+Lzr7O/uKLp37Eu45JXlnlYnV5bGvupjk8N+9umgPwPL/9N57O4ufpAd0JgHf2pfaPKT444FP2/ZSScVajXVYPrzVml2KeycFghbXtmX+QdpJ3U7F+1be1X+Urrw/R5SuLJs+T21pstcXaOm8txAPs0s3p1XEy0aU5vfV6N7JuXNFdFfwvFeAnYxN4ZD8HAfyqEMqMlnHSU3T5ma48fmUzXTmAuwT7RIXtxfaEC/HGt+aji6fsSb+NdP1q7OXrV30DOmkeevLgKz9lAOcLX/jCbZ+MDXm8c7LwAzLP7ZPbpjX0yMMDu9gNLc/fSo4tH2Q4UfThWMNBAJ8BdiklpSvLQLv4ok2e6iZfnhHchJljulQDPO/E88c325q02jiGuHHqX31EC+AB/rK+Thnm5x4g+eamm9A1xOtk8D1K2xBs42ha0z56qzc8/a/+6q9uVwl79LtarDKPIX8QwDdwSu2IJk7Zk1Z6GjvajNVlfHzAwEu5dAM64/FQPD7jJUv9+oHmqA+TZ7Zz2+m8Zv2rzxPw9am+l288jbGTg/cGYICfPOrVDu8OwLYhO0m8iMNh2F5Mlx5MeU/WFcCJ4YO1rg5rH+rLoeODAv46g0+RDLKGyqLjAQg3VjzZD/zAD2ygR7O1mOFcljOuesmd4IiW3NuMG1N9ENc3/QDeQnQ88UcTT3p1dsV4C/TjpLB3nqNwwwrk6Q2fK6j3Zp+89zc7rqLHHE4O8JcpMzBMHuD2YIT3seEM+M07GUYZLzVBU13lDJ/3i37bceALwNpH03e02ffoaJMfr4AW3c0l7+0KWBsb08d/0PCa+tEXz25NnpNozzwdmTLatu1rZwBfW1PWMaVPDvAZbBopGsVKK9tVzkBP3Fsz/vEf//GLl7zkJZshLbfN+tM4GX3Sbju9qw+7xqZfV6Ubr5UZ8203rxyC0MlDjrRpi3//tnnst37rt7alSCtd6tOlG1Uvh9s63Lfnj3n+bownB3idXsNVQIGH9+HlHfcL0/gTSPer96jL15Oxvqz02W48aPjWfLzR8Ux50s3P3ZC+853v3MBuGshBALVlTc6D47Da411ZJ1FXxto4tvjkAZ+hMh4FZ8Bo4mi7DBBfZXhXWmW3Hc9+rGOobNLXKQUe5WuYdZWVl8b/kY98ZPs836/8yq9sL3Z7h9j0DqCt3QP493zP91y8/OUv39KmR8cOdmM7ecAbhMBIq9HQo4mn4UtXjndXuF/5rjo3RdOXrjwT2Mayjv+yPlw2pl4G4dl9weA3fuM3tp2T2tWmdXbLmc997nO3G1UrPa6Y5vKzT5e1f8iykwP8LmMFXoqsvHgCYRdNnckzZUgfQ6h/c5yTZlxzbPU5WnnxpK3y5M3RvRgP7K9//es3T59nt6xrtcveeTepth+Yxuy78Z3tHkv65ACf4qaxGLF8cXziXbTV8HgmbdY/hvQ6hsZ8lX7He9k4zNktP/p7HPtkvNr3u7/7u9s0Js/uBhfYvSEF7Dx9U5lkX6U/8R4iPknAUyqvwxD7LqOBF69jV4hnV9mx0RqDPtfv4l1la//xpovqTZonpm5K3/KWt1y86U1v2tbc07F9MpYe/cOILxL72pkVnv4kLnnJ13a0tR+Hzp8c4FNqCpWXdkivYR995Zv5ZE7aIdNzrLv6odwcOz486WLS1rp4PCG1rv77v//723ydZ/ev5Z6qKgd22zI8ae2zfk/eW2+3jm8qg6e2yL+svbX9Q+RPCvBTuTz7zFN0yo5evvgqBqluxph1ox0inv3Qx/Limde3q4wBj5PEFgsfVn33u999YUXGNgHeXjkd8+Lm7cDOu1t3t0oz19vxFvZdcSs/dHxSgJ/KomQ3WB5181A2M82gPFBM+v3SGe86de8n+1GWr+Ob/X7i3vo4kLZMWJn2G5eHSu2DAXYfXjKloVNr7Z5IW5GxacwNqgdL/h4zz05WcneddMqPMZwU4CnWwTM5rA2//e1vv3jq3of9rSxUzhAO+RmmgdDjia96yqYs+WMLcyxr/3/yJ39ye4LK2yprXPEZi5tU+2NsmX7zm9+8xdbe7ZHB1y5Jn9p7zWtes4HdJjwnkTDbl9/XjrJjCicF+BRHuQ7zS5fXNjXl6TNG/JfF5BRmveiTFt91410yo5F51bZmnbUvZJh6uOHkFArV4dnpic549t/8zd/cVma8wgfsgumKG1QPlTxF5dnnSyL366fy2qv9Y4lPFvA98TOntKnJzZfpDS+1L2SEDCIvfT8D7pP3oPTmtysQ9/Wj/mpn9hGdLLRkTV5vJZmWeBi0Bg+W6MmN6a/92q9tD5VcIXl88uhVPUuPP/VTP7U9VLIbsr7XD+05Zr5+zr6s7R86f3KAnwq2n8MuSMbhnXgrADA3bZVhKnifIabM0rPew6ZrN3BqA81Re+Loa3vxoE9Z1Ym/suSUF/P4wM6TA7u1dmvuwI8uALsnp+bsL33pS7f3COi4aQyeKbP2Jw3PMYeTAvyqYA89HAxk555yL3qY27dfG20GxnEkq7KVnhHX+vE/SLxLFo+ZlwbGAl50J8eutnfJqm4xgMYXjTxOAMB9agPgXRnpS3umMZYZbRn4mZ/5mW2dPc9OVvqSXmUri1Zcu8cWnxTgV2VSNEPyQj4d/UM/9EPbRiYefl21mYqfQEpmMb5pwMk7ZTxsWnsO8mcbaz9mO7MMfdabfHYw2vILxPTDg1t98TUx23zd6FuRMY0xfQF0m8GA/VWvetXFk/fW2ee7qWsfZ1unlj4pwFPuNHqG4OWtKnga6G9aGDneyY+mzloeTwAqH3+yxNcJ9VNdspNfe8lEj7by3C8/ZZQmy5XOTap97bb5WpEBfH8Q50pg+dFauy0DP/qjP7rFpolre8ksrp/y8VZ2zPHJAX4qk6JdjoXVADMv7cgwMy5NhjQ+J4R0h7KHDbOd+rbSZru1N3mizVj5HF+y8bQiY+mRZ7fz0S5IJwCwe/fUldF3Ii0/8vKmMclc25GvrHZm/6LFN+sfS/rkAT8NMJUvPcsonEHiqXyl45l8j8JQtZmsCYxJi77yT57SazzrSjt5bAazasWjv+1tb9vm7j2v4NktNVrlsoxpOuNhlaXeZInrS/Ha7kqfdVbeY8ifJOApNaPw8Cm9OMXGE716ax49OZVNGcrR17J4rhInoz6sdaZ8PDMoW6dhs1y6+mJLkpZpbRMA9va0d4MK1KYtnqJ6icO2AWDvo6i7rjSzPW2soT7Xj7X8WPInCXjKC0D7FJkB9pWv9H3yHlTOKlc+GcUrz9r25AOg8ivfKqe27I+x/AjsblB9hKo3loDaipaPpvrSALDz8ry9G1ht1N6utuvDBH11jh3s9HOSgKfY5u4ZeZeRlM0wjRQ9WnH04ujF0R8kVjdQqJes6MWVVS4/xxUdbaarh847e4rqBtVWX7EHUZY+ARqw7Xy0lOspKrDP/THkJpvcGbrK1P4+vlnn2NInB/irKju+yxQ+DXaV9GWy7ldGvj4Vam+lK69s8keftNLFlmN9UoNH98YSDw/8yoHdNown7m0sc5NqMxiwez2P16/N2hE/SJj1H6TebfOeFOAZriMPn7EpfCp9plPqVXjVi694l6xkPkisz8kUJ7d4ylK+i6f+Jac8D27p0UMlN6jm7dbeeWUrMp5V2BNjCsOzm783jdHulFc/ZvtotbX2tzz+tU6yjiU+KcBPpWUgtKnwybMvrS5PaC3aSkb7SFb+QxnPieH1Od7XwyOAnSHgoQG0OTtw8+zAbusA8FuDVxew3ZTagmHebvnRMwsrNVP2Lj2uOohn9qd0/VrrVH4M8UkBnkKnUikwT58yU3aGkS9U1ypGW4u9/GDpbvLFL570ZM7yq6ZXOfIOMpMbj+nHj/3Yj1183/d931YGlJXFKwZ2Y/E1MJ79He94xzZvt+3XKg0e0xUrMqYw9sfw8Lb5rntkjAP/7Fdjq+14xJM26dLHHE4K8KsiM/5Kn/mMiFbaSQJUlucAA+jbcBZfMlbDRn+QuH4mq37IS6/lHgjxxDy0flZvbdP2CZ7dy9atxvgkXhvnPIH2n7bW2IHdi9d5dleOQv0of5W4MeCt/9Vb89GPIf7kqI+hN1fsA4XuUupl9EQDOz43cFYreEOeEnBMA1a5+8CWvPvFs09kBa4pF095aSeiKZd5+aTPttDb124j2Fvf+tbt+4+mN+qRYz+MqYynqK985Su35UievfbEQnHyyxdHX+Nd5btoa71D5k8S8A+rMEZhePPkPhkNZDymOb14BVr567S9DwRT5uRxUpqqKJ88te2q5ITwzUee3et5pmjA7uQ1FnuLfPPRSxymMa3GzClgsmfb0uiTVruPQ3wnAc9wbtgAw42cmzoGdhPr0fu60zLjB5AHNXz1kiOORtZKV9ahbPJL659+WnZ8071Patgf40FTnt3J7BsyXs3zEoepzbr0mPzZfn2qPw86zlPgv7OAzzgu+76xAhw8Pi9pqiDclOED1r42zK9f8YpXbECdc22bwVyBbO3tM3jW2W0ZAPbuS5rCOJl5ejLWsaz5ToCVviniMfq5U4APaBnV5b+txVYyXv3qV1/qWR+F3QMWWU0v6lfy9S9aaX3tjSU3qf5ihoe3wuREwMeLu1q5Qf3pn/7pDez2ugvkNe7ZTul4xCvf5Dn19J0C/GrIAAdMs2ymH4WBJ3h3yUaLR3uzP+jm81ZeTGN8KMlDJZ7dPF65k9Y0pm8+8uzywD7bm21oZ5bJp4/41nI8px7uFOCnsRjTwbgAVsjIxdHxrbTK7hcHIHxk7JKDhq8jPlMVnt1+GLsf7Y2xt93yo+kNUNsLY23dUuZrX/vaiyfvvbHkJNjVjj6s/alflSnfVxfPKYc7B/gAxWh5tOIMGfjKix8GALNuYBLnyWt/8mlTuRtUD5a8oO4Ads8NrNRYr/e2kienwG6rL7A7AchKXmMuX6wNZWuYddeyU8/fOcAzWKCTXo0/88qFXbSPlVztt/qBKwDOfDxJBHYPnnh2L1sDu20DVmRMZTx9BWwPkuyLsQTZgyVlU17tkB190mqzOJ7yj1N8JwHPoNOoGR9tVzpP/KgMXxt5dnLRZr9MY6y+WGO31m4qY0rD41uNMUe3umS+bp3dQzT73HeBvbEWG49QXqz9xhl9Y3rMfu4c4FdjBr7VrtGL1/KHyZOpHwA/5UsDnXm7ZwJP3ftAkimMPTK+7svb59mts/s6mGmMm1V5zxbWk0g/55hne5WhrfSHGd8x171TgM+oADCNHCAqL0avrPg6xkxedScoya0vYp6dF28zWC9e2+sD7G5GLaGas9vmKwb2dUWmtmZcP+ZYahvf7Nes9zil7xTgM1yGLy+etAmIyfMo07ON0oGPl7e2bg7vwZH9MGgeIJnKPHHvJQ5gty1CGo0MBxnJK7/2u/J1zJNeeq176vk7BfgAkKHlp2EDSzT5eBk6+oMafdZLXm2RFY2HNT83NfHOqTRQ269PBg/Pk3u45PMa/qiAx59PUpNVm+Joa78ri7e+xD/pa91TzR8U8BSbclP2bSlZO2tb+/Kzjw9raG2Qt6+tthJYVwd883ne3cnQ4Ykqry7G31Rkl1z9rc1dfa9s9memd9W5Lu1+erypdmd/Dwb41TjyUyHr4Ctb6XMwV0mrv0vGLhp5+/iv0tY+nrWtmZfm2S05ms4Iq64AnLcXr3Wv2ubku6qMWedB0tlOndKzzQeR9bC8BwP8ro5PJayKmWW76j4utMYJ9I5TDfMkNabVnsaFPstuY6wHA3yDNchdyog2FXcbCjm38fAaYLPsx85C8UxPWnWqt1W6gZ+PfZjxBgRfJtJADczcdA6wQc+6KWVX2eQ7p49LA9ltV6+y5bQ9/o5ddR4V7dYBPwcF8AKawZePhi7sUtBWcP45Sg1MG++y3aRJF6qX3aM/yvggUxqDXAdX3uB2KeFRDvos6/Y1MEE8bb32ZNp+LXsU+VsH/BxQy2kGkkIqL66s8kcx6LOM29XALtvtomVz8a7yR9HrW5/S6HQDMijrzB6seMnhHB4fDUwbG5U8G3t6LHagCYG7/Ea8oZ+DAL6xGKiB2ztCEefweGuAc7NlwhHgYaDD6G8a9AcDvIE5DN7ra+IGmwLEKSH+jXD+OXoNZLs6akHCxjgvrkzAT7tm9+rcRHwwwDcYSvClAHGAV7YOfpZV9xyfhgbYLsC7mrN1Hv62R3BQwFOE9zL9lSIvn1eY4A74xbetoHN719cAO2ZLMaCzM9Dz8k4Cdp1812/tajUPDnje3QvJ9nvPkKKidTKUP8enoYHsKAb0vvtjocKcfobbAP5BAD/Pam/x+GScbztOL27wPMBUWOmppHP6eDWQPcXAzan5QhqbA75pjaD8tsJBAN/gABjQvZjsmyt///d//4nPPE8lnIGexk4zNn3xNTcfjfINTK8vyh9iHn9wwHtR2Vv5QO+9TW/kC3mHaeJ5Ekz6OX0zGuBoOtYWohev5eWVA7f7NPb90Ic+tHl505s8PJ7bCrf+pHWCVtobPF50cKl797vfve3z9r1HW2Pt+Z78t6WUczsPpoFpowleU1LenW19Kc2nyXNovqmDF+jVT0bxg/Xg6twH8fAN0NYCr6l5+95qje+u8Pa8vvVaCpthKnPSz+mb0cBl4MuGk4d95uFholUZixI8u+mrci+3+D4/p6Z+jm3KupkRHehvKydwvZv5spe9bHtL32cp/E26gfvmio8M9Spbb/jclCLOci/XQGDMdmK0SUdzcwroDn8wYc7uCww8vM+Te1eXx1fPjSvHNmWWvrw31y+99SmNATUog+5T1TwB7+7fLAB/fm/laU972vb+JtBX9/pDPte8qgboen2NcK6ckdMGQLzKTFFcrc3bfVPHAfiWIf3FvT9mcL8G6E4G9Zwk69X8qn18UL5bB/zsIMDz4JTgf4gMvHme7ydSnK9pufyZ15v35VGmnHP65jSw6nsCUxnAB1rzdYcpqRU3K29s6Ls5pq6+kOY9Xas080sL9Z6cmw4HAzxlOYCYEvwztOmNDw/5vByv4Dvoysz5eHk3t7sUddNKOsv/5KauQBnYxRwVoPPaPLkpiw/A+oSIT4r41Aiwu5p72uoqnv3FhZmO9qjjgwGe4joMFJh5c/8SDeC8A0/Q8hWlmvasl9hHrZCzvE/VQACf1GiBNjuyEfvw6JyXK7fjyXtfNJZ3leb5herskjtpjzp9UMDP+aDlSQeP7sbGui0vbz7PW3hKx4ucw2E0ML0vsM6pDZC78jpcsS02ALgvpvkbITerbEvGBLyRdPKIZxs3NcqDAH71DJTXYCmPcszbxaYybTbiQc7hdjUQILNPrUeXV8Zupd2XcVw8OrA3DV1lbBU+/qN+x2V8s8510rcOeIOZA6K4zu7o1mdNaxwr/3UGea5zfQ1M+5CSjXZJjLeyy2w35cQH8JOenEcZ3zrgU4qBGeBcX1dWuOmB1845vlwD0w7S00ZqruWrNPzxNIVdPTkeZa7g8VRnlfew+VsHvA6nNIPqmHTpBox3Kk3ZOdyuBrLFbHWfTVbebF3d6q18ypWt/NV7VPFBAG+wBtbZ3GD2KeGy8srO8c1pYIJwtdFlZXo0+aV592xfOfrku7mR3HtQdpPCryLb4KfSZp199MlzTh9GA9cBaaDO5qt9ryPzQUd/EA9voAbXTUoDTyEGsdJ2lc3BzvJJ3yVrLT/nL9fAZbq9rOxyqR8rzc7i0lepd12egwD+QTo7FWoK1DRoKqebIHLxzzoP0taZ9zAamLa86R4cDPAGCbzCLpCuoMXvLt6j6XU9vocegG/VJ5lb4vxz1sDQwMEAP/qw1yMDOeAHdHs0bCrztM7DqE4Y+zU8oPKvGV/1VV+1PbCylq9+MmZ75/Td1cBBAb/Li0cD1IK91d6U8bL3G9/4xm1Tmb026MIznvGM7c95X/7yl1+86EUv2p7y8fpNf+aUJ5nn+G5q4KCAn6AuXTzNYR/NBz/4we3Ped///vd/Ytspz4+f17fPpqez3/It37LtnydjnkClp+xz+m5p4KCA36XqAA+cAZR399frtg4DNx4blJQDvW2pXh6x59o+DofpTTLwT7m72j3T7oYGDgr4AB0YqRytfLEbVd8ysdfaFmJbTv3VuhtUnt3rY/6W3RQnPtOZlj2TW3t3w7TnUe7SwMEAD3wAKQCn/DwCuxiQvTKm/Ml7e6u9HfXSl750ewnYSfD2t799OxnM2/E5QbqhnTJ3KeBMu1saOBjgAfkyUAIqHjEgm6bw7t6acdhnjW46Y9+1E8HKjC2p/r+0TWnqC8m6W+Y9j3bVwMEAryNAKOTpt8z4CfT2xbshFbxY8PVf//Ub+AO8/BNPPLGdQF5AaA92omqn/Dm+uxo4KOAvU/sEKa/9Xd/1Xdun2tC9+ufmlUfvLXlpa/HW4b08cg5nDezSwEEB33RjV8cCPB6Af/azn72tr3vlz0On3nw3LQJ6U548vauB+skv3tXOmXa3NHBQwAfqCU7qX/OmKebvTW3Mz50EbmbN4b1OZl7viasD/xnkdwvIVx3tQQGvk4HWlMScvJOgAQCuMl6bFzdtwQP0wO67J+bsPgmRjBXsyVzptXGOb14DbNDV2BVZOrvcfOufbOGhAa/TK5AayP3o+Cwj2ibgoRHvXJ1kfLKrFxvIrcAI+JwgvLnY0bp7Mqq75qOf45vXQPgAcM7JR5o8OZ97oW6+F59s4aEBT1SD+qTYj6VWOuB1xAvwvhsOuAC/hgl8dXnxQoAvf46PSwNsl/0A3jMTYAd8V+d2vU5MxH9TI3noN550VpiDixZdjNbauHyBEjwddcYnQzyVEO+UG+0c37wGpl12pff1AG9TF2kPBNmZzXs46Krc1XmfnEdJf2jA1xkDmmEFJ8/sRtM8fA7QJ5R9Us+HlyjD/K4wlRvtHJ+GBiYe2DTH5tuhHJwrO7qFCFd2Cw8c4oqbRz3aRwb4XR2bXtqNpQ1fVltMX5pvm7+/+c1v3r4oa5+7S90MgX7Szunb1UB23Bevvclm+NnZwoQNgPY72fXqGQpHZx+UxQZPymGj1TX1bio8kjm8ztVJgy09O21glg77xqAzHriB/A/+4A+278JbR1fe4J39FOY4h+PWQB5dbG7u4MGB2os7/hTBt/9dzeVzbFbfbAQE+hzhTY70kQA+gJuvFaLJU4JL1tOf/vSLp+49OLK06GP4QO8DqRTzvve9b5vqeKKKjudLvuRLto+sUsQ53L4GdjmvgF1v2BltHkAO0G5O2dl/O3l5x18a+TY8bw8rprZW53xA1/dErcBN3NTGo4wfCeDrUIMvL05BQGtbr4H5fLLLHIU0v+MB8KKZz+MFeidKe2OaBk355/TNaYA9dgEwm86ybk7FnJgD2C1DuoI7vLNgKuOGlU29s8C7O3xx2H3elHkTI7s24PcpQ4frdIoRm57Y4wLw/gnCTYt97Hl4S5MUBOwufZTh7HfJ66HSrlWem1DKWeYnHVW2nDrJrrMMDdgd7NjBm/unDzerFiV4f4Eze9aznrXtkfKKpj1Qc8l5tvco09cG/FU7kXLyzl3CWot15pvmUJSTwNxPzBPw7i5zTpYJ9qnoq/bjzPdgGshuaqXvSUuasuhidjSd6R5NDPRsKnBewP3MZz5ze//4Oc95zuYIb+OGVfvXBnxKIKQBTxp6Ab0yXt6fHwCwy9qb3vSmT/zxAQ9gquPhhM1h1UmOdmor2jm+WQ1kg31631W+8joJ8HFertj+tdF/eH3v937v9gK+e7W5VH2TI7o24O/XqQZtoClFHUA3cCsx3lwyUPN1S1UufdZoeQTzPPP75Mz2dtFm+Tl9HBpgW1dnz1+stXtp58l7L+rw6qYzVu2AvakMu06s3MQoPu1eI5/6xOgarSSizq75RE66uZzLnamLZSp38P7byV28ub05II+/htpY6ef8o9VAtnpQqexTXY7N1dxSM6BbgQN20xkOr3uz+LNt8YO2fRX+awNeJ9eO1XENV4YWHc0h7zLXCg1gewDlL26AvwdQpjeFZEzZlZ3jR6+Bqe9V+rTtWjbzPLfDNNZNqpWYVt88cVc2n7Ekd8p41OlHDniKCtg6G7ilu3FNmQ1QHuh5fJ7fMeup6wQ5h8NqIHutvcieK529HW5IeXtxCxBT1kyvMh51/tqA39cRg18HkEJW+pTB2zus0gC3OtWLb+anrHjRVnp1o08ZlRXHIz/5Jj3ey3jqfyd4dZJZvE/upMdLBnr5q/BUp/avE9dedWs3+ppf+ZS7b3N0Y4pWvfhvK37kgL/JjqdkbUyFoQPZPoBNXnWnHPnC5MPjQJv0eMX7eAK8evpUqN3iysrHN9ubZejl4ykvRtvFk9zrxMlf6872Kou3vkU/pvikAE9xKbr0LmVOhe/iX8uTsY+uvLKMWp1ZFi2eYnWrj2fSZx30eOOpvPrR5aVnPl5x5aXF8dcGmoCe/I9RPtlH+crwOZmFqzqXjfmIfj7pfo6oU5d1JeXHs8vg0fDEP2kzXXnyivfRKxfj2cW3j17d+5XP/tWOeKXvou3iwSfMspleyzbmhT/aykvOKmvyHlv65Dx8Ctyl5MC3q6x6YuUr6Gad5Mw6peNbeaLHpxwt+mwvGt4pJ/6mZ0158OVZVznqRFvllq+NNU9uoTL5yV8afeWRj1Yf8B1zuLEHT7c16Awyle/G14MrT2stbdqXYxkMbwbq5thDLg+7LJvZq5+8q/TfapJ2rC45PGDxJFGonSkvWrLLxzP7F8+UNWnS1Vt5Jn2WRa/dVYZ8Y7JqZmyWFG3xeFzCyU1pKJ7BMlrpjMkTWu2xS8+LJW94wxu2d2YrFzvw2M/j89uve93rLn77t3/7/wFQsmtL29VHs/HNswOb3d7ylrdse76VV2/yS+8Kk1e5+lY0LpOz9mfKnfWkZ7621rh28drz4om3h4C/9mu/tj0fmfJn3eTPNibvMaZPDvApfCqTwmcIzB/60Ic2QHtqOwN+JwYPBrCe8trNd9WgD4KYHFcLbTbtqGxjuuQnOfHLTxDtq7qOd/JNmdEv46/teOnEVY9ebOdNd6vcZBZX/9jjk5rSUHqgStHFFC3twGPH3l/91V9t3n3XFgU8QGqjGuMybIBL1i7jZXixJ4Uu921tnV9diI+MmdY/+V00fZqrH3Nsu/oSLT71yZWf8//4ajP++iFfPToBenqx7cNUTZh1qz/pu9rbKh7Zz0kBnu5SdvE0xNQt45u/m5NK7wrq4nFCtI3BicLg88kvo5v+MKo5eo/K1Sfbwcvby2+ag8d83pNFJ4WAbvuE4BG7hzDaACr3GmSRb/u0wz4TTyXnVtvSZNij4mTTFnBqW6yf6tmJqh33JdoCZFs2TPXanKdNMvDU5/S26q6TQttryBYr/RjzJwV4ip3KZTBHxphl0gDkiI5XKK9MYORkASZguDoAInCIgRVwvJ1jA5SbYPWcHEAGSHicHL6D6XVG7agjBkb/YqLOq171qg2w2nAP8c53vnNr3+N3r7s5bK4KzG6qO/SFPFeVJ+59MRmwTcd8I9+OU30AYiflK1/5yq2fePRTuXdKHU40wY7F5z3veduGrsbk5HACpxN82nSsYaVlj5XvWPInBXhKC7QpcCo8A4kBS6h81ptp5Z0U0oAB8O9617u2XZt2+gEPbw3U733vezfPDJA8KSDb8AZMvKJ2n7r3QgvAAL16PLk3ury1rw1ygP1tb3vbdrKQ1aN30yuvO/qDNq9C5r31hwxXDqtOrgCASaYdpt4bdTVxspmeObxcQ64xGDMZ+J1IxqSPrhpvuvdOghPV9t10tjqLreDeT7pLr9FPJT6pm1bK7kjBFN+BphzoAnw0cUZKhvxqWIAHSF4XEADCa4leVnjy3hZXqzm8qSkEULkCBGbAB26A57mdOPoh5nmtfuAlH0B/6Zd+aQO3bbMvfOELN8/Og1s18lI7sFs1cXK89a1v3VaCtAfsdh3qP2/dpy8A+Qd/8Acv/Kmbdt10Oqlst3YVeMc73rG9TM2ru8q87GUv2zZ1/fIv//J29TH2qZOugPSVHtNttK1g/KTjQTqq5El5+FWZa55mp8EC/9T4rLPLeNVxeedJgQOAeHNA5Y15Wd4cQDK82FzY5yasDgGiF1zwOAEAHkjJAXogbg7OM5v6AJjpB0C35KkddP0xJzf9IJcsJ5IyJ6UTwQminj64D9CWub56+F772tduVxTvkGoHrxPU0Q7VOZ7S6S/dok89Vn4K8UkBnkIvU7SyjMLADAPUa71kBHhxRiztTRyX+CfuzZMdynlfNNME04lAUrtOENMQHpcHB0Jg5GFNVdQN8ObQphW8cv0RAyi6ek4MwHQy6I9VoO/+7u/eAG9MTiYniz4DLcBr00lqGqOtbppNX5yQTiCHewLTmMDenH1T1r0f43WsobGu9FPJnxzgp2IzymqEgIw3MFUvIxZPHjT8ThZzb2AD7pU3mfGSoU1gdTOpHgC5mXWS8PBi73Hy6oCZZzUNMgcPmIDuxPHk15VE0B+yAV9/tIXmBHADjeaEcBKaSnmuoM9usE3H8Cn7rd/6re0kagUoWU4MsmcwNkdjTzeT5xTTnzrKExxBBgmEhpCxpJV3AsSDBpA8nXRAwi8AEwACvTSe6n6M41N/a8MqC+9s+gFM5vimMrw78POwpho+SqRtVwh0oNceOQIeICWnebWTCE/9wQu4rhroAE+up75OMFeHliqfvHfvYbyePJvX+8Kbeo7GSgeNsbhR3m/8+Or7WjcZxxKfPOApeCpZGvCAhRF5tm4u0YADD6ABBk/LK/O8wpTnRJk0ZRkWXRqPGHCqa55vhabvsQAbkGm/kwKg9eGJe9OllinJNB1yD6CfeJ0Ysx/acQjm8FaHzMXxmZv7IoAbVCeZ9t3smj5pzxXjBS94wcXzn//8DeytIJGlvn42PmMRGlN5NDyOyuKrbPKiHVM4ecBPZWYsl2jej7dlfN7OTSTPyVMyCLDziKYQLvumEEJGzKjRxMmftAnG6G4SAZ631Tawm1cDvKmJKYs5NM+un044Mfk8MM/vCoHXPHuG2T9AdwWxkqOuNozFyesAeuXSysmkAx7fSWnsdEWmKwnHgLYG5YWpA+lZFs8xxycFeApOyRk+5a6GABZzZsESo4c+gIWurhUXJwOAvOY1r9kAmvxkilfaauA8O15l8sDkzfzmzG40rY/zsA6fqDCPt6Zvzu1Gs/k0b8zzk+MkBPjKVg8MrMDsHsCSo/EZj/sFBw+ubSeCK4YbaWvzrmqmQE4YdQVt6guHIDTu4sZdvDGNH3zCvvLBetDkSQE+TVFuihWvRsFnOuCGjgf+lV/5lc3b8ZxAoA7wmPLwvi7xeXjlQAS0vG6el0xgsPoBgICrDWlAAx4gIpssXhTQAAn4LW2SpQ7Zyiwf8vKuAvqpT9ogzxREP8h0pdJPbalfkOaxyTU2J4sxdVP8xL3pkpMLj3JTJf3EB/SmMU4E0yBtquck0rarkP4Yp7ACOv3XF/Eu2iw/hvTJvQCyKp4SJ+BTOmO51POebt54dEYGLMABLFMM69mmIIAOLHiAQl0ylGd04AXOQM0Lu0eoDmC19Mczm1+bJpCvTJvaEPTHlMM8HI+2jAPYAFydPHz90a7+dBICsXb06al7UzTTEf0BYsAFWu0aG3Dj0Z6AZlza1P9OJm1r11jJ1p4+Tb3rx8xvAk/k52QBT7+BO+Wn80kHcAfjAT/DMy7QMDgAAm6BLAcZkz7LpTN6bddm8eTfxYOmX8Ac4NWxLs+rC7VReiN+/CeZsoBvDu4kdZi2GZ+4K4ITCrAddGHcgCx2kjhZHJyAPqxBew59mv2afOvYZ9mxpE8K8Ck95aX88pVPOprA4AwLZMqBGfAnLz75GdZ8ZcktfxW+lYcM/XISFvQJCPE69FcoH19jrRzd+MhrbGQ5hNpSng5qRxmaMjRXiF0BX0F/yhevfYz3mOKTBTzl7gqUX1nxyoenIyOtRitf3WRNerR4KotevvJJL60sPjRph/Sax1u9+OLtaiS/hupEX3kqj15+8kebPKXFDjz1o7rHFp/UTSuFpniKTNEpdVf55K9OHo5x1vJ40MnPg2ZINGGtt6svG+OeH/zJKE52bc12KotWnWL0+oDmKK9MiDbHNOt/jOtTf6eMyVt/opX/1NrHl/vk5PX4+nZpj1Iwhad0FWZ6n4B4ivfx3U9eYKgvq5xd8quDd9ab6VXOvvyUX/1oa7720PFMPrRd/LU7+S+rpyw51T22+KQ8fMrLQBlCPkPgKT35qltZ+RknB4+0ID3r8L7JnXV38UZb+eRrq3jSSot3hVmnvs6rljSeeQWTn56dXLTCOs7K59jjrax41k3mvnpTxiHSJwl4ipoKlaboaCl9n0Ljj696xdF31a8s3pVnX3l0/LNu6eJVXvmrltfO5EdzTNpM18asW7qy4k6aWV965uM9xvjkAJ8hVgWv+dXAu5SfV5wGW73jauDkru2Rrwx/c/D6WtuX1cVDJp74qrcrTvbsO1rtz/4lc3r82kt2POVn/WjxiFvhqqx4V73KjiE+OcDvUprlNEty3hKy+SrD7FK+p5yewHrA0j6SZKonzHrSu3phGLgAAAu/SURBVOj76sy68RTvKpt9VV57tbmr7qyjfPLWBuB78OVJbmv71vc9/CpUr3ajXxavvFPGZfWOpezkAU/hAO/hi/0kP//zP7952OnN8DgYy94SD1wYfq43Z7hdhplGli5MudEm76SVXmMyVq9MBlp9rs5sG22WSwu1zwF4f9UribY1PHFvm4GHUAEe/6xfXXGypGeY7UvvklHdyTtlHDp98oBPsQDicT2P9upXv3p7FY5yK0/RHtl75M74nRQZaeVHn4ZNRjLXWHmyKttFi0cZvvqx8k4ZpdWtX/iFymYaj6eudmXaJ+PhFh0VZp36E00cbcosrazy6iRbPlptHVN8soCn8KlYeZuf7BWxY/BHfuRHPmGUAIXHNCbvjt50iEd0kInO+3vqWF18jOogR1xd+1LynIzrakOWea76Pe1MRm2gk4M3WWTXz/qAv7rFeJIToJKDDuC2UtCH7QsBXr3awt94jJVu6m98yuNBm2NKN+gO7TqOOZwc4CmUchlBmtIL5e0hMV/FJ6BXDz8gZSz7WGwuM9/1eQyGB14vU9jRaMciGtA4oYBIzHvagmvjlvdYfVZDPby24JJlI5nDZizt2yxmLwtgmVfb2EUeXluVHY3LSfvEvWkI72x/i/ZqV6zf2jJOsoHX1Y0M43cSepc2wAZa+2V4ff02Zv1R372N9vTV/Q26NvVPW9rUhumgfrebNN1PO0Q7xvjkAE+J06PsUioPNven4GFURslDkWHDFYDYB8743hBSDriAoRzwbDJjcIAFZttrbcBSx4slPLottsBi0xYen/LwEogTB/jIRQcgJ4H2nUxONt+LIduXDAJ8IHPPoT/a11dtOtHsZkS3m9FYlaOToQ/KyNZP4yAXYPHphxdNyFJOL+3D11/9Ip889wH04oQ3BluaxUBPp+l2S5zAz8kBHlACbwpPz8qAj5HcwArx86o8Zd4JSFzufSX39a9//QZOr9qpz7hWe7yg8VM/9VPbqg4Akvume9+qASA3gjysqwVvCDwCmpcqvD9KvnZ4afcM3rAiByDR3XN4KcNXeu1396UwwHSyudn0xhQP7p5DG4CnfTKevLffvhPTiaC/PPSr792/ADFga4+XdzLSAxADtu/Q8N5eSiFfm2T/4i/+4va6Ie/txMTr5RkOgWwnMP05nMRkOgQnTWn51TZoxxBODvApjUJXpVI4L8bLAdIMwMFQAAmAjG8qwdA8oW+9+OYLsPBsTgReEJiAEUAA+Kl7e8rJcmkHYnTtogMBGiDnHZ1kvLSrjpPCyeSjS3gBzQEsvL7lUieT+k4Cb0z98A//8MbjRAR07ThZ9Jds4wBOsWmSMeAzJlcZ/cNPLwBszDw8PbgiGZu+oXtBhAfXdzLINPWhI57fDX/7453ogrGvdph6P7b0yQGecikZUKSBpRAdOHjJGfChMzw+IOn1the96EUb2BiU8YGZgYEfYIBBe4AOmDzgS1/60g1IQAOgTo5uMk2BvGkEMMACPADG65Jjjsxrmxp4DVG75t3qAZuTQtvArz+CPpOvrinHS17ykq1936UnW94XzMjSR8D0uQ7Ad0UhD3idwPLactWjQ/XROITAn+5cAdzLeCvsxS9+8dY2Pei7MPV/CsA/OcBniDWmbAdDACzPNQ3Ao/KAvCIeAHAlwPPEvcs1gCgTAMBVALjyuAAJcICijCdkbAdPbAqSh8frmzCmFE4YN4n4gDZgi3le7SvD12H64sSs/+oJ+g2AgOlVQ3LVAVb3GsbsZBDINya8rjracoXi5WvTiRhwnYh4gdmY6UC/OhGcSOSvYfax9MpzTPmTA3zGZ4wUnAEZj3F511ffm8vOgB9ggZJn48kYFj+jMjAaPgEdaLSHTz3yAUKZNoHLyeIJr+kK+QHae6zA5aTiWQHOyRKoAJrHd7L4lxKyW7nBR7629KsgjaYN/WwMTlR1lBXU12dj0y/BFc6J3gnlquQKgBfN1Ur/nFTG7SpJV+TUD3RH+pcWisk65vBJbR5zL+/TN8rmoQTAYTBThpSfMZRHCzzqmd4wbmX4AYD3NH0BJHKVA4+60oDQXB6YgFu5KZKbWp/IMD1xMvCuThAfP3LCRLc6o31XDX02HcHXybb2fbavTwCtL7y1PsdvXMBtWqVv9beTSKxNJ5mybrD1zQlEHw5tGO8EOP41RKv98ivfofMnC/ipWGneTpyiZ/mkxcOwwGVOayXDlCDvThbwAqyVDJ6PhxbISh4wAA5wOszlAc+8/Il7nt/83bTD6g7Z5v2mQtoGsKY82nZj+4pXvGLjA9Q3vvGN25VFXwT9ru/aB2hygBaojcF40JV3k2oMyvUVuIHYCeZE9vVgJyD+5vv6aUzzfiew60c62ten2Uc8xxZOFvCBLoVOo6Ct5fFFZ3zzbF4c8ExLXL4BBc2lHoiByAGga8j4ZD3xcYCbxvCI3UcAnCVDJ4x7AvNgQMVDvvacXG6MTTEAzVTHyYPHTexT91ZmgFaYwNeuJUf99zxAfwBeW/jJTC+uRsDtCuGKo5/6ZZxkOmG0Ke0K6cQQ6CudySsXdtHjK94Yj+zn5AC/KpMB0HiwjDt5MlBGSv+8NsAxNFD5JB3gmBYwtqmCG0MAdfNnCiKQN2WiAbL7BnN93hOoyOZFu9FT5sRBa25NvpUi69yekgKf9gHe1YGnNeVR3ry+9o3RfNsypHsEcpxcYiesw5VCPe2RBfD6ZayWbV3dBCdIOpR3supDJ/Qc70yr45h9qg45xxhODvC7lAjsvHOP961nr4FhhIyjDlCbsvzET/zEJ6YPPC4e4ARWB7AAvWB+DeDqFoDYdAWAeWsyeWcy/H2Nh1cAb6mTrNoGQN96NG1xkvDY6il34qhDpmmLE1TQriMgq2Nrw0/+5E9uVwf19Z+npxPz8dbQk+8B25P3Hlw5sV1RtI9Pub7ri/bIkXayG6OQHosnbWM48p+T+mrB/XQJrAwNMI5dQTkDMxgeaR7OJd6BBigM7tIujzcQieW7mmhjls32o6NJq7PWM/UAbqByALeDp+ehgV57+gPos/3Gp/+Aa9rlnsFJ6YTgzU2f1K/P6jRtc1XRBplOYjfNAG7MaPOo77V5qvFjBfirGIERATAQqIMGYA6GZXBgMRVQJuB/2LDKkg+svC1wAytviw6YXXH0x4k4Q/LEDv13AgG5I/BWJ35jIR+vGJ187Rq//KMYb+0eU3ynAD8Nzgj78soyOJ4AEE35w4ZVblceJxvQXSXskkFO3li5oN/SygTljWWVsea3Co/Rz50B/C5Dos0QCCYtnl1lk+9+6eTgS1Y0eeny8cQnH1jR4kcvRCOjesXxrPJ30aOtdaOfenw1V3Lqoxz9X4E1inYmGf5hjR/QimtoypbOswP35K3P0WZ+n4zamPHkTZZydCFa+Y34mP3cGQ8/DZoNp2Ez9loWffLG8yBxcqqTPHSHvGPli7941kMrL73KQhPWqwNavNJTxkwre9zCnfLwjHmZQe8Htocx/truvrbWPk6+KWPlq2+TP5p4Fx1t0qf8WfdxSt8pD38/wzH+LqPvo99P3iyfwCrdFKb8bBvNEU0cjdzo8az5fW1Peunqln+c48fiwdOjMtA+w++jX7VdoLws7JI/6+wq3ydvF2+0KVP9SS+9T+7jQr9TgM/g07jRMmhl0ctXfp34QWSs7VZ3H11/4qlv8ZavXLyWyXcoj7e6j1t8pwCf8TL6/Ywbn3r34032ZXHyklV+lY+OJ74pc6Wt+SmzesmrnV08u3ijPU7xnQI8cDB2BpdfATONG3+0y3jj2RfPduOZqydoyS+Ob5ZFm2NAKy9W37G2mdziKXfSklFbj1N8pwA/DTcNHP22DV0fiuuHeBdtll81vU+OsRb28VT+OMV3DvC7jJvxizNwJ8CuOvFcJU4uOVPWTO+TM+viuSxfWbL2yccXL57S96tX+SnHdw7wGWsXGFaa/Eqr/oPEDyID7wTgrvza9pQ/0yvfzO/j20efdU85fV6HP2Xrnfv+wBq4U09aH1g75wqPnQb+f837UgfcgHPvAAAAAElFTkSuQmCC;" vertex="1" parent="1">
          <mxGeometry x="220" y="261" width="71.04" height="99" as="geometry" />
        </mxCell>
        <mxCell id="qtwSQsPml5bytBeIYUfw-13" value="" style="shape=image;html=1;verticalAlign=top;verticalLabelPosition=bottom;labelBackgroundColor=#ffffff;imageAspect=0;aspect=fixed;image=https://cdn4.iconfinder.com/data/icons/logos-and-brands/512/272_Raspberry_Pi_logo-128.png" vertex="1" parent="1">
          <mxGeometry x="291.04" y="271" width="78" height="78" as="geometry" />
        </mxCell>
        <mxCell id="qtwSQsPml5bytBeIYUfw-19" style="edgeStyle=orthogonalEdgeStyle;rounded=0;orthogonalLoop=1;jettySize=auto;html=1;exitX=0.5;exitY=1;exitDx=0;exitDy=0;entryX=0.5;entryY=0;entryDx=0;entryDy=0;endArrow=none;endFill=0;" edge="1" parent="1" source="qtwSQsPml5bytBeIYUfw-14" target="qtwSQsPml5bytBeIYUfw-3">
          <mxGeometry relative="1" as="geometry" />
        </mxCell>
        <mxCell id="qtwSQsPml5bytBeIYUfw-14" value="" style="shape=image;verticalLabelPosition=bottom;labelBackgroundColor=#ffffff;verticalAlign=top;aspect=fixed;imageAspect=0;image=data:image/png,iVBORw0KGgoAAAANSUhEUgAAAiYAAABbCAMAAABwM75CAAAAulBMVEX///8AAABkpwvU1NRXoQBfpQB6enpbowB9fX0dHR271aWcxHno8eLGxsbG3LVVoACJiYn19fW2trbj4+Py9++fn58zMzOvr6/r6+vN4L6+vr5ycnJ0rjWHuFegxn+YwnPg7NeQvWenyomwz5bV5chvrCuDtlHc3Ny10p1SUlLd6tLv9etFRUUnJyd2sDpiYmLQ4sKioqIWFhaVlZVpqR2Mu2B8skRqampNTU0/Pz8vLy8QEBBAmABaWloo8ft3AAAQD0lEQVR4nO2di1bbuhKGTbBrCMEmEO6EOFcg3NsE2lLe/7W2HVvyzGgkKwG3ZG3965y1dm15ZKTPo9tI8bwa9W2j1HadGbHaBLlvbP717J1s5TBxspDDxMlCDhNWt73LhXaa//pNVCU7xbuN0n+c9i/7o0GUXqw1T4cJq1YcLOT3/vWbqDoV75YhfJvEiTeLW0FYa54OE1Ytv7FQUO9HupJOw/zdwtzT+Z43m8W9ca15OkxYrRcmwTT0ZrXm6TBhtUaY/PG8OO2luEbnH2iNMGkt/rf4f31ymLBaI0z+itYTk+jC98e39b2Xw4RoLTFphlGKSlyjn3WYYK0jJp0/nYdxGEU1du4dJljriMl07I2TaOLF9b2YwwRrHTEZXXoPYXzq+dPaXsxhgrWOmCSxN55eX9/+qe/FHCZY64iJN44GSTLo1liFDhOstcSkE05G0Uu3xhdzmGCtJSbpaHgwGNX2Vp7DhGpNMalb64/J5tlepuPNEyuj7c3dRfozvhZqx+Rqc5H93i6XfwUm7TpeSGg6TV3SMJmywyUbTFrT0SB1aryBz9J0OhwMIpRHNSbt5ztYsOf74N7mWSlR4u3D3yD5zz213DlM2o/nUq+76lucvIL7z+IiyP7sqri4uwVf9+aMWjJjcr7xfkWvfY6SwUPs+2EQhL7vxy/NhCaowuS2OU8N+FlwUGrgYaAYyNXs5eprFhY6/eI+24JOLy/kW8bza2GjCpP23oairQNxF1b41uLKybmS/P2A2GQxgU8cq+9xAO9/Ky7uwouH+aV7mv02AcWIyY/s4p2CVqr4Y61ys5HWb6NUEMYvEU5ixiR6iENkIPBn1x0m4Y6fB5rp1hU6RSBaHKn3mg8xfMv0JefJ4kYFJscqJJnOCxcBP9w9ffotbLQ+TK4USDK9I4dmwuS5uPz9h/ICaSWtDkoUoCouKsFvoJoyYcIbCMNLNelOkdDXYlLUuIJJk8kkCBchl2ZMGFdSKL9PMGmrrqQQ6tPUhsmZTfYGTOAt2vakhRuu2M9vPfhKFRegvICWQY+J1kAjDJTKXhWT2xc+k8BPKjD5oSt2UbwQk0ev/V2bfgN2N+rC5FWfPbCkxwTd2VAxyWrlmi97k5qx6ghkHYBq1mISGQw0Ypp6RUwSX5tJfG3ERPtxbrwXKSAm371tfTWhCqkHk2dolupnaUmLSRt2vTdoh0oU7tKgdHWeoKiDoUiow2RuNhB2cQ9lNUyuQ9M7Xo8MmOCSfvt2fi4KUjT2EJPtI0M1oXKvBxOzSm+mw6SNKKeUCEyypmcpULqo/PPeI/pu/X6RUoPJvMpA0ECcrIRJFDfUXACKk0CLCWpy7vICbR+/p/8QA1KEidDNcVbEJ2eP5PqbNFw3JttM43cnLekwQU2WOj8EyjH07UGZgEoO/KA7SLUzi2HVh/M8KY9JFxlojIepgeE4hJ3NAG2EWAWTBDqsNJdGmklvFpbtkPgPBhNYbO/l5c27I/nfKiZv5Wd78I5vyfFOnZjcHR+knYqDzT3aAsquhgYT1PtmXgB9bmEwVFNwGvig9HfkTEVr2AC1/yefyGIxGUIDXWmgE01AhyWAS02rYNIobYXhQMyrdZ56tFekYnIFy00zN6lg8gvdJg5FOPL6MLkH3oG82564zmOCXCeTv9fFJWYHyqiEKybTXQNpzy+KnsNkWhrwH7CBBJAG3dsKmEzKPy2+RC1Ya4I7RiomcArkJ71ZiGLyi9zHnAiXVBsmOHs8mpetDovJfhUlafGSTyuMq5seWZHMZFan+IRD4Qo4TED9qbNhwFUBJpbHpIQ5iJVVgAh1jVRM4Pf1qCkGiomSALv+wvHXhQmF9Be6Kxwihwm6xlPiZaDgQWPoV3iUnkgeNBLm9qJzKnomLCaXZR1xBsqOJ2h2lsdENjkBt9uzBf9oFZNDY/3nIpioazG4IoveSV2Y0H7nCXuXwQQl3PP0ur0kHiUcmFLLr10zcZ5yEpb1q2LSKQ08sQZKTuJEXFsak6jMhZv891rAn5i9ia7sMCa/mRT4i86v1YSJOsF+xBllMIFXdI6zUGcJUC5p70PRPAadTxWTgagg7dBKpggm4tLSmHTFa2pY9JKyg6RiguuA5wRjwi3bnzEpasJEmerADlGsbKuY/AQXXvmSAupc+mjpI4yH7EdYDo6CF60xWP0qJhYGXmQdJ8WVZTFpyVy0B2ZIGBlMUMVoOEGYvHEp8Bxd/sHXg8mR+hBiVIsJpORcV1JQnaiBQfEHHChyYtPXYESkYNKUBvSbDRORRnq1ZTEZCgt8k7PQzDBvQqY9OE4QJt+YBGTWKh8x1YPJu/oQMqrDBA6IrCjJ1CSghJdqGc+LFAGzjMtJwUR4CmM4m2wyguLCspjIXPp8+kySeAYTNEjcYD/XLVLkjHBoweJSTWs66kPVmFyhLhjvD3llASQQlFjxKMKZ227tUTARXUvfFII7kqmS/MKSmLTla2p6Juhv4dZ0iDthQECYqH2DTLhzshiV1hmWhFSNyY9n8I/75QIcIwxKQECZygGEpT2KiZxBNx8jItuD0/zfS2Iic/FNmQifxWGCSjkvVZICrxCzwkYWo9IvhAnUkpSkimbYo6ABiWjzbdscBRPh6StCqAUW4RD/2xITMX0WGPeWRKZ4kyulKO9wUSJvoskBPb+oqy+KiamYdIpe4Pg4mINbg8ooYyKKieCsYkWa1vOKmITGqULhGvk/5kAtTBStowQ5MlobTLSzr0YlXbCOCnuBomso+gyVopiIOdyKvo2oQTGFuiQmYnJHjXlEEg/xzDOcwK7i2mOCFhNW3LSTyIgQhMms8UFMxnaY3H4Mk/5nYOJ5aPfFQmCecu0xQaO5t1X36PS5MeXfwkTU4L/FhAmbvpH31h6TK2RimQFxqWvZPfk/Y8IE/8i4gqUxWeyA+UKYbOKvwHp6rdQwLFfGECbi4sqYPNhhMvpYozP/LEw874ZyIopzaUy+2rxJ2h15q8jZqGEAwzHQSMeyb1hKO9IxD5VkF7ZY+FkSE7EiEJjWuiWL5ndBa2iZipABFDLNP4p90RfEBE/sLNWNhZ4kK0NExMBqpAmkw8RcgbKePzpvMueTk0zMyG7S7XT5ZYvpNTQLm8/3fy1MyHKC3WZ6L4tnjTEkZFeg2NoSrDoLK6fhA+Nj/SWn156EY8gxkZPFxlPl+oZZWKg24SSvya3qAkahyPny3BfDhGwDM5eDUNInkDRoASZ0saVKFJOWnYGQpNqpqFE5n5Zj0rFZeuqY1nSw8G6pfLRjsfSHQoOeFUu2mCCn9MmY4H1cN6odRcmcBCcpkHhguczcaEhpl/5Ma7feKV2TEbNyuslbOrSxWSFuGlaIqZA/ySPVECZMPfGBhpWYqHFouHf0yZiQRQn274BqTXBMrM9BAiNhqwwWZikmlzYGRCiIfEqOfDTVLgbqApOBDGzSR7XIP9cCEzwju+iMIkyYQANSvUWKSkyY0BHklD4bE7JZmju3olSCt2IEzG7vXCMrb1BKwWRqYaB0JsUCsex7aBaW5VsJTGR6fSfWFL2mCo2LVUzYVge5oKImKzFR+wfYKX06JmSu2XAQzhQ3N4E/0493x/I7TXRJdi7K/1aDHC+kgVPu4UwyWkFC0VLAQZI25bBMMqCLawF7Am0wQd8cg8md+giONikusodqmesJTwV/PiYYw3tdCSS4uaEnlBDJ71QbP7jjBw/yHyomIOY94Q1IEsGwW8a2ctspSpMSE9nxIJuRpWbl32yDCRo5Mpgw3hrt5hUVyWICI1IV4Miq7udjQqZ32PbTS16IJxlXzJzJSgwu2Pu9tM6CBzFwZfbplJs2eU7KDMCouy/RUTux0DGIl5fDmEYQMJx0wM5RDpMzuhcB7uHLZ0nodi46Jsb3xVUWExwqt4/M4G+9FkzIqHhLNTadYEjibmXwouwHNIJZotztjMOctuIWgwnYXMqNVy9KikB7AZwYxRhuKS/nAsuuB8NJZwb/ahWTtIx/t8mFUjlCFBPiBXCTI8cvLCbP2BLkRImOqgMTckyHsjNNgSRR81PUKytAmYxtyvar4ITbHDoH/p4aeCqPlsC9z3JChxwY14QbgsGUMViVohxE+JAMFZMFAnAGA02UnZVpoH5Bf4JrvpzMZzGhHkOeAMkcElgLJiSkk3aP4IkEgT+x/F0d2KyjWdommOf3cy7YEwnGwACqoxE4aCvAP98yAKbBi47w0VwAE+C0GqhPfjomR/AomBSl+V2ULjmiMa9E5nyTQ1m95GYJEH8urHKKzs/z/f3jR+7QvVowoccLkuCTsiQDcbyhhVqQrjDuN5/anc5pcw6ncMX+UBYTdPJIGM+bUSc1EPVRuDadpgXPpB2oXpQJP4ExgcdjpA7F70fRNEkfKQ840e7TkbW2vXd4tXlIzqAoloO5Y3A23p/3T3af6UFooBXhMaH7PQyqBxPSPSGzsXL8EPdJpRg1RZ9jWgVxHId4j48Y6/DH4CTEQGYBG1An81HjEqTPhOAJZUCcqY+PZEpz8WEm2tOSSFeBSMTvQExe37TJN/AgSHPKtPHoNrRUUBMmpHuCg0/iApLukj/jNjWdr5fVselEgkxJhYGAGQThWsfJRTOGAxwMT6RJe7qz10xVVkYDQkx+qPs1SqGhsgYTJu5W6hl1XerChPSV0dJShkngz5f/rb9kbDz9rlzw0R3RlzBHwoIqvEjUPPHwBCV/EccckDiYXqx5IiW5pz3JUd17Uao8kwiHJdFeaCk8oaI7s17f7DzXukJcipxwCu/G6WfbW+0HIZWjqaQCeAiA/lzYifYwzvSd2Cw7Dzyb4Yv2XFjdsaJBNgWsP/BTe34m2KtDo9eUfYILHZ3oLaNgJg0n91f1BhIAoW3naLATx/2VfzX0qcE6hLSO4TSF4ZRpsm9MGvAb2n2jA6bWg8x3aU+Zvp1zoPgX2Yqg4VzYAyW2cVGv0BUrQY7cgcPK5l6ICQ5mUqKfpOGVMEHuzQoT+cQ5nTjpfegniJtKPQdBTEbVreIw+ZDb5ceAEvgz09R5Qn1Q4C/aJ3Fmva9OIU9fYnKWqBjFnxYH4bMntVzRQzs3jvD0qBoL2yYO5Z6JHdm7PxL6TQ/COqPj4tfcFSFMROdyd1saOrrntpp/L+/LXzgw/wLGgrwb5ic4PqpRt5H9sERBQhiPL6lzas0uFhrz8SmjnUYsDQRh3Nip+hGoZKfMMh3b9vOlwE6RzYxbGWz1xtk4qngk7AqUnsS78WC2Nw9vxIFH74/Hpsl4ETLdPn4snjh6P+a3nxt19XwjfMrNj7K+ToA+9ps30JJ69/Vmv66f1Bk1e92FJsNoJd/Uau7kBro7TbsWcFo80W+azhtA6jQHk8VLNkd257JUyyay3ul/L4eJk4UcJk4Wcpg4Wchh4mQhh4mThRwmThZymDhZyGHiZCGHiZOFHCZOFnKYOFnIYeJkIYeJk4UcJk4Wcpg4Wchh4mQhh4mThRwmThZymDhZyGHiZCGHyf9b/wHlgDf3Pqu77AAAAABJRU5ErkJggg==;" vertex="1" parent="1">
          <mxGeometry x="620" y="20" width="423.08" height="70" as="geometry" />
        </mxCell>
        <mxCell id="qtwSQsPml5bytBeIYUfw-27" value="Raspberry Pi with Pi Hole and Universal Forwarder" style="text;html=1;strokeColor=none;fillColor=none;align=center;verticalAlign=middle;whiteSpace=wrap;rounded=0;" vertex="1" parent="1">
          <mxGeometry x="163.28" y="20" width="184.48" height="20" as="geometry" />
        </mxCell>
        <mxCell id="qtwSQsPml5bytBeIYUfw-28" value="Raspberry Pi with Pi Hole and Universal Forwarder" style="text;html=1;strokeColor=none;fillColor=none;align=center;verticalAlign=middle;whiteSpace=wrap;rounded=0;" vertex="1" parent="1">
          <mxGeometry x="167.76" y="201" width="184.48" height="20" as="geometry" />
        </mxCell>
        <mxCell id="qtwSQsPml5bytBeIYUfw-29" value="DNS, NTP&lt;span style=&quot;color: rgba(0 , 0 , 0 , 0) ; font-family: monospace ; font-size: 0px&quot;&gt;%3CmxGraphModel%3E%3Croot%3E%3CmxCell%20id%3D%220%22%2F%3E%3CmxCell%20id%3D%221%22%20parent%3D%220%22%2F%3E%3CmxCell%20id%3D%222%22%20value%3D%22Raspberry%20Pi%20with%20Pi%20Hole%20and%20Universal%20Forwarder%22%20style%3D%22text%3Bhtml%3D1%3BstrokeColor%3Dnone%3BfillColor%3Dnone%3Balign%3Dcenter%3BverticalAlign%3Dmiddle%3BwhiteSpace%3Dwrap%3Brounded%3D0%3B%22%20vertex%3D%221%22%20parent%3D%221%22%3E%3CmxGeometry%20x%3D%22163.28%22%20y%3D%2220%22%20width%3D%22184.48%22%20height%3D%2220%22%20as%3D%22geometry%22%2F%3E%3C%2FmxCell%3E%3C%2Froot%3E%3C%2FmxGraphModel%3E&lt;/span&gt;" style="text;html=1;strokeColor=none;fillColor=none;align=center;verticalAlign=middle;whiteSpace=wrap;rounded=0;" vertex="1" parent="1">
          <mxGeometry x="400" y="90" width="40" height="20" as="geometry" />
        </mxCell>
        <mxCell id="qtwSQsPml5bytBeIYUfw-30" value="DNS, NTP&lt;span style=&quot;color: rgba(0 , 0 , 0 , 0) ; font-family: monospace ; font-size: 0px&quot;&gt;%3CmxGraphModel%3E%3Croot%3E%3CmxCell%20id%3D%220%22%2F%3E%3CmxCell%20id%3D%221%22%20parent%3D%220%22%2F%3E%3CmxCell%20id%3D%222%22%20value%3D%22Raspberry%20Pi%20with%20Pi%20Hole%20and%20Universal%20Forwarder%22%20style%3D%22text%3Bhtml%3D1%3BstrokeColor%3Dnone%3BfillColor%3Dnone%3Balign%3Dcenter%3BverticalAlign%3Dmiddle%3BwhiteSpace%3Dwrap%3Brounded%3D0%3B%22%20vertex%3D%221%22%20parent%3D%221%22%3E%3CmxGeometry%20x%3D%22163.28%22%20y%3D%2220%22%20width%3D%22184.48%22%20height%3D%2220%22%20as%3D%22geometry%22%2F%3E%3C%2FmxCell%3E%3C%2Froot%3E%3C%2FmxGraphModel%3E&lt;/span&gt;" style="text;html=1;strokeColor=none;fillColor=none;align=center;verticalAlign=middle;whiteSpace=wrap;rounded=0;" vertex="1" parent="1">
          <mxGeometry x="400" y="280" width="40" height="20" as="geometry" />
        </mxCell>
      </root>
    </mxGraphModel>
  </diagram>
</mxfile>
